%TF.GenerationSoftware,KiCad,Pcbnew,4.0.7-e2-6376~58~ubuntu16.04.1*%
%TF.CreationDate,2018-01-20T15:33:45+01:00*%
%TF.ProjectId,BasicModule-II,42617369634D6F64756C652D49492E6B,rev?*%
%TF.FileFunction,Copper,L1,Top,Signal*%
%FSLAX46Y46*%
G04 Gerber Fmt 4.6, Leading zero omitted, Abs format (unit mm)*
G04 Created by KiCad (PCBNEW 4.0.7-e2-6376~58~ubuntu16.04.1) date Sat Jan 20 15:33:45 2018*
%MOMM*%
%LPD*%
G01*
G04 APERTURE LIST*
%ADD10C,0.100000*%
%ADD11O,2.000000X3.000000*%
%ADD12R,1.900000X2.000000*%
%ADD13C,1.900000*%
%ADD14O,3.548000X2.272000*%
%ADD15R,1.200000X1.700000*%
%ADD16O,1.200000X1.700000*%
%ADD17R,0.700000X1.300000*%
%ADD18C,0.685800*%
%ADD19C,0.254000*%
%ADD20C,0.400000*%
G04 APERTURE END LIST*
D10*
D11*
X8890000Y-5588000D03*
X13890000Y-5588000D03*
X3890000Y-5588000D03*
D12*
X7747000Y-11430000D03*
D13*
X10287000Y-11430000D03*
D14*
X15367000Y-8890000D03*
X15367000Y-13970000D03*
X2667000Y-8890000D03*
X2667000Y-13970000D03*
D15*
X6985000Y-21463000D03*
D16*
X8985000Y-21463000D03*
X10985000Y-21463000D03*
D17*
X9210000Y-19050000D03*
X11110000Y-19050000D03*
D18*
X9652000Y-15240000D03*
D19*
X10287000Y-11430000D02*
X10287000Y-6985000D01*
X10287000Y-6985000D02*
X8890000Y-5588000D01*
D20*
X6985000Y-21463000D02*
X6985000Y-16002000D01*
X4953000Y-13970000D02*
X2667000Y-13970000D01*
X6985000Y-16002000D02*
X4953000Y-13970000D01*
X2667000Y-13970000D02*
X9017000Y-13970000D01*
X10287000Y-12700000D02*
X10287000Y-11430000D01*
X9017000Y-13970000D02*
X10287000Y-12700000D01*
X15367000Y-13970000D02*
X12827000Y-13970000D01*
X12827000Y-13970000D02*
X10287000Y-11430000D01*
D19*
X2667000Y-13970000D02*
X3302000Y-13970000D01*
X2667000Y-8890000D02*
X2667000Y-6811000D01*
X2667000Y-6811000D02*
X3890000Y-5588000D01*
D20*
X11110000Y-19050000D02*
X11110000Y-16825000D01*
X9652000Y-15367000D02*
X9652000Y-15240000D01*
X11110000Y-16825000D02*
X9652000Y-15367000D01*
X10985000Y-21463000D02*
X10985000Y-19175000D01*
X10985000Y-19175000D02*
X11110000Y-19050000D01*
X2667000Y-8890000D02*
X5207000Y-8890000D01*
X5207000Y-8890000D02*
X7747000Y-11430000D01*
D19*
X10985000Y-19175000D02*
X11110000Y-19050000D01*
D20*
X8985000Y-21463000D02*
X8985000Y-19275000D01*
X8985000Y-19275000D02*
X9210000Y-19050000D01*
D19*
X8985000Y-19275000D02*
X9210000Y-19050000D01*
X9239000Y-21304000D02*
X9239000Y-21463000D01*
D10*
G36*
X16451892Y-713654D02*
X17048623Y-1112377D01*
X17447346Y-1709108D01*
X17593500Y-2443875D01*
X17593500Y-13422196D01*
X17347089Y-12916410D01*
X16841737Y-12483015D01*
X16209000Y-12276000D01*
X15571000Y-12276000D01*
X15571000Y-13766000D01*
X15591000Y-13766000D01*
X15591000Y-14174000D01*
X15571000Y-14174000D01*
X15571000Y-15664000D01*
X16209000Y-15664000D01*
X16841737Y-15456985D01*
X17347089Y-15023590D01*
X17593500Y-14517804D01*
X17593500Y-22439314D01*
X17396318Y-23205633D01*
X16934509Y-23820038D01*
X16272728Y-24210949D01*
X15471888Y-24324500D01*
X2325686Y-24324500D01*
X1559367Y-24127318D01*
X944962Y-23665509D01*
X554051Y-23003728D01*
X461086Y-22348068D01*
X635670Y-22348068D01*
X924926Y-23048121D01*
X1460062Y-23584192D01*
X2159609Y-23874669D01*
X2917068Y-23875330D01*
X3617121Y-23586074D01*
X4153192Y-23050938D01*
X4443669Y-22351391D01*
X4444144Y-21806500D01*
X5827000Y-21806500D01*
X5827000Y-22423993D01*
X5911951Y-22629082D01*
X6068918Y-22786050D01*
X6274007Y-22871000D01*
X6641500Y-22871000D01*
X6781000Y-22731500D01*
X6781000Y-21667000D01*
X5966500Y-21667000D01*
X5827000Y-21806500D01*
X4444144Y-21806500D01*
X4444330Y-21593932D01*
X4155074Y-20893879D01*
X3763886Y-20502007D01*
X5827000Y-20502007D01*
X5827000Y-21119500D01*
X5966500Y-21259000D01*
X6781000Y-21259000D01*
X6781000Y-20194500D01*
X7189000Y-20194500D01*
X7189000Y-21259000D01*
X7209000Y-21259000D01*
X7209000Y-21667000D01*
X7189000Y-21667000D01*
X7189000Y-22731500D01*
X7328500Y-22871000D01*
X7695993Y-22871000D01*
X7901082Y-22786050D01*
X8058049Y-22629082D01*
X8143000Y-22423993D01*
X8143000Y-22047303D01*
X8149813Y-22081554D01*
X8345775Y-22374833D01*
X8639054Y-22570795D01*
X8985000Y-22639608D01*
X9330946Y-22570795D01*
X9624225Y-22374833D01*
X9820187Y-22081554D01*
X9889000Y-21735608D01*
X9889000Y-21190392D01*
X9820187Y-20844446D01*
X9624225Y-20551167D01*
X9489000Y-20460813D01*
X9489000Y-20009955D01*
X9560000Y-20009955D01*
X9672655Y-19988757D01*
X9776123Y-19922178D01*
X9845535Y-19820590D01*
X9869955Y-19700000D01*
X9869955Y-18400000D01*
X9848757Y-18287345D01*
X9782178Y-18183877D01*
X9680590Y-18114465D01*
X9560000Y-18090045D01*
X8860000Y-18090045D01*
X8747345Y-18111243D01*
X8643877Y-18177822D01*
X8574465Y-18279410D01*
X8550045Y-18400000D01*
X8550045Y-19036211D01*
X8519365Y-19082127D01*
X8481000Y-19275000D01*
X8481000Y-20460813D01*
X8345775Y-20551167D01*
X8149813Y-20844446D01*
X8143000Y-20878697D01*
X8143000Y-20502007D01*
X8058049Y-20296918D01*
X7901082Y-20139950D01*
X7695993Y-20055000D01*
X7328500Y-20055000D01*
X7189000Y-20194500D01*
X6781000Y-20194500D01*
X6641500Y-20055000D01*
X6274007Y-20055000D01*
X6068918Y-20139950D01*
X5911951Y-20296918D01*
X5827000Y-20502007D01*
X3763886Y-20502007D01*
X3619938Y-20357808D01*
X2920391Y-20067331D01*
X2162932Y-20066670D01*
X1462879Y-20355926D01*
X926808Y-20891062D01*
X636331Y-21590609D01*
X635670Y-22348068D01*
X461086Y-22348068D01*
X440500Y-22202888D01*
X440500Y-14517804D01*
X686911Y-15023590D01*
X1192263Y-15456985D01*
X1825000Y-15664000D01*
X2463000Y-15664000D01*
X2463000Y-14174000D01*
X2871000Y-14174000D01*
X2871000Y-15664000D01*
X3509000Y-15664000D01*
X4141737Y-15456985D01*
X4245365Y-15368112D01*
X9004987Y-15368112D01*
X9103265Y-15605961D01*
X9285082Y-15788096D01*
X9413766Y-15841530D01*
X10606000Y-17033764D01*
X10606000Y-18137847D01*
X10543877Y-18177822D01*
X10474465Y-18279410D01*
X10450045Y-18400000D01*
X10450045Y-19700000D01*
X10471243Y-19812655D01*
X10481000Y-19827818D01*
X10481000Y-20460813D01*
X10345775Y-20551167D01*
X10149813Y-20844446D01*
X10081000Y-21190392D01*
X10081000Y-21735608D01*
X10149813Y-22081554D01*
X10345775Y-22374833D01*
X10639054Y-22570795D01*
X10985000Y-22639608D01*
X11330946Y-22570795D01*
X11624225Y-22374833D01*
X11642108Y-22348068D01*
X13462670Y-22348068D01*
X13751926Y-23048121D01*
X14287062Y-23584192D01*
X14986609Y-23874669D01*
X15744068Y-23875330D01*
X16444121Y-23586074D01*
X16980192Y-23050938D01*
X17270669Y-22351391D01*
X17271330Y-21593932D01*
X16982074Y-20893879D01*
X16446938Y-20357808D01*
X15747391Y-20067331D01*
X14989932Y-20066670D01*
X14289879Y-20355926D01*
X13753808Y-20891062D01*
X13463331Y-21590609D01*
X13462670Y-22348068D01*
X11642108Y-22348068D01*
X11820187Y-22081554D01*
X11889000Y-21735608D01*
X11889000Y-21190392D01*
X11820187Y-20844446D01*
X11624225Y-20551167D01*
X11489000Y-20460813D01*
X11489000Y-20004498D01*
X11572655Y-19988757D01*
X11676123Y-19922178D01*
X11745535Y-19820590D01*
X11769955Y-19700000D01*
X11769955Y-18400000D01*
X11748757Y-18287345D01*
X11682178Y-18183877D01*
X11614000Y-18137293D01*
X11614000Y-16825000D01*
X11575635Y-16632128D01*
X11575635Y-16632127D01*
X11466382Y-16468618D01*
X10298848Y-15301084D01*
X10299013Y-15111888D01*
X10200735Y-14874039D01*
X10018918Y-14691904D01*
X9781241Y-14593212D01*
X9523888Y-14592987D01*
X9286039Y-14691265D01*
X9103904Y-14873082D01*
X9005212Y-15110759D01*
X9004987Y-15368112D01*
X4245365Y-15368112D01*
X4647089Y-15023590D01*
X4934055Y-14434560D01*
X13099945Y-14434560D01*
X13386911Y-15023590D01*
X13892263Y-15456985D01*
X14525000Y-15664000D01*
X15163000Y-15664000D01*
X15163000Y-14174000D01*
X13187944Y-14174000D01*
X13099945Y-14434560D01*
X4934055Y-14434560D01*
X4846056Y-14174000D01*
X2871000Y-14174000D01*
X2463000Y-14174000D01*
X2443000Y-14174000D01*
X2443000Y-13766000D01*
X2463000Y-13766000D01*
X2463000Y-12276000D01*
X2871000Y-12276000D01*
X2871000Y-13766000D01*
X4846056Y-13766000D01*
X4934055Y-13505440D01*
X13099945Y-13505440D01*
X13187944Y-13766000D01*
X15163000Y-13766000D01*
X15163000Y-12276000D01*
X14525000Y-12276000D01*
X13892263Y-12483015D01*
X13386911Y-12916410D01*
X13099945Y-13505440D01*
X4934055Y-13505440D01*
X4647089Y-12916410D01*
X4141737Y-12483015D01*
X3509000Y-12276000D01*
X2871000Y-12276000D01*
X2463000Y-12276000D01*
X1825000Y-12276000D01*
X1192263Y-12483015D01*
X686911Y-12916410D01*
X440500Y-13422196D01*
X440500Y-8890000D01*
X548290Y-8890000D01*
X657903Y-9441064D01*
X970056Y-9908234D01*
X1437226Y-10220387D01*
X1988290Y-10330000D01*
X3345710Y-10330000D01*
X3896774Y-10220387D01*
X4363944Y-9908234D01*
X4676097Y-9441064D01*
X4685459Y-9394000D01*
X4998236Y-9394000D01*
X6487045Y-10882809D01*
X6487045Y-12430000D01*
X6508243Y-12542655D01*
X6574822Y-12646123D01*
X6676410Y-12715535D01*
X6797000Y-12739955D01*
X8697000Y-12739955D01*
X8809655Y-12718757D01*
X8913123Y-12652178D01*
X8981411Y-12552234D01*
X9453265Y-12552234D01*
X9556284Y-12782810D01*
X10129605Y-12959466D01*
X10726888Y-12903275D01*
X11017716Y-12782810D01*
X11120735Y-12552234D01*
X10287000Y-11718500D01*
X9453265Y-12552234D01*
X8981411Y-12552234D01*
X8982535Y-12550590D01*
X9006955Y-12430000D01*
X9006955Y-12193227D01*
X9164766Y-12263735D01*
X9998500Y-11430000D01*
X10575500Y-11430000D01*
X11409234Y-12263735D01*
X11639810Y-12160716D01*
X11816466Y-11587395D01*
X11760275Y-10990112D01*
X11639810Y-10699284D01*
X11409234Y-10596265D01*
X10575500Y-11430000D01*
X9998500Y-11430000D01*
X9164766Y-10596265D01*
X9006955Y-10666773D01*
X9006955Y-10430000D01*
X8985757Y-10317345D01*
X8979594Y-10307766D01*
X9453265Y-10307766D01*
X10287000Y-11141500D01*
X11120735Y-10307766D01*
X11017716Y-10077190D01*
X10444395Y-9900534D01*
X9847112Y-9956725D01*
X9556284Y-10077190D01*
X9453265Y-10307766D01*
X8979594Y-10307766D01*
X8919178Y-10213877D01*
X8817590Y-10144465D01*
X8697000Y-10120045D01*
X7149809Y-10120045D01*
X5919764Y-8890000D01*
X13248290Y-8890000D01*
X13357903Y-9441064D01*
X13670056Y-9908234D01*
X14137226Y-10220387D01*
X14688290Y-10330000D01*
X16045710Y-10330000D01*
X16596774Y-10220387D01*
X17063944Y-9908234D01*
X17376097Y-9441064D01*
X17485710Y-8890000D01*
X17376097Y-8338936D01*
X17063944Y-7871766D01*
X16596774Y-7559613D01*
X16045710Y-7450000D01*
X14688290Y-7450000D01*
X14137226Y-7559613D01*
X13670056Y-7871766D01*
X13357903Y-8338936D01*
X13248290Y-8890000D01*
X5919764Y-8890000D01*
X5563382Y-8533618D01*
X5399873Y-8424365D01*
X5207000Y-8386000D01*
X4685459Y-8386000D01*
X4676097Y-8338936D01*
X4363944Y-7871766D01*
X3896774Y-7559613D01*
X3345710Y-7450000D01*
X3098000Y-7450000D01*
X3098000Y-7132317D01*
X3390981Y-7328081D01*
X3890000Y-7427342D01*
X4389019Y-7328081D01*
X4812067Y-7045409D01*
X5094739Y-6622361D01*
X5194000Y-6123342D01*
X5194000Y-5792000D01*
X7332000Y-5792000D01*
X7332000Y-6292000D01*
X7528663Y-6872692D01*
X7932577Y-7333922D01*
X8446885Y-7581658D01*
X8686000Y-7491754D01*
X8686000Y-5792000D01*
X9094000Y-5792000D01*
X9094000Y-7491754D01*
X9333115Y-7581658D01*
X9847423Y-7333922D01*
X10251337Y-6872692D01*
X10448000Y-6292000D01*
X10448000Y-5792000D01*
X9094000Y-5792000D01*
X8686000Y-5792000D01*
X7332000Y-5792000D01*
X5194000Y-5792000D01*
X5194000Y-5052658D01*
X5160452Y-4884000D01*
X7332000Y-4884000D01*
X7332000Y-5384000D01*
X8686000Y-5384000D01*
X8686000Y-3684246D01*
X9094000Y-3684246D01*
X9094000Y-5384000D01*
X10448000Y-5384000D01*
X10448000Y-5052658D01*
X12586000Y-5052658D01*
X12586000Y-6123342D01*
X12685261Y-6622361D01*
X12967933Y-7045409D01*
X13390981Y-7328081D01*
X13890000Y-7427342D01*
X14389019Y-7328081D01*
X14812067Y-7045409D01*
X15094739Y-6622361D01*
X15194000Y-6123342D01*
X15194000Y-5052658D01*
X15094739Y-4553639D01*
X14812067Y-4130591D01*
X14389019Y-3847919D01*
X13890000Y-3748658D01*
X13390981Y-3847919D01*
X12967933Y-4130591D01*
X12685261Y-4553639D01*
X12586000Y-5052658D01*
X10448000Y-5052658D01*
X10448000Y-4884000D01*
X10251337Y-4303308D01*
X9847423Y-3842078D01*
X9333115Y-3594342D01*
X9094000Y-3684246D01*
X8686000Y-3684246D01*
X8446885Y-3594342D01*
X7932577Y-3842078D01*
X7528663Y-4303308D01*
X7332000Y-4884000D01*
X5160452Y-4884000D01*
X5094739Y-4553639D01*
X4812067Y-4130591D01*
X4389019Y-3847919D01*
X3890000Y-3748658D01*
X3390981Y-3847919D01*
X2967933Y-4130591D01*
X2685261Y-4553639D01*
X2586000Y-5052658D01*
X2586000Y-6123342D01*
X2612402Y-6256072D01*
X2362237Y-6506237D01*
X2268808Y-6646063D01*
X2236000Y-6811000D01*
X2236000Y-7450000D01*
X1988290Y-7450000D01*
X1437226Y-7559613D01*
X970056Y-7871766D01*
X657903Y-8338936D01*
X548290Y-8890000D01*
X440500Y-8890000D01*
X440500Y-2443876D01*
X586654Y-1709108D01*
X985377Y-1112377D01*
X1582108Y-713654D01*
X2316875Y-567500D01*
X15717124Y-567500D01*
X16451892Y-713654D01*
X16451892Y-713654D01*
G37*
X16451892Y-713654D02*
X17048623Y-1112377D01*
X17447346Y-1709108D01*
X17593500Y-2443875D01*
X17593500Y-13422196D01*
X17347089Y-12916410D01*
X16841737Y-12483015D01*
X16209000Y-12276000D01*
X15571000Y-12276000D01*
X15571000Y-13766000D01*
X15591000Y-13766000D01*
X15591000Y-14174000D01*
X15571000Y-14174000D01*
X15571000Y-15664000D01*
X16209000Y-15664000D01*
X16841737Y-15456985D01*
X17347089Y-15023590D01*
X17593500Y-14517804D01*
X17593500Y-22439314D01*
X17396318Y-23205633D01*
X16934509Y-23820038D01*
X16272728Y-24210949D01*
X15471888Y-24324500D01*
X2325686Y-24324500D01*
X1559367Y-24127318D01*
X944962Y-23665509D01*
X554051Y-23003728D01*
X461086Y-22348068D01*
X635670Y-22348068D01*
X924926Y-23048121D01*
X1460062Y-23584192D01*
X2159609Y-23874669D01*
X2917068Y-23875330D01*
X3617121Y-23586074D01*
X4153192Y-23050938D01*
X4443669Y-22351391D01*
X4444144Y-21806500D01*
X5827000Y-21806500D01*
X5827000Y-22423993D01*
X5911951Y-22629082D01*
X6068918Y-22786050D01*
X6274007Y-22871000D01*
X6641500Y-22871000D01*
X6781000Y-22731500D01*
X6781000Y-21667000D01*
X5966500Y-21667000D01*
X5827000Y-21806500D01*
X4444144Y-21806500D01*
X4444330Y-21593932D01*
X4155074Y-20893879D01*
X3763886Y-20502007D01*
X5827000Y-20502007D01*
X5827000Y-21119500D01*
X5966500Y-21259000D01*
X6781000Y-21259000D01*
X6781000Y-20194500D01*
X7189000Y-20194500D01*
X7189000Y-21259000D01*
X7209000Y-21259000D01*
X7209000Y-21667000D01*
X7189000Y-21667000D01*
X7189000Y-22731500D01*
X7328500Y-22871000D01*
X7695993Y-22871000D01*
X7901082Y-22786050D01*
X8058049Y-22629082D01*
X8143000Y-22423993D01*
X8143000Y-22047303D01*
X8149813Y-22081554D01*
X8345775Y-22374833D01*
X8639054Y-22570795D01*
X8985000Y-22639608D01*
X9330946Y-22570795D01*
X9624225Y-22374833D01*
X9820187Y-22081554D01*
X9889000Y-21735608D01*
X9889000Y-21190392D01*
X9820187Y-20844446D01*
X9624225Y-20551167D01*
X9489000Y-20460813D01*
X9489000Y-20009955D01*
X9560000Y-20009955D01*
X9672655Y-19988757D01*
X9776123Y-19922178D01*
X9845535Y-19820590D01*
X9869955Y-19700000D01*
X9869955Y-18400000D01*
X9848757Y-18287345D01*
X9782178Y-18183877D01*
X9680590Y-18114465D01*
X9560000Y-18090045D01*
X8860000Y-18090045D01*
X8747345Y-18111243D01*
X8643877Y-18177822D01*
X8574465Y-18279410D01*
X8550045Y-18400000D01*
X8550045Y-19036211D01*
X8519365Y-19082127D01*
X8481000Y-19275000D01*
X8481000Y-20460813D01*
X8345775Y-20551167D01*
X8149813Y-20844446D01*
X8143000Y-20878697D01*
X8143000Y-20502007D01*
X8058049Y-20296918D01*
X7901082Y-20139950D01*
X7695993Y-20055000D01*
X7328500Y-20055000D01*
X7189000Y-20194500D01*
X6781000Y-20194500D01*
X6641500Y-20055000D01*
X6274007Y-20055000D01*
X6068918Y-20139950D01*
X5911951Y-20296918D01*
X5827000Y-20502007D01*
X3763886Y-20502007D01*
X3619938Y-20357808D01*
X2920391Y-20067331D01*
X2162932Y-20066670D01*
X1462879Y-20355926D01*
X926808Y-20891062D01*
X636331Y-21590609D01*
X635670Y-22348068D01*
X461086Y-22348068D01*
X440500Y-22202888D01*
X440500Y-14517804D01*
X686911Y-15023590D01*
X1192263Y-15456985D01*
X1825000Y-15664000D01*
X2463000Y-15664000D01*
X2463000Y-14174000D01*
X2871000Y-14174000D01*
X2871000Y-15664000D01*
X3509000Y-15664000D01*
X4141737Y-15456985D01*
X4245365Y-15368112D01*
X9004987Y-15368112D01*
X9103265Y-15605961D01*
X9285082Y-15788096D01*
X9413766Y-15841530D01*
X10606000Y-17033764D01*
X10606000Y-18137847D01*
X10543877Y-18177822D01*
X10474465Y-18279410D01*
X10450045Y-18400000D01*
X10450045Y-19700000D01*
X10471243Y-19812655D01*
X10481000Y-19827818D01*
X10481000Y-20460813D01*
X10345775Y-20551167D01*
X10149813Y-20844446D01*
X10081000Y-21190392D01*
X10081000Y-21735608D01*
X10149813Y-22081554D01*
X10345775Y-22374833D01*
X10639054Y-22570795D01*
X10985000Y-22639608D01*
X11330946Y-22570795D01*
X11624225Y-22374833D01*
X11642108Y-22348068D01*
X13462670Y-22348068D01*
X13751926Y-23048121D01*
X14287062Y-23584192D01*
X14986609Y-23874669D01*
X15744068Y-23875330D01*
X16444121Y-23586074D01*
X16980192Y-23050938D01*
X17270669Y-22351391D01*
X17271330Y-21593932D01*
X16982074Y-20893879D01*
X16446938Y-20357808D01*
X15747391Y-20067331D01*
X14989932Y-20066670D01*
X14289879Y-20355926D01*
X13753808Y-20891062D01*
X13463331Y-21590609D01*
X13462670Y-22348068D01*
X11642108Y-22348068D01*
X11820187Y-22081554D01*
X11889000Y-21735608D01*
X11889000Y-21190392D01*
X11820187Y-20844446D01*
X11624225Y-20551167D01*
X11489000Y-20460813D01*
X11489000Y-20004498D01*
X11572655Y-19988757D01*
X11676123Y-19922178D01*
X11745535Y-19820590D01*
X11769955Y-19700000D01*
X11769955Y-18400000D01*
X11748757Y-18287345D01*
X11682178Y-18183877D01*
X11614000Y-18137293D01*
X11614000Y-16825000D01*
X11575635Y-16632128D01*
X11575635Y-16632127D01*
X11466382Y-16468618D01*
X10298848Y-15301084D01*
X10299013Y-15111888D01*
X10200735Y-14874039D01*
X10018918Y-14691904D01*
X9781241Y-14593212D01*
X9523888Y-14592987D01*
X9286039Y-14691265D01*
X9103904Y-14873082D01*
X9005212Y-15110759D01*
X9004987Y-15368112D01*
X4245365Y-15368112D01*
X4647089Y-15023590D01*
X4934055Y-14434560D01*
X13099945Y-14434560D01*
X13386911Y-15023590D01*
X13892263Y-15456985D01*
X14525000Y-15664000D01*
X15163000Y-15664000D01*
X15163000Y-14174000D01*
X13187944Y-14174000D01*
X13099945Y-14434560D01*
X4934055Y-14434560D01*
X4846056Y-14174000D01*
X2871000Y-14174000D01*
X2463000Y-14174000D01*
X2443000Y-14174000D01*
X2443000Y-13766000D01*
X2463000Y-13766000D01*
X2463000Y-12276000D01*
X2871000Y-12276000D01*
X2871000Y-13766000D01*
X4846056Y-13766000D01*
X4934055Y-13505440D01*
X13099945Y-13505440D01*
X13187944Y-13766000D01*
X15163000Y-13766000D01*
X15163000Y-12276000D01*
X14525000Y-12276000D01*
X13892263Y-12483015D01*
X13386911Y-12916410D01*
X13099945Y-13505440D01*
X4934055Y-13505440D01*
X4647089Y-12916410D01*
X4141737Y-12483015D01*
X3509000Y-12276000D01*
X2871000Y-12276000D01*
X2463000Y-12276000D01*
X1825000Y-12276000D01*
X1192263Y-12483015D01*
X686911Y-12916410D01*
X440500Y-13422196D01*
X440500Y-8890000D01*
X548290Y-8890000D01*
X657903Y-9441064D01*
X970056Y-9908234D01*
X1437226Y-10220387D01*
X1988290Y-10330000D01*
X3345710Y-10330000D01*
X3896774Y-10220387D01*
X4363944Y-9908234D01*
X4676097Y-9441064D01*
X4685459Y-9394000D01*
X4998236Y-9394000D01*
X6487045Y-10882809D01*
X6487045Y-12430000D01*
X6508243Y-12542655D01*
X6574822Y-12646123D01*
X6676410Y-12715535D01*
X6797000Y-12739955D01*
X8697000Y-12739955D01*
X8809655Y-12718757D01*
X8913123Y-12652178D01*
X8981411Y-12552234D01*
X9453265Y-12552234D01*
X9556284Y-12782810D01*
X10129605Y-12959466D01*
X10726888Y-12903275D01*
X11017716Y-12782810D01*
X11120735Y-12552234D01*
X10287000Y-11718500D01*
X9453265Y-12552234D01*
X8981411Y-12552234D01*
X8982535Y-12550590D01*
X9006955Y-12430000D01*
X9006955Y-12193227D01*
X9164766Y-12263735D01*
X9998500Y-11430000D01*
X10575500Y-11430000D01*
X11409234Y-12263735D01*
X11639810Y-12160716D01*
X11816466Y-11587395D01*
X11760275Y-10990112D01*
X11639810Y-10699284D01*
X11409234Y-10596265D01*
X10575500Y-11430000D01*
X9998500Y-11430000D01*
X9164766Y-10596265D01*
X9006955Y-10666773D01*
X9006955Y-10430000D01*
X8985757Y-10317345D01*
X8979594Y-10307766D01*
X9453265Y-10307766D01*
X10287000Y-11141500D01*
X11120735Y-10307766D01*
X11017716Y-10077190D01*
X10444395Y-9900534D01*
X9847112Y-9956725D01*
X9556284Y-10077190D01*
X9453265Y-10307766D01*
X8979594Y-10307766D01*
X8919178Y-10213877D01*
X8817590Y-10144465D01*
X8697000Y-10120045D01*
X7149809Y-10120045D01*
X5919764Y-8890000D01*
X13248290Y-8890000D01*
X13357903Y-9441064D01*
X13670056Y-9908234D01*
X14137226Y-10220387D01*
X14688290Y-10330000D01*
X16045710Y-10330000D01*
X16596774Y-10220387D01*
X17063944Y-9908234D01*
X17376097Y-9441064D01*
X17485710Y-8890000D01*
X17376097Y-8338936D01*
X17063944Y-7871766D01*
X16596774Y-7559613D01*
X16045710Y-7450000D01*
X14688290Y-7450000D01*
X14137226Y-7559613D01*
X13670056Y-7871766D01*
X13357903Y-8338936D01*
X13248290Y-8890000D01*
X5919764Y-8890000D01*
X5563382Y-8533618D01*
X5399873Y-8424365D01*
X5207000Y-8386000D01*
X4685459Y-8386000D01*
X4676097Y-8338936D01*
X4363944Y-7871766D01*
X3896774Y-7559613D01*
X3345710Y-7450000D01*
X3098000Y-7450000D01*
X3098000Y-7132317D01*
X3390981Y-7328081D01*
X3890000Y-7427342D01*
X4389019Y-7328081D01*
X4812067Y-7045409D01*
X5094739Y-6622361D01*
X5194000Y-6123342D01*
X5194000Y-5792000D01*
X7332000Y-5792000D01*
X7332000Y-6292000D01*
X7528663Y-6872692D01*
X7932577Y-7333922D01*
X8446885Y-7581658D01*
X8686000Y-7491754D01*
X8686000Y-5792000D01*
X9094000Y-5792000D01*
X9094000Y-7491754D01*
X9333115Y-7581658D01*
X9847423Y-7333922D01*
X10251337Y-6872692D01*
X10448000Y-6292000D01*
X10448000Y-5792000D01*
X9094000Y-5792000D01*
X8686000Y-5792000D01*
X7332000Y-5792000D01*
X5194000Y-5792000D01*
X5194000Y-5052658D01*
X5160452Y-4884000D01*
X7332000Y-4884000D01*
X7332000Y-5384000D01*
X8686000Y-5384000D01*
X8686000Y-3684246D01*
X9094000Y-3684246D01*
X9094000Y-5384000D01*
X10448000Y-5384000D01*
X10448000Y-5052658D01*
X12586000Y-5052658D01*
X12586000Y-6123342D01*
X12685261Y-6622361D01*
X12967933Y-7045409D01*
X13390981Y-7328081D01*
X13890000Y-7427342D01*
X14389019Y-7328081D01*
X14812067Y-7045409D01*
X15094739Y-6622361D01*
X15194000Y-6123342D01*
X15194000Y-5052658D01*
X15094739Y-4553639D01*
X14812067Y-4130591D01*
X14389019Y-3847919D01*
X13890000Y-3748658D01*
X13390981Y-3847919D01*
X12967933Y-4130591D01*
X12685261Y-4553639D01*
X12586000Y-5052658D01*
X10448000Y-5052658D01*
X10448000Y-4884000D01*
X10251337Y-4303308D01*
X9847423Y-3842078D01*
X9333115Y-3594342D01*
X9094000Y-3684246D01*
X8686000Y-3684246D01*
X8446885Y-3594342D01*
X7932577Y-3842078D01*
X7528663Y-4303308D01*
X7332000Y-4884000D01*
X5160452Y-4884000D01*
X5094739Y-4553639D01*
X4812067Y-4130591D01*
X4389019Y-3847919D01*
X3890000Y-3748658D01*
X3390981Y-3847919D01*
X2967933Y-4130591D01*
X2685261Y-4553639D01*
X2586000Y-5052658D01*
X2586000Y-6123342D01*
X2612402Y-6256072D01*
X2362237Y-6506237D01*
X2268808Y-6646063D01*
X2236000Y-6811000D01*
X2236000Y-7450000D01*
X1988290Y-7450000D01*
X1437226Y-7559613D01*
X970056Y-7871766D01*
X657903Y-8338936D01*
X548290Y-8890000D01*
X440500Y-8890000D01*
X440500Y-2443876D01*
X586654Y-1709108D01*
X985377Y-1112377D01*
X1582108Y-713654D01*
X2316875Y-567500D01*
X15717124Y-567500D01*
X16451892Y-713654D01*
M02*
