%TF.GenerationSoftware,KiCad,Pcbnew,4.0.7*%
%TF.CreationDate,2018-05-06T15:46:35+02:00*%
%TF.ProjectId,BasicModule-II,42617369634D6F64756C652D49492E6B,rev?*%
%TF.FileFunction,Copper,L1,Top,Signal*%
%FSLAX46Y46*%
G04 Gerber Fmt 4.6, Leading zero omitted, Abs format (unit mm)*
G04 Created by KiCad (PCBNEW 4.0.7) date 05/06/18 15:46:35*
%MOMM*%
%LPD*%
G01*
G04 APERTURE LIST*
%ADD10C,0.100000*%
%ADD11O,2.000000X3.000000*%
%ADD12R,1.900000X2.000000*%
%ADD13C,1.900000*%
%ADD14O,3.548000X2.272000*%
%ADD15R,1.200000X1.700000*%
%ADD16O,1.200000X1.700000*%
%ADD17R,0.700000X1.300000*%
%ADD18C,0.685800*%
%ADD19C,0.254000*%
%ADD20C,0.400000*%
G04 APERTURE END LIST*
D10*
D11*
X-9525000Y-5842000D03*
X-4525000Y-5842000D03*
X-14525000Y-5842000D03*
D12*
X-10668000Y-11684000D03*
D13*
X-8128000Y-11684000D03*
D14*
X-3048000Y-9144000D03*
X-3048000Y-14224000D03*
X-15748000Y-9144000D03*
X-15748000Y-14224000D03*
D15*
X-11379200Y-21691600D03*
D16*
X-9379200Y-21691600D03*
X-7379200Y-21691600D03*
D17*
X-9205000Y-19304000D03*
X-7305000Y-19304000D03*
D18*
X-7747000Y-13843000D03*
D19*
X-8128000Y-11684000D02*
X-8128000Y-7239000D01*
X-8128000Y-7239000D02*
X-9525000Y-5842000D01*
D20*
X-15748000Y-14224000D02*
X-9398000Y-14224000D01*
X-8128000Y-12954000D02*
X-8128000Y-11684000D01*
X-9398000Y-14224000D02*
X-8128000Y-12954000D01*
X-3048000Y-14224000D02*
X-5588000Y-14224000D01*
X-5588000Y-14224000D02*
X-8128000Y-11684000D01*
D19*
X-15748000Y-14224000D02*
X-15113000Y-14224000D01*
X-11379200Y-21691600D02*
X-11379200Y-17881600D01*
X-9372600Y-15875000D02*
X-8128000Y-15875000D01*
X-11379200Y-17881600D02*
X-9372600Y-15875000D01*
D20*
X-7305000Y-19304000D02*
X-7305000Y-16698000D01*
X-8128000Y-14224000D02*
X-7747000Y-13843000D01*
X-8128000Y-15875000D02*
X-8128000Y-14224000D01*
X-7305000Y-16698000D02*
X-8128000Y-15875000D01*
D19*
X-15748000Y-9144000D02*
X-15748000Y-7065000D01*
X-15748000Y-7065000D02*
X-14525000Y-5842000D01*
D20*
X-7430000Y-19429000D02*
X-7305000Y-19304000D01*
X-15748000Y-9144000D02*
X-13208000Y-9144000D01*
X-13208000Y-9144000D02*
X-10668000Y-11684000D01*
D19*
X-7430000Y-19429000D02*
X-7305000Y-19304000D01*
X-9379200Y-21691600D02*
X-9379200Y-19478200D01*
X-9379200Y-19478200D02*
X-9205000Y-19304000D01*
D20*
X-9430000Y-19529000D02*
X-9205000Y-19304000D01*
D19*
X-9430000Y-19529000D02*
X-9205000Y-19304000D01*
D10*
G36*
X-1963108Y-967654D02*
X-1366377Y-1366377D01*
X-967654Y-1963108D01*
X-821500Y-2697875D01*
X-821500Y-13676196D01*
X-1067911Y-13170410D01*
X-1573263Y-12737015D01*
X-2206000Y-12530000D01*
X-2844000Y-12530000D01*
X-2844000Y-14020000D01*
X-2824000Y-14020000D01*
X-2824000Y-14428000D01*
X-2844000Y-14428000D01*
X-2844000Y-15918000D01*
X-2206000Y-15918000D01*
X-1573263Y-15710985D01*
X-1067911Y-15277590D01*
X-821500Y-14771804D01*
X-821500Y-22693314D01*
X-1018682Y-23459633D01*
X-1480491Y-24074038D01*
X-2142272Y-24464949D01*
X-2943112Y-24578500D01*
X-16089314Y-24578500D01*
X-16855633Y-24381318D01*
X-17470038Y-23919509D01*
X-17860949Y-23257728D01*
X-17953914Y-22602068D01*
X-17779330Y-22602068D01*
X-17490074Y-23302121D01*
X-16954938Y-23838192D01*
X-16255391Y-24128669D01*
X-15497932Y-24129330D01*
X-14797879Y-23840074D01*
X-14261808Y-23304938D01*
X-13971331Y-22605391D01*
X-13970670Y-21847932D01*
X-14259926Y-21147879D01*
X-14565670Y-20841600D01*
X-12289155Y-20841600D01*
X-12289155Y-22541600D01*
X-12267957Y-22654255D01*
X-12201378Y-22757723D01*
X-12099790Y-22827135D01*
X-11979200Y-22851555D01*
X-10779200Y-22851555D01*
X-10666545Y-22830357D01*
X-10563077Y-22763778D01*
X-10493665Y-22662190D01*
X-10469245Y-22541600D01*
X-10469245Y-21418992D01*
X-10283200Y-21418992D01*
X-10283200Y-21964208D01*
X-10214387Y-22310154D01*
X-10018425Y-22603433D01*
X-9725146Y-22799395D01*
X-9379200Y-22868208D01*
X-9033254Y-22799395D01*
X-8739975Y-22603433D01*
X-8544013Y-22310154D01*
X-8511619Y-22147298D01*
X-8394037Y-22509542D01*
X-8099445Y-22854671D01*
X-7759006Y-23035542D01*
X-7583200Y-22939461D01*
X-7583200Y-21895600D01*
X-7175200Y-21895600D01*
X-7175200Y-22939461D01*
X-6999394Y-23035542D01*
X-6658955Y-22854671D01*
X-6443341Y-22602068D01*
X-4952330Y-22602068D01*
X-4663074Y-23302121D01*
X-4127938Y-23838192D01*
X-3428391Y-24128669D01*
X-2670932Y-24129330D01*
X-1970879Y-23840074D01*
X-1434808Y-23304938D01*
X-1144331Y-22605391D01*
X-1143670Y-21847932D01*
X-1432926Y-21147879D01*
X-1968062Y-20611808D01*
X-2667609Y-20321331D01*
X-3425068Y-20320670D01*
X-4125121Y-20609926D01*
X-4661192Y-21145062D01*
X-4951669Y-21844609D01*
X-4952330Y-22602068D01*
X-6443341Y-22602068D01*
X-6364363Y-22509542D01*
X-6224271Y-22077949D01*
X-6356660Y-21895600D01*
X-7175200Y-21895600D01*
X-7583200Y-21895600D01*
X-7603200Y-21895600D01*
X-7603200Y-21487600D01*
X-7583200Y-21487600D01*
X-7583200Y-20443739D01*
X-7175200Y-20443739D01*
X-7175200Y-21487600D01*
X-6356660Y-21487600D01*
X-6224271Y-21305251D01*
X-6364363Y-20873658D01*
X-6658955Y-20528529D01*
X-6999394Y-20347658D01*
X-7175200Y-20443739D01*
X-7583200Y-20443739D01*
X-7759006Y-20347658D01*
X-8099445Y-20528529D01*
X-8394037Y-20873658D01*
X-8511619Y-21235902D01*
X-8544013Y-21073046D01*
X-8739975Y-20779767D01*
X-8948200Y-20640636D01*
X-8948200Y-20263955D01*
X-8855000Y-20263955D01*
X-8742345Y-20242757D01*
X-8638877Y-20176178D01*
X-8569465Y-20074590D01*
X-8545045Y-19954000D01*
X-8545045Y-18654000D01*
X-8566243Y-18541345D01*
X-8632822Y-18437877D01*
X-8734410Y-18368465D01*
X-8855000Y-18344045D01*
X-9555000Y-18344045D01*
X-9667655Y-18365243D01*
X-9771123Y-18431822D01*
X-9840535Y-18533410D01*
X-9864955Y-18654000D01*
X-9864955Y-19290211D01*
X-9895635Y-19336127D01*
X-9934000Y-19529000D01*
X-9895635Y-19721873D01*
X-9864955Y-19767789D01*
X-9864955Y-19954000D01*
X-9843757Y-20066655D01*
X-9810200Y-20118805D01*
X-9810200Y-20640636D01*
X-10018425Y-20779767D01*
X-10214387Y-21073046D01*
X-10283200Y-21418992D01*
X-10469245Y-21418992D01*
X-10469245Y-20841600D01*
X-10490443Y-20728945D01*
X-10557022Y-20625477D01*
X-10658610Y-20556065D01*
X-10779200Y-20531645D01*
X-10948200Y-20531645D01*
X-10948200Y-18060126D01*
X-9194074Y-16306000D01*
X-8409764Y-16306000D01*
X-7809000Y-16906764D01*
X-7809000Y-18391847D01*
X-7871123Y-18431822D01*
X-7940535Y-18533410D01*
X-7964955Y-18654000D01*
X-7964955Y-19954000D01*
X-7943757Y-20066655D01*
X-7877178Y-20170123D01*
X-7775590Y-20239535D01*
X-7655000Y-20263955D01*
X-6955000Y-20263955D01*
X-6842345Y-20242757D01*
X-6738877Y-20176178D01*
X-6669465Y-20074590D01*
X-6645045Y-19954000D01*
X-6645045Y-18654000D01*
X-6666243Y-18541345D01*
X-6732822Y-18437877D01*
X-6801000Y-18391293D01*
X-6801000Y-16698000D01*
X-6839365Y-16505128D01*
X-6948618Y-16341618D01*
X-7624000Y-15666236D01*
X-7624000Y-14688560D01*
X-5315055Y-14688560D01*
X-5028089Y-15277590D01*
X-4522737Y-15710985D01*
X-3890000Y-15918000D01*
X-3252000Y-15918000D01*
X-3252000Y-14428000D01*
X-5227056Y-14428000D01*
X-5315055Y-14688560D01*
X-7624000Y-14688560D01*
X-7624000Y-14490009D01*
X-7618888Y-14490013D01*
X-7381039Y-14391735D01*
X-7198904Y-14209918D01*
X-7100212Y-13972241D01*
X-7100026Y-13759440D01*
X-5315055Y-13759440D01*
X-5227056Y-14020000D01*
X-3252000Y-14020000D01*
X-3252000Y-12530000D01*
X-3890000Y-12530000D01*
X-4522737Y-12737015D01*
X-5028089Y-13170410D01*
X-5315055Y-13759440D01*
X-7100026Y-13759440D01*
X-7099987Y-13714888D01*
X-7198265Y-13477039D01*
X-7380082Y-13294904D01*
X-7617759Y-13196212D01*
X-7875112Y-13195987D01*
X-8112961Y-13294265D01*
X-8295096Y-13476082D01*
X-8393788Y-13713759D01*
X-8393843Y-13777079D01*
X-8484382Y-13867618D01*
X-8593635Y-14031127D01*
X-8593635Y-14031128D01*
X-8632000Y-14224000D01*
X-8632000Y-15444000D01*
X-9372600Y-15444000D01*
X-9537537Y-15476808D01*
X-9677363Y-15570237D01*
X-11683963Y-17576837D01*
X-11777392Y-17716663D01*
X-11810200Y-17881600D01*
X-11810200Y-20531645D01*
X-11979200Y-20531645D01*
X-12091855Y-20552843D01*
X-12195323Y-20619422D01*
X-12264735Y-20721010D01*
X-12289155Y-20841600D01*
X-14565670Y-20841600D01*
X-14795062Y-20611808D01*
X-15494609Y-20321331D01*
X-16252068Y-20320670D01*
X-16952121Y-20609926D01*
X-17488192Y-21145062D01*
X-17778669Y-21844609D01*
X-17779330Y-22602068D01*
X-17953914Y-22602068D01*
X-17974500Y-22456888D01*
X-17974500Y-14771804D01*
X-17728089Y-15277590D01*
X-17222737Y-15710985D01*
X-16590000Y-15918000D01*
X-15952000Y-15918000D01*
X-15952000Y-14428000D01*
X-15544000Y-14428000D01*
X-15544000Y-15918000D01*
X-14906000Y-15918000D01*
X-14273263Y-15710985D01*
X-13767911Y-15277590D01*
X-13480945Y-14688560D01*
X-13568944Y-14428000D01*
X-15544000Y-14428000D01*
X-15952000Y-14428000D01*
X-15972000Y-14428000D01*
X-15972000Y-14020000D01*
X-15952000Y-14020000D01*
X-15952000Y-12530000D01*
X-15544000Y-12530000D01*
X-15544000Y-14020000D01*
X-13568944Y-14020000D01*
X-13480945Y-13759440D01*
X-13767911Y-13170410D01*
X-14273263Y-12737015D01*
X-14906000Y-12530000D01*
X-15544000Y-12530000D01*
X-15952000Y-12530000D01*
X-16590000Y-12530000D01*
X-17222737Y-12737015D01*
X-17728089Y-13170410D01*
X-17974500Y-13676196D01*
X-17974500Y-9144000D01*
X-17866710Y-9144000D01*
X-17757097Y-9695064D01*
X-17444944Y-10162234D01*
X-16977774Y-10474387D01*
X-16426710Y-10584000D01*
X-15069290Y-10584000D01*
X-14518226Y-10474387D01*
X-14051056Y-10162234D01*
X-13738903Y-9695064D01*
X-13729541Y-9648000D01*
X-13416764Y-9648000D01*
X-11927955Y-11136809D01*
X-11927955Y-12684000D01*
X-11906757Y-12796655D01*
X-11840178Y-12900123D01*
X-11738590Y-12969535D01*
X-11618000Y-12993955D01*
X-9718000Y-12993955D01*
X-9605345Y-12972757D01*
X-9501877Y-12906178D01*
X-9433589Y-12806234D01*
X-8961735Y-12806234D01*
X-8858716Y-13036810D01*
X-8285395Y-13213466D01*
X-7688112Y-13157275D01*
X-7397284Y-13036810D01*
X-7294265Y-12806234D01*
X-8128000Y-11972500D01*
X-8961735Y-12806234D01*
X-9433589Y-12806234D01*
X-9432465Y-12804590D01*
X-9408045Y-12684000D01*
X-9408045Y-12447227D01*
X-9250234Y-12517735D01*
X-8416500Y-11684000D01*
X-7839500Y-11684000D01*
X-7005766Y-12517735D01*
X-6775190Y-12414716D01*
X-6598534Y-11841395D01*
X-6654725Y-11244112D01*
X-6775190Y-10953284D01*
X-7005766Y-10850265D01*
X-7839500Y-11684000D01*
X-8416500Y-11684000D01*
X-9250234Y-10850265D01*
X-9408045Y-10920773D01*
X-9408045Y-10684000D01*
X-9429243Y-10571345D01*
X-9435406Y-10561766D01*
X-8961735Y-10561766D01*
X-8128000Y-11395500D01*
X-7294265Y-10561766D01*
X-7397284Y-10331190D01*
X-7970605Y-10154534D01*
X-8567888Y-10210725D01*
X-8858716Y-10331190D01*
X-8961735Y-10561766D01*
X-9435406Y-10561766D01*
X-9495822Y-10467877D01*
X-9597410Y-10398465D01*
X-9718000Y-10374045D01*
X-11265191Y-10374045D01*
X-12495236Y-9144000D01*
X-5166710Y-9144000D01*
X-5057097Y-9695064D01*
X-4744944Y-10162234D01*
X-4277774Y-10474387D01*
X-3726710Y-10584000D01*
X-2369290Y-10584000D01*
X-1818226Y-10474387D01*
X-1351056Y-10162234D01*
X-1038903Y-9695064D01*
X-929290Y-9144000D01*
X-1038903Y-8592936D01*
X-1351056Y-8125766D01*
X-1818226Y-7813613D01*
X-2369290Y-7704000D01*
X-3726710Y-7704000D01*
X-4277774Y-7813613D01*
X-4744944Y-8125766D01*
X-5057097Y-8592936D01*
X-5166710Y-9144000D01*
X-12495236Y-9144000D01*
X-12851618Y-8787618D01*
X-13015127Y-8678365D01*
X-13208000Y-8640000D01*
X-13729541Y-8640000D01*
X-13738903Y-8592936D01*
X-14051056Y-8125766D01*
X-14518226Y-7813613D01*
X-15069290Y-7704000D01*
X-15317000Y-7704000D01*
X-15317000Y-7386317D01*
X-15024019Y-7582081D01*
X-14525000Y-7681342D01*
X-14025981Y-7582081D01*
X-13602933Y-7299409D01*
X-13320261Y-6876361D01*
X-13221000Y-6377342D01*
X-13221000Y-6046000D01*
X-11083000Y-6046000D01*
X-11083000Y-6546000D01*
X-10886337Y-7126692D01*
X-10482423Y-7587922D01*
X-9968115Y-7835658D01*
X-9729000Y-7745754D01*
X-9729000Y-6046000D01*
X-9321000Y-6046000D01*
X-9321000Y-7745754D01*
X-9081885Y-7835658D01*
X-8567577Y-7587922D01*
X-8163663Y-7126692D01*
X-7967000Y-6546000D01*
X-7967000Y-6046000D01*
X-9321000Y-6046000D01*
X-9729000Y-6046000D01*
X-11083000Y-6046000D01*
X-13221000Y-6046000D01*
X-13221000Y-5306658D01*
X-13254548Y-5138000D01*
X-11083000Y-5138000D01*
X-11083000Y-5638000D01*
X-9729000Y-5638000D01*
X-9729000Y-3938246D01*
X-9321000Y-3938246D01*
X-9321000Y-5638000D01*
X-7967000Y-5638000D01*
X-7967000Y-5306658D01*
X-5829000Y-5306658D01*
X-5829000Y-6377342D01*
X-5729739Y-6876361D01*
X-5447067Y-7299409D01*
X-5024019Y-7582081D01*
X-4525000Y-7681342D01*
X-4025981Y-7582081D01*
X-3602933Y-7299409D01*
X-3320261Y-6876361D01*
X-3221000Y-6377342D01*
X-3221000Y-5306658D01*
X-3320261Y-4807639D01*
X-3602933Y-4384591D01*
X-4025981Y-4101919D01*
X-4525000Y-4002658D01*
X-5024019Y-4101919D01*
X-5447067Y-4384591D01*
X-5729739Y-4807639D01*
X-5829000Y-5306658D01*
X-7967000Y-5306658D01*
X-7967000Y-5138000D01*
X-8163663Y-4557308D01*
X-8567577Y-4096078D01*
X-9081885Y-3848342D01*
X-9321000Y-3938246D01*
X-9729000Y-3938246D01*
X-9968115Y-3848342D01*
X-10482423Y-4096078D01*
X-10886337Y-4557308D01*
X-11083000Y-5138000D01*
X-13254548Y-5138000D01*
X-13320261Y-4807639D01*
X-13602933Y-4384591D01*
X-14025981Y-4101919D01*
X-14525000Y-4002658D01*
X-15024019Y-4101919D01*
X-15447067Y-4384591D01*
X-15729739Y-4807639D01*
X-15829000Y-5306658D01*
X-15829000Y-6377342D01*
X-15802598Y-6510072D01*
X-16052763Y-6760237D01*
X-16146192Y-6900063D01*
X-16179000Y-7065000D01*
X-16179000Y-7704000D01*
X-16426710Y-7704000D01*
X-16977774Y-7813613D01*
X-17444944Y-8125766D01*
X-17757097Y-8592936D01*
X-17866710Y-9144000D01*
X-17974500Y-9144000D01*
X-17974500Y-2697876D01*
X-17828346Y-1963108D01*
X-17429623Y-1366377D01*
X-16832892Y-967654D01*
X-16098125Y-821500D01*
X-2697876Y-821500D01*
X-1963108Y-967654D01*
X-1963108Y-967654D01*
G37*
X-1963108Y-967654D02*
X-1366377Y-1366377D01*
X-967654Y-1963108D01*
X-821500Y-2697875D01*
X-821500Y-13676196D01*
X-1067911Y-13170410D01*
X-1573263Y-12737015D01*
X-2206000Y-12530000D01*
X-2844000Y-12530000D01*
X-2844000Y-14020000D01*
X-2824000Y-14020000D01*
X-2824000Y-14428000D01*
X-2844000Y-14428000D01*
X-2844000Y-15918000D01*
X-2206000Y-15918000D01*
X-1573263Y-15710985D01*
X-1067911Y-15277590D01*
X-821500Y-14771804D01*
X-821500Y-22693314D01*
X-1018682Y-23459633D01*
X-1480491Y-24074038D01*
X-2142272Y-24464949D01*
X-2943112Y-24578500D01*
X-16089314Y-24578500D01*
X-16855633Y-24381318D01*
X-17470038Y-23919509D01*
X-17860949Y-23257728D01*
X-17953914Y-22602068D01*
X-17779330Y-22602068D01*
X-17490074Y-23302121D01*
X-16954938Y-23838192D01*
X-16255391Y-24128669D01*
X-15497932Y-24129330D01*
X-14797879Y-23840074D01*
X-14261808Y-23304938D01*
X-13971331Y-22605391D01*
X-13970670Y-21847932D01*
X-14259926Y-21147879D01*
X-14565670Y-20841600D01*
X-12289155Y-20841600D01*
X-12289155Y-22541600D01*
X-12267957Y-22654255D01*
X-12201378Y-22757723D01*
X-12099790Y-22827135D01*
X-11979200Y-22851555D01*
X-10779200Y-22851555D01*
X-10666545Y-22830357D01*
X-10563077Y-22763778D01*
X-10493665Y-22662190D01*
X-10469245Y-22541600D01*
X-10469245Y-21418992D01*
X-10283200Y-21418992D01*
X-10283200Y-21964208D01*
X-10214387Y-22310154D01*
X-10018425Y-22603433D01*
X-9725146Y-22799395D01*
X-9379200Y-22868208D01*
X-9033254Y-22799395D01*
X-8739975Y-22603433D01*
X-8544013Y-22310154D01*
X-8511619Y-22147298D01*
X-8394037Y-22509542D01*
X-8099445Y-22854671D01*
X-7759006Y-23035542D01*
X-7583200Y-22939461D01*
X-7583200Y-21895600D01*
X-7175200Y-21895600D01*
X-7175200Y-22939461D01*
X-6999394Y-23035542D01*
X-6658955Y-22854671D01*
X-6443341Y-22602068D01*
X-4952330Y-22602068D01*
X-4663074Y-23302121D01*
X-4127938Y-23838192D01*
X-3428391Y-24128669D01*
X-2670932Y-24129330D01*
X-1970879Y-23840074D01*
X-1434808Y-23304938D01*
X-1144331Y-22605391D01*
X-1143670Y-21847932D01*
X-1432926Y-21147879D01*
X-1968062Y-20611808D01*
X-2667609Y-20321331D01*
X-3425068Y-20320670D01*
X-4125121Y-20609926D01*
X-4661192Y-21145062D01*
X-4951669Y-21844609D01*
X-4952330Y-22602068D01*
X-6443341Y-22602068D01*
X-6364363Y-22509542D01*
X-6224271Y-22077949D01*
X-6356660Y-21895600D01*
X-7175200Y-21895600D01*
X-7583200Y-21895600D01*
X-7603200Y-21895600D01*
X-7603200Y-21487600D01*
X-7583200Y-21487600D01*
X-7583200Y-20443739D01*
X-7175200Y-20443739D01*
X-7175200Y-21487600D01*
X-6356660Y-21487600D01*
X-6224271Y-21305251D01*
X-6364363Y-20873658D01*
X-6658955Y-20528529D01*
X-6999394Y-20347658D01*
X-7175200Y-20443739D01*
X-7583200Y-20443739D01*
X-7759006Y-20347658D01*
X-8099445Y-20528529D01*
X-8394037Y-20873658D01*
X-8511619Y-21235902D01*
X-8544013Y-21073046D01*
X-8739975Y-20779767D01*
X-8948200Y-20640636D01*
X-8948200Y-20263955D01*
X-8855000Y-20263955D01*
X-8742345Y-20242757D01*
X-8638877Y-20176178D01*
X-8569465Y-20074590D01*
X-8545045Y-19954000D01*
X-8545045Y-18654000D01*
X-8566243Y-18541345D01*
X-8632822Y-18437877D01*
X-8734410Y-18368465D01*
X-8855000Y-18344045D01*
X-9555000Y-18344045D01*
X-9667655Y-18365243D01*
X-9771123Y-18431822D01*
X-9840535Y-18533410D01*
X-9864955Y-18654000D01*
X-9864955Y-19290211D01*
X-9895635Y-19336127D01*
X-9934000Y-19529000D01*
X-9895635Y-19721873D01*
X-9864955Y-19767789D01*
X-9864955Y-19954000D01*
X-9843757Y-20066655D01*
X-9810200Y-20118805D01*
X-9810200Y-20640636D01*
X-10018425Y-20779767D01*
X-10214387Y-21073046D01*
X-10283200Y-21418992D01*
X-10469245Y-21418992D01*
X-10469245Y-20841600D01*
X-10490443Y-20728945D01*
X-10557022Y-20625477D01*
X-10658610Y-20556065D01*
X-10779200Y-20531645D01*
X-10948200Y-20531645D01*
X-10948200Y-18060126D01*
X-9194074Y-16306000D01*
X-8409764Y-16306000D01*
X-7809000Y-16906764D01*
X-7809000Y-18391847D01*
X-7871123Y-18431822D01*
X-7940535Y-18533410D01*
X-7964955Y-18654000D01*
X-7964955Y-19954000D01*
X-7943757Y-20066655D01*
X-7877178Y-20170123D01*
X-7775590Y-20239535D01*
X-7655000Y-20263955D01*
X-6955000Y-20263955D01*
X-6842345Y-20242757D01*
X-6738877Y-20176178D01*
X-6669465Y-20074590D01*
X-6645045Y-19954000D01*
X-6645045Y-18654000D01*
X-6666243Y-18541345D01*
X-6732822Y-18437877D01*
X-6801000Y-18391293D01*
X-6801000Y-16698000D01*
X-6839365Y-16505128D01*
X-6948618Y-16341618D01*
X-7624000Y-15666236D01*
X-7624000Y-14688560D01*
X-5315055Y-14688560D01*
X-5028089Y-15277590D01*
X-4522737Y-15710985D01*
X-3890000Y-15918000D01*
X-3252000Y-15918000D01*
X-3252000Y-14428000D01*
X-5227056Y-14428000D01*
X-5315055Y-14688560D01*
X-7624000Y-14688560D01*
X-7624000Y-14490009D01*
X-7618888Y-14490013D01*
X-7381039Y-14391735D01*
X-7198904Y-14209918D01*
X-7100212Y-13972241D01*
X-7100026Y-13759440D01*
X-5315055Y-13759440D01*
X-5227056Y-14020000D01*
X-3252000Y-14020000D01*
X-3252000Y-12530000D01*
X-3890000Y-12530000D01*
X-4522737Y-12737015D01*
X-5028089Y-13170410D01*
X-5315055Y-13759440D01*
X-7100026Y-13759440D01*
X-7099987Y-13714888D01*
X-7198265Y-13477039D01*
X-7380082Y-13294904D01*
X-7617759Y-13196212D01*
X-7875112Y-13195987D01*
X-8112961Y-13294265D01*
X-8295096Y-13476082D01*
X-8393788Y-13713759D01*
X-8393843Y-13777079D01*
X-8484382Y-13867618D01*
X-8593635Y-14031127D01*
X-8593635Y-14031128D01*
X-8632000Y-14224000D01*
X-8632000Y-15444000D01*
X-9372600Y-15444000D01*
X-9537537Y-15476808D01*
X-9677363Y-15570237D01*
X-11683963Y-17576837D01*
X-11777392Y-17716663D01*
X-11810200Y-17881600D01*
X-11810200Y-20531645D01*
X-11979200Y-20531645D01*
X-12091855Y-20552843D01*
X-12195323Y-20619422D01*
X-12264735Y-20721010D01*
X-12289155Y-20841600D01*
X-14565670Y-20841600D01*
X-14795062Y-20611808D01*
X-15494609Y-20321331D01*
X-16252068Y-20320670D01*
X-16952121Y-20609926D01*
X-17488192Y-21145062D01*
X-17778669Y-21844609D01*
X-17779330Y-22602068D01*
X-17953914Y-22602068D01*
X-17974500Y-22456888D01*
X-17974500Y-14771804D01*
X-17728089Y-15277590D01*
X-17222737Y-15710985D01*
X-16590000Y-15918000D01*
X-15952000Y-15918000D01*
X-15952000Y-14428000D01*
X-15544000Y-14428000D01*
X-15544000Y-15918000D01*
X-14906000Y-15918000D01*
X-14273263Y-15710985D01*
X-13767911Y-15277590D01*
X-13480945Y-14688560D01*
X-13568944Y-14428000D01*
X-15544000Y-14428000D01*
X-15952000Y-14428000D01*
X-15972000Y-14428000D01*
X-15972000Y-14020000D01*
X-15952000Y-14020000D01*
X-15952000Y-12530000D01*
X-15544000Y-12530000D01*
X-15544000Y-14020000D01*
X-13568944Y-14020000D01*
X-13480945Y-13759440D01*
X-13767911Y-13170410D01*
X-14273263Y-12737015D01*
X-14906000Y-12530000D01*
X-15544000Y-12530000D01*
X-15952000Y-12530000D01*
X-16590000Y-12530000D01*
X-17222737Y-12737015D01*
X-17728089Y-13170410D01*
X-17974500Y-13676196D01*
X-17974500Y-9144000D01*
X-17866710Y-9144000D01*
X-17757097Y-9695064D01*
X-17444944Y-10162234D01*
X-16977774Y-10474387D01*
X-16426710Y-10584000D01*
X-15069290Y-10584000D01*
X-14518226Y-10474387D01*
X-14051056Y-10162234D01*
X-13738903Y-9695064D01*
X-13729541Y-9648000D01*
X-13416764Y-9648000D01*
X-11927955Y-11136809D01*
X-11927955Y-12684000D01*
X-11906757Y-12796655D01*
X-11840178Y-12900123D01*
X-11738590Y-12969535D01*
X-11618000Y-12993955D01*
X-9718000Y-12993955D01*
X-9605345Y-12972757D01*
X-9501877Y-12906178D01*
X-9433589Y-12806234D01*
X-8961735Y-12806234D01*
X-8858716Y-13036810D01*
X-8285395Y-13213466D01*
X-7688112Y-13157275D01*
X-7397284Y-13036810D01*
X-7294265Y-12806234D01*
X-8128000Y-11972500D01*
X-8961735Y-12806234D01*
X-9433589Y-12806234D01*
X-9432465Y-12804590D01*
X-9408045Y-12684000D01*
X-9408045Y-12447227D01*
X-9250234Y-12517735D01*
X-8416500Y-11684000D01*
X-7839500Y-11684000D01*
X-7005766Y-12517735D01*
X-6775190Y-12414716D01*
X-6598534Y-11841395D01*
X-6654725Y-11244112D01*
X-6775190Y-10953284D01*
X-7005766Y-10850265D01*
X-7839500Y-11684000D01*
X-8416500Y-11684000D01*
X-9250234Y-10850265D01*
X-9408045Y-10920773D01*
X-9408045Y-10684000D01*
X-9429243Y-10571345D01*
X-9435406Y-10561766D01*
X-8961735Y-10561766D01*
X-8128000Y-11395500D01*
X-7294265Y-10561766D01*
X-7397284Y-10331190D01*
X-7970605Y-10154534D01*
X-8567888Y-10210725D01*
X-8858716Y-10331190D01*
X-8961735Y-10561766D01*
X-9435406Y-10561766D01*
X-9495822Y-10467877D01*
X-9597410Y-10398465D01*
X-9718000Y-10374045D01*
X-11265191Y-10374045D01*
X-12495236Y-9144000D01*
X-5166710Y-9144000D01*
X-5057097Y-9695064D01*
X-4744944Y-10162234D01*
X-4277774Y-10474387D01*
X-3726710Y-10584000D01*
X-2369290Y-10584000D01*
X-1818226Y-10474387D01*
X-1351056Y-10162234D01*
X-1038903Y-9695064D01*
X-929290Y-9144000D01*
X-1038903Y-8592936D01*
X-1351056Y-8125766D01*
X-1818226Y-7813613D01*
X-2369290Y-7704000D01*
X-3726710Y-7704000D01*
X-4277774Y-7813613D01*
X-4744944Y-8125766D01*
X-5057097Y-8592936D01*
X-5166710Y-9144000D01*
X-12495236Y-9144000D01*
X-12851618Y-8787618D01*
X-13015127Y-8678365D01*
X-13208000Y-8640000D01*
X-13729541Y-8640000D01*
X-13738903Y-8592936D01*
X-14051056Y-8125766D01*
X-14518226Y-7813613D01*
X-15069290Y-7704000D01*
X-15317000Y-7704000D01*
X-15317000Y-7386317D01*
X-15024019Y-7582081D01*
X-14525000Y-7681342D01*
X-14025981Y-7582081D01*
X-13602933Y-7299409D01*
X-13320261Y-6876361D01*
X-13221000Y-6377342D01*
X-13221000Y-6046000D01*
X-11083000Y-6046000D01*
X-11083000Y-6546000D01*
X-10886337Y-7126692D01*
X-10482423Y-7587922D01*
X-9968115Y-7835658D01*
X-9729000Y-7745754D01*
X-9729000Y-6046000D01*
X-9321000Y-6046000D01*
X-9321000Y-7745754D01*
X-9081885Y-7835658D01*
X-8567577Y-7587922D01*
X-8163663Y-7126692D01*
X-7967000Y-6546000D01*
X-7967000Y-6046000D01*
X-9321000Y-6046000D01*
X-9729000Y-6046000D01*
X-11083000Y-6046000D01*
X-13221000Y-6046000D01*
X-13221000Y-5306658D01*
X-13254548Y-5138000D01*
X-11083000Y-5138000D01*
X-11083000Y-5638000D01*
X-9729000Y-5638000D01*
X-9729000Y-3938246D01*
X-9321000Y-3938246D01*
X-9321000Y-5638000D01*
X-7967000Y-5638000D01*
X-7967000Y-5306658D01*
X-5829000Y-5306658D01*
X-5829000Y-6377342D01*
X-5729739Y-6876361D01*
X-5447067Y-7299409D01*
X-5024019Y-7582081D01*
X-4525000Y-7681342D01*
X-4025981Y-7582081D01*
X-3602933Y-7299409D01*
X-3320261Y-6876361D01*
X-3221000Y-6377342D01*
X-3221000Y-5306658D01*
X-3320261Y-4807639D01*
X-3602933Y-4384591D01*
X-4025981Y-4101919D01*
X-4525000Y-4002658D01*
X-5024019Y-4101919D01*
X-5447067Y-4384591D01*
X-5729739Y-4807639D01*
X-5829000Y-5306658D01*
X-7967000Y-5306658D01*
X-7967000Y-5138000D01*
X-8163663Y-4557308D01*
X-8567577Y-4096078D01*
X-9081885Y-3848342D01*
X-9321000Y-3938246D01*
X-9729000Y-3938246D01*
X-9968115Y-3848342D01*
X-10482423Y-4096078D01*
X-10886337Y-4557308D01*
X-11083000Y-5138000D01*
X-13254548Y-5138000D01*
X-13320261Y-4807639D01*
X-13602933Y-4384591D01*
X-14025981Y-4101919D01*
X-14525000Y-4002658D01*
X-15024019Y-4101919D01*
X-15447067Y-4384591D01*
X-15729739Y-4807639D01*
X-15829000Y-5306658D01*
X-15829000Y-6377342D01*
X-15802598Y-6510072D01*
X-16052763Y-6760237D01*
X-16146192Y-6900063D01*
X-16179000Y-7065000D01*
X-16179000Y-7704000D01*
X-16426710Y-7704000D01*
X-16977774Y-7813613D01*
X-17444944Y-8125766D01*
X-17757097Y-8592936D01*
X-17866710Y-9144000D01*
X-17974500Y-9144000D01*
X-17974500Y-2697876D01*
X-17828346Y-1963108D01*
X-17429623Y-1366377D01*
X-16832892Y-967654D01*
X-16098125Y-821500D01*
X-2697876Y-821500D01*
X-1963108Y-967654D01*
M02*
