%TF.GenerationSoftware,KiCad,Pcbnew,4.0.7*%
%TF.CreationDate,2018-07-15T19:40:36+02:00*%
%TF.ProjectId,BasicModule-II,42617369634D6F64756C652D49492E6B,rev?*%
%TF.FileFunction,Copper,L2,Bot,Signal*%
%FSLAX46Y46*%
G04 Gerber Fmt 4.6, Leading zero omitted, Abs format (unit mm)*
G04 Created by KiCad (PCBNEW 4.0.7) date 07/15/18 19:40:36*
%MOMM*%
%LPD*%
G01*
G04 APERTURE LIST*
%ADD10C,0.100000*%
%ADD11O,2.000000X3.000000*%
%ADD12R,1.900000X2.000000*%
%ADD13C,1.900000*%
%ADD14O,3.548000X2.272000*%
%ADD15R,1.200000X1.700000*%
%ADD16O,1.200000X1.700000*%
%ADD17C,0.685800*%
%ADD18C,0.400000*%
G04 APERTURE END LIST*
D10*
D11*
X8890000Y-5588000D03*
X13890000Y-5588000D03*
X3890000Y-5588000D03*
D12*
X7747000Y-11430000D03*
D13*
X10287000Y-11430000D03*
D14*
X15367000Y-8890000D03*
X15367000Y-13970000D03*
X2667000Y-8890000D03*
X2667000Y-13970000D03*
D15*
X7035800Y-21437600D03*
D16*
X9035800Y-21437600D03*
X11035800Y-21437600D03*
D17*
X10668000Y-13589000D03*
D18*
X7747000Y-12446000D02*
X7747000Y-11430000D01*
X8509000Y-13208000D02*
X7747000Y-12446000D01*
X10287000Y-13208000D02*
X8509000Y-13208000D01*
X10668000Y-13589000D02*
X10287000Y-13208000D01*
X7747000Y-11430000D02*
X7747000Y-10033000D01*
X8890000Y-8890000D02*
X15367000Y-8890000D01*
X7747000Y-10033000D02*
X8890000Y-8890000D01*
D10*
G36*
X16451892Y-713654D02*
X17048623Y-1112377D01*
X17447346Y-1709108D01*
X17593500Y-2443875D01*
X17593500Y-13422196D01*
X17347089Y-12916410D01*
X16841737Y-12483015D01*
X16209000Y-12276000D01*
X15571000Y-12276000D01*
X15571000Y-13766000D01*
X15591000Y-13766000D01*
X15591000Y-14174000D01*
X15571000Y-14174000D01*
X15571000Y-15664000D01*
X16209000Y-15664000D01*
X16841737Y-15456985D01*
X17347089Y-15023590D01*
X17593500Y-14517804D01*
X17593500Y-22439314D01*
X17396318Y-23205633D01*
X16934509Y-23820038D01*
X16272728Y-24210949D01*
X15471888Y-24324500D01*
X2325686Y-24324500D01*
X1559367Y-24127318D01*
X944962Y-23665509D01*
X554051Y-23003728D01*
X461086Y-22348068D01*
X635670Y-22348068D01*
X924926Y-23048121D01*
X1460062Y-23584192D01*
X2159609Y-23874669D01*
X2917068Y-23875330D01*
X3617121Y-23586074D01*
X4153192Y-23050938D01*
X4443669Y-22351391D01*
X4444330Y-21593932D01*
X4155074Y-20893879D01*
X3849330Y-20587600D01*
X6125845Y-20587600D01*
X6125845Y-22287600D01*
X6147043Y-22400255D01*
X6213622Y-22503723D01*
X6315210Y-22573135D01*
X6435800Y-22597555D01*
X7635800Y-22597555D01*
X7748455Y-22576357D01*
X7851923Y-22509778D01*
X7921335Y-22408190D01*
X7945755Y-22287600D01*
X7945755Y-21164992D01*
X8131800Y-21164992D01*
X8131800Y-21710208D01*
X8200613Y-22056154D01*
X8396575Y-22349433D01*
X8689854Y-22545395D01*
X9035800Y-22614208D01*
X9381746Y-22545395D01*
X9675025Y-22349433D01*
X9870987Y-22056154D01*
X9903381Y-21893298D01*
X10020963Y-22255542D01*
X10315555Y-22600671D01*
X10655994Y-22781542D01*
X10831800Y-22685461D01*
X10831800Y-21641600D01*
X11239800Y-21641600D01*
X11239800Y-22685461D01*
X11415606Y-22781542D01*
X11756045Y-22600671D01*
X11971659Y-22348068D01*
X13462670Y-22348068D01*
X13751926Y-23048121D01*
X14287062Y-23584192D01*
X14986609Y-23874669D01*
X15744068Y-23875330D01*
X16444121Y-23586074D01*
X16980192Y-23050938D01*
X17270669Y-22351391D01*
X17271330Y-21593932D01*
X16982074Y-20893879D01*
X16446938Y-20357808D01*
X15747391Y-20067331D01*
X14989932Y-20066670D01*
X14289879Y-20355926D01*
X13753808Y-20891062D01*
X13463331Y-21590609D01*
X13462670Y-22348068D01*
X11971659Y-22348068D01*
X12050637Y-22255542D01*
X12190729Y-21823949D01*
X12058340Y-21641600D01*
X11239800Y-21641600D01*
X10831800Y-21641600D01*
X10811800Y-21641600D01*
X10811800Y-21233600D01*
X10831800Y-21233600D01*
X10831800Y-20189739D01*
X11239800Y-20189739D01*
X11239800Y-21233600D01*
X12058340Y-21233600D01*
X12190729Y-21051251D01*
X12050637Y-20619658D01*
X11756045Y-20274529D01*
X11415606Y-20093658D01*
X11239800Y-20189739D01*
X10831800Y-20189739D01*
X10655994Y-20093658D01*
X10315555Y-20274529D01*
X10020963Y-20619658D01*
X9903381Y-20981902D01*
X9870987Y-20819046D01*
X9675025Y-20525767D01*
X9381746Y-20329805D01*
X9035800Y-20260992D01*
X8689854Y-20329805D01*
X8396575Y-20525767D01*
X8200613Y-20819046D01*
X8131800Y-21164992D01*
X7945755Y-21164992D01*
X7945755Y-20587600D01*
X7924557Y-20474945D01*
X7857978Y-20371477D01*
X7756390Y-20302065D01*
X7635800Y-20277645D01*
X6435800Y-20277645D01*
X6323145Y-20298843D01*
X6219677Y-20365422D01*
X6150265Y-20467010D01*
X6125845Y-20587600D01*
X3849330Y-20587600D01*
X3619938Y-20357808D01*
X2920391Y-20067331D01*
X2162932Y-20066670D01*
X1462879Y-20355926D01*
X926808Y-20891062D01*
X636331Y-21590609D01*
X635670Y-22348068D01*
X461086Y-22348068D01*
X440500Y-22202888D01*
X440500Y-14517804D01*
X686911Y-15023590D01*
X1192263Y-15456985D01*
X1825000Y-15664000D01*
X2463000Y-15664000D01*
X2463000Y-14174000D01*
X2871000Y-14174000D01*
X2871000Y-15664000D01*
X3509000Y-15664000D01*
X4141737Y-15456985D01*
X4647089Y-15023590D01*
X4934055Y-14434560D01*
X13099945Y-14434560D01*
X13386911Y-15023590D01*
X13892263Y-15456985D01*
X14525000Y-15664000D01*
X15163000Y-15664000D01*
X15163000Y-14174000D01*
X13187944Y-14174000D01*
X13099945Y-14434560D01*
X4934055Y-14434560D01*
X4846056Y-14174000D01*
X2871000Y-14174000D01*
X2463000Y-14174000D01*
X2443000Y-14174000D01*
X2443000Y-13766000D01*
X2463000Y-13766000D01*
X2463000Y-12276000D01*
X2871000Y-12276000D01*
X2871000Y-13766000D01*
X4846056Y-13766000D01*
X4934055Y-13505440D01*
X4647089Y-12916410D01*
X4141737Y-12483015D01*
X3509000Y-12276000D01*
X2871000Y-12276000D01*
X2463000Y-12276000D01*
X1825000Y-12276000D01*
X1192263Y-12483015D01*
X686911Y-12916410D01*
X440500Y-13422196D01*
X440500Y-10430000D01*
X6487045Y-10430000D01*
X6487045Y-12430000D01*
X6508243Y-12542655D01*
X6574822Y-12646123D01*
X6676410Y-12715535D01*
X6797000Y-12739955D01*
X7348906Y-12739955D01*
X7390618Y-12802382D01*
X8152618Y-13564382D01*
X8316128Y-13673635D01*
X8509000Y-13712000D01*
X10020991Y-13712000D01*
X10020987Y-13717112D01*
X10119265Y-13954961D01*
X10301082Y-14137096D01*
X10538759Y-14235788D01*
X10796112Y-14236013D01*
X11033961Y-14137735D01*
X11216096Y-13955918D01*
X11314788Y-13718241D01*
X11314974Y-13505440D01*
X13099945Y-13505440D01*
X13187944Y-13766000D01*
X15163000Y-13766000D01*
X15163000Y-12276000D01*
X14525000Y-12276000D01*
X13892263Y-12483015D01*
X13386911Y-12916410D01*
X13099945Y-13505440D01*
X11314974Y-13505440D01*
X11315013Y-13460888D01*
X11216735Y-13223039D01*
X11034918Y-13040904D01*
X10797241Y-12942212D01*
X10733921Y-12942157D01*
X10697778Y-12906014D01*
X10726888Y-12903275D01*
X11017716Y-12782810D01*
X11120735Y-12552234D01*
X10287000Y-11718500D01*
X9453265Y-12552234D01*
X9521072Y-12704000D01*
X8832588Y-12704000D01*
X8913123Y-12652178D01*
X8982535Y-12550590D01*
X9006955Y-12430000D01*
X9006955Y-12193227D01*
X9164766Y-12263735D01*
X9998500Y-11430000D01*
X10575500Y-11430000D01*
X11409234Y-12263735D01*
X11639810Y-12160716D01*
X11816466Y-11587395D01*
X11760275Y-10990112D01*
X11639810Y-10699284D01*
X11409234Y-10596265D01*
X10575500Y-11430000D01*
X9998500Y-11430000D01*
X9164766Y-10596265D01*
X9006955Y-10666773D01*
X9006955Y-10430000D01*
X8985757Y-10317345D01*
X8979594Y-10307766D01*
X9453265Y-10307766D01*
X10287000Y-11141500D01*
X11120735Y-10307766D01*
X11017716Y-10077190D01*
X10444395Y-9900534D01*
X9847112Y-9956725D01*
X9556284Y-10077190D01*
X9453265Y-10307766D01*
X8979594Y-10307766D01*
X8919178Y-10213877D01*
X8817590Y-10144465D01*
X8697000Y-10120045D01*
X8372719Y-10120045D01*
X9098764Y-9394000D01*
X13348541Y-9394000D01*
X13357903Y-9441064D01*
X13670056Y-9908234D01*
X14137226Y-10220387D01*
X14688290Y-10330000D01*
X16045710Y-10330000D01*
X16596774Y-10220387D01*
X17063944Y-9908234D01*
X17376097Y-9441064D01*
X17485710Y-8890000D01*
X17376097Y-8338936D01*
X17063944Y-7871766D01*
X16596774Y-7559613D01*
X16045710Y-7450000D01*
X14688290Y-7450000D01*
X14137226Y-7559613D01*
X13670056Y-7871766D01*
X13357903Y-8338936D01*
X13348541Y-8386000D01*
X8890000Y-8386000D01*
X8697127Y-8424365D01*
X8533618Y-8533618D01*
X7390618Y-9676618D01*
X7281365Y-9840127D01*
X7281365Y-9840128D01*
X7243000Y-10033000D01*
X7243000Y-10120045D01*
X6797000Y-10120045D01*
X6684345Y-10141243D01*
X6580877Y-10207822D01*
X6511465Y-10309410D01*
X6487045Y-10430000D01*
X440500Y-10430000D01*
X440500Y-8890000D01*
X548290Y-8890000D01*
X657903Y-9441064D01*
X970056Y-9908234D01*
X1437226Y-10220387D01*
X1988290Y-10330000D01*
X3345710Y-10330000D01*
X3896774Y-10220387D01*
X4363944Y-9908234D01*
X4676097Y-9441064D01*
X4785710Y-8890000D01*
X4676097Y-8338936D01*
X4363944Y-7871766D01*
X3896774Y-7559613D01*
X3345710Y-7450000D01*
X1988290Y-7450000D01*
X1437226Y-7559613D01*
X970056Y-7871766D01*
X657903Y-8338936D01*
X548290Y-8890000D01*
X440500Y-8890000D01*
X440500Y-5052658D01*
X2586000Y-5052658D01*
X2586000Y-6123342D01*
X2685261Y-6622361D01*
X2967933Y-7045409D01*
X3390981Y-7328081D01*
X3890000Y-7427342D01*
X4389019Y-7328081D01*
X4812067Y-7045409D01*
X5094739Y-6622361D01*
X5194000Y-6123342D01*
X5194000Y-5792000D01*
X7332000Y-5792000D01*
X7332000Y-6292000D01*
X7528663Y-6872692D01*
X7932577Y-7333922D01*
X8446885Y-7581658D01*
X8686000Y-7491754D01*
X8686000Y-5792000D01*
X9094000Y-5792000D01*
X9094000Y-7491754D01*
X9333115Y-7581658D01*
X9847423Y-7333922D01*
X10251337Y-6872692D01*
X10448000Y-6292000D01*
X10448000Y-5792000D01*
X9094000Y-5792000D01*
X8686000Y-5792000D01*
X7332000Y-5792000D01*
X5194000Y-5792000D01*
X5194000Y-5052658D01*
X5160452Y-4884000D01*
X7332000Y-4884000D01*
X7332000Y-5384000D01*
X8686000Y-5384000D01*
X8686000Y-3684246D01*
X9094000Y-3684246D01*
X9094000Y-5384000D01*
X10448000Y-5384000D01*
X10448000Y-5052658D01*
X12586000Y-5052658D01*
X12586000Y-6123342D01*
X12685261Y-6622361D01*
X12967933Y-7045409D01*
X13390981Y-7328081D01*
X13890000Y-7427342D01*
X14389019Y-7328081D01*
X14812067Y-7045409D01*
X15094739Y-6622361D01*
X15194000Y-6123342D01*
X15194000Y-5052658D01*
X15094739Y-4553639D01*
X14812067Y-4130591D01*
X14389019Y-3847919D01*
X13890000Y-3748658D01*
X13390981Y-3847919D01*
X12967933Y-4130591D01*
X12685261Y-4553639D01*
X12586000Y-5052658D01*
X10448000Y-5052658D01*
X10448000Y-4884000D01*
X10251337Y-4303308D01*
X9847423Y-3842078D01*
X9333115Y-3594342D01*
X9094000Y-3684246D01*
X8686000Y-3684246D01*
X8446885Y-3594342D01*
X7932577Y-3842078D01*
X7528663Y-4303308D01*
X7332000Y-4884000D01*
X5160452Y-4884000D01*
X5094739Y-4553639D01*
X4812067Y-4130591D01*
X4389019Y-3847919D01*
X3890000Y-3748658D01*
X3390981Y-3847919D01*
X2967933Y-4130591D01*
X2685261Y-4553639D01*
X2586000Y-5052658D01*
X440500Y-5052658D01*
X440500Y-2443876D01*
X586654Y-1709108D01*
X985377Y-1112377D01*
X1582108Y-713654D01*
X2316875Y-567500D01*
X15717124Y-567500D01*
X16451892Y-713654D01*
X16451892Y-713654D01*
G37*
X16451892Y-713654D02*
X17048623Y-1112377D01*
X17447346Y-1709108D01*
X17593500Y-2443875D01*
X17593500Y-13422196D01*
X17347089Y-12916410D01*
X16841737Y-12483015D01*
X16209000Y-12276000D01*
X15571000Y-12276000D01*
X15571000Y-13766000D01*
X15591000Y-13766000D01*
X15591000Y-14174000D01*
X15571000Y-14174000D01*
X15571000Y-15664000D01*
X16209000Y-15664000D01*
X16841737Y-15456985D01*
X17347089Y-15023590D01*
X17593500Y-14517804D01*
X17593500Y-22439314D01*
X17396318Y-23205633D01*
X16934509Y-23820038D01*
X16272728Y-24210949D01*
X15471888Y-24324500D01*
X2325686Y-24324500D01*
X1559367Y-24127318D01*
X944962Y-23665509D01*
X554051Y-23003728D01*
X461086Y-22348068D01*
X635670Y-22348068D01*
X924926Y-23048121D01*
X1460062Y-23584192D01*
X2159609Y-23874669D01*
X2917068Y-23875330D01*
X3617121Y-23586074D01*
X4153192Y-23050938D01*
X4443669Y-22351391D01*
X4444330Y-21593932D01*
X4155074Y-20893879D01*
X3849330Y-20587600D01*
X6125845Y-20587600D01*
X6125845Y-22287600D01*
X6147043Y-22400255D01*
X6213622Y-22503723D01*
X6315210Y-22573135D01*
X6435800Y-22597555D01*
X7635800Y-22597555D01*
X7748455Y-22576357D01*
X7851923Y-22509778D01*
X7921335Y-22408190D01*
X7945755Y-22287600D01*
X7945755Y-21164992D01*
X8131800Y-21164992D01*
X8131800Y-21710208D01*
X8200613Y-22056154D01*
X8396575Y-22349433D01*
X8689854Y-22545395D01*
X9035800Y-22614208D01*
X9381746Y-22545395D01*
X9675025Y-22349433D01*
X9870987Y-22056154D01*
X9903381Y-21893298D01*
X10020963Y-22255542D01*
X10315555Y-22600671D01*
X10655994Y-22781542D01*
X10831800Y-22685461D01*
X10831800Y-21641600D01*
X11239800Y-21641600D01*
X11239800Y-22685461D01*
X11415606Y-22781542D01*
X11756045Y-22600671D01*
X11971659Y-22348068D01*
X13462670Y-22348068D01*
X13751926Y-23048121D01*
X14287062Y-23584192D01*
X14986609Y-23874669D01*
X15744068Y-23875330D01*
X16444121Y-23586074D01*
X16980192Y-23050938D01*
X17270669Y-22351391D01*
X17271330Y-21593932D01*
X16982074Y-20893879D01*
X16446938Y-20357808D01*
X15747391Y-20067331D01*
X14989932Y-20066670D01*
X14289879Y-20355926D01*
X13753808Y-20891062D01*
X13463331Y-21590609D01*
X13462670Y-22348068D01*
X11971659Y-22348068D01*
X12050637Y-22255542D01*
X12190729Y-21823949D01*
X12058340Y-21641600D01*
X11239800Y-21641600D01*
X10831800Y-21641600D01*
X10811800Y-21641600D01*
X10811800Y-21233600D01*
X10831800Y-21233600D01*
X10831800Y-20189739D01*
X11239800Y-20189739D01*
X11239800Y-21233600D01*
X12058340Y-21233600D01*
X12190729Y-21051251D01*
X12050637Y-20619658D01*
X11756045Y-20274529D01*
X11415606Y-20093658D01*
X11239800Y-20189739D01*
X10831800Y-20189739D01*
X10655994Y-20093658D01*
X10315555Y-20274529D01*
X10020963Y-20619658D01*
X9903381Y-20981902D01*
X9870987Y-20819046D01*
X9675025Y-20525767D01*
X9381746Y-20329805D01*
X9035800Y-20260992D01*
X8689854Y-20329805D01*
X8396575Y-20525767D01*
X8200613Y-20819046D01*
X8131800Y-21164992D01*
X7945755Y-21164992D01*
X7945755Y-20587600D01*
X7924557Y-20474945D01*
X7857978Y-20371477D01*
X7756390Y-20302065D01*
X7635800Y-20277645D01*
X6435800Y-20277645D01*
X6323145Y-20298843D01*
X6219677Y-20365422D01*
X6150265Y-20467010D01*
X6125845Y-20587600D01*
X3849330Y-20587600D01*
X3619938Y-20357808D01*
X2920391Y-20067331D01*
X2162932Y-20066670D01*
X1462879Y-20355926D01*
X926808Y-20891062D01*
X636331Y-21590609D01*
X635670Y-22348068D01*
X461086Y-22348068D01*
X440500Y-22202888D01*
X440500Y-14517804D01*
X686911Y-15023590D01*
X1192263Y-15456985D01*
X1825000Y-15664000D01*
X2463000Y-15664000D01*
X2463000Y-14174000D01*
X2871000Y-14174000D01*
X2871000Y-15664000D01*
X3509000Y-15664000D01*
X4141737Y-15456985D01*
X4647089Y-15023590D01*
X4934055Y-14434560D01*
X13099945Y-14434560D01*
X13386911Y-15023590D01*
X13892263Y-15456985D01*
X14525000Y-15664000D01*
X15163000Y-15664000D01*
X15163000Y-14174000D01*
X13187944Y-14174000D01*
X13099945Y-14434560D01*
X4934055Y-14434560D01*
X4846056Y-14174000D01*
X2871000Y-14174000D01*
X2463000Y-14174000D01*
X2443000Y-14174000D01*
X2443000Y-13766000D01*
X2463000Y-13766000D01*
X2463000Y-12276000D01*
X2871000Y-12276000D01*
X2871000Y-13766000D01*
X4846056Y-13766000D01*
X4934055Y-13505440D01*
X4647089Y-12916410D01*
X4141737Y-12483015D01*
X3509000Y-12276000D01*
X2871000Y-12276000D01*
X2463000Y-12276000D01*
X1825000Y-12276000D01*
X1192263Y-12483015D01*
X686911Y-12916410D01*
X440500Y-13422196D01*
X440500Y-10430000D01*
X6487045Y-10430000D01*
X6487045Y-12430000D01*
X6508243Y-12542655D01*
X6574822Y-12646123D01*
X6676410Y-12715535D01*
X6797000Y-12739955D01*
X7348906Y-12739955D01*
X7390618Y-12802382D01*
X8152618Y-13564382D01*
X8316128Y-13673635D01*
X8509000Y-13712000D01*
X10020991Y-13712000D01*
X10020987Y-13717112D01*
X10119265Y-13954961D01*
X10301082Y-14137096D01*
X10538759Y-14235788D01*
X10796112Y-14236013D01*
X11033961Y-14137735D01*
X11216096Y-13955918D01*
X11314788Y-13718241D01*
X11314974Y-13505440D01*
X13099945Y-13505440D01*
X13187944Y-13766000D01*
X15163000Y-13766000D01*
X15163000Y-12276000D01*
X14525000Y-12276000D01*
X13892263Y-12483015D01*
X13386911Y-12916410D01*
X13099945Y-13505440D01*
X11314974Y-13505440D01*
X11315013Y-13460888D01*
X11216735Y-13223039D01*
X11034918Y-13040904D01*
X10797241Y-12942212D01*
X10733921Y-12942157D01*
X10697778Y-12906014D01*
X10726888Y-12903275D01*
X11017716Y-12782810D01*
X11120735Y-12552234D01*
X10287000Y-11718500D01*
X9453265Y-12552234D01*
X9521072Y-12704000D01*
X8832588Y-12704000D01*
X8913123Y-12652178D01*
X8982535Y-12550590D01*
X9006955Y-12430000D01*
X9006955Y-12193227D01*
X9164766Y-12263735D01*
X9998500Y-11430000D01*
X10575500Y-11430000D01*
X11409234Y-12263735D01*
X11639810Y-12160716D01*
X11816466Y-11587395D01*
X11760275Y-10990112D01*
X11639810Y-10699284D01*
X11409234Y-10596265D01*
X10575500Y-11430000D01*
X9998500Y-11430000D01*
X9164766Y-10596265D01*
X9006955Y-10666773D01*
X9006955Y-10430000D01*
X8985757Y-10317345D01*
X8979594Y-10307766D01*
X9453265Y-10307766D01*
X10287000Y-11141500D01*
X11120735Y-10307766D01*
X11017716Y-10077190D01*
X10444395Y-9900534D01*
X9847112Y-9956725D01*
X9556284Y-10077190D01*
X9453265Y-10307766D01*
X8979594Y-10307766D01*
X8919178Y-10213877D01*
X8817590Y-10144465D01*
X8697000Y-10120045D01*
X8372719Y-10120045D01*
X9098764Y-9394000D01*
X13348541Y-9394000D01*
X13357903Y-9441064D01*
X13670056Y-9908234D01*
X14137226Y-10220387D01*
X14688290Y-10330000D01*
X16045710Y-10330000D01*
X16596774Y-10220387D01*
X17063944Y-9908234D01*
X17376097Y-9441064D01*
X17485710Y-8890000D01*
X17376097Y-8338936D01*
X17063944Y-7871766D01*
X16596774Y-7559613D01*
X16045710Y-7450000D01*
X14688290Y-7450000D01*
X14137226Y-7559613D01*
X13670056Y-7871766D01*
X13357903Y-8338936D01*
X13348541Y-8386000D01*
X8890000Y-8386000D01*
X8697127Y-8424365D01*
X8533618Y-8533618D01*
X7390618Y-9676618D01*
X7281365Y-9840127D01*
X7281365Y-9840128D01*
X7243000Y-10033000D01*
X7243000Y-10120045D01*
X6797000Y-10120045D01*
X6684345Y-10141243D01*
X6580877Y-10207822D01*
X6511465Y-10309410D01*
X6487045Y-10430000D01*
X440500Y-10430000D01*
X440500Y-8890000D01*
X548290Y-8890000D01*
X657903Y-9441064D01*
X970056Y-9908234D01*
X1437226Y-10220387D01*
X1988290Y-10330000D01*
X3345710Y-10330000D01*
X3896774Y-10220387D01*
X4363944Y-9908234D01*
X4676097Y-9441064D01*
X4785710Y-8890000D01*
X4676097Y-8338936D01*
X4363944Y-7871766D01*
X3896774Y-7559613D01*
X3345710Y-7450000D01*
X1988290Y-7450000D01*
X1437226Y-7559613D01*
X970056Y-7871766D01*
X657903Y-8338936D01*
X548290Y-8890000D01*
X440500Y-8890000D01*
X440500Y-5052658D01*
X2586000Y-5052658D01*
X2586000Y-6123342D01*
X2685261Y-6622361D01*
X2967933Y-7045409D01*
X3390981Y-7328081D01*
X3890000Y-7427342D01*
X4389019Y-7328081D01*
X4812067Y-7045409D01*
X5094739Y-6622361D01*
X5194000Y-6123342D01*
X5194000Y-5792000D01*
X7332000Y-5792000D01*
X7332000Y-6292000D01*
X7528663Y-6872692D01*
X7932577Y-7333922D01*
X8446885Y-7581658D01*
X8686000Y-7491754D01*
X8686000Y-5792000D01*
X9094000Y-5792000D01*
X9094000Y-7491754D01*
X9333115Y-7581658D01*
X9847423Y-7333922D01*
X10251337Y-6872692D01*
X10448000Y-6292000D01*
X10448000Y-5792000D01*
X9094000Y-5792000D01*
X8686000Y-5792000D01*
X7332000Y-5792000D01*
X5194000Y-5792000D01*
X5194000Y-5052658D01*
X5160452Y-4884000D01*
X7332000Y-4884000D01*
X7332000Y-5384000D01*
X8686000Y-5384000D01*
X8686000Y-3684246D01*
X9094000Y-3684246D01*
X9094000Y-5384000D01*
X10448000Y-5384000D01*
X10448000Y-5052658D01*
X12586000Y-5052658D01*
X12586000Y-6123342D01*
X12685261Y-6622361D01*
X12967933Y-7045409D01*
X13390981Y-7328081D01*
X13890000Y-7427342D01*
X14389019Y-7328081D01*
X14812067Y-7045409D01*
X15094739Y-6622361D01*
X15194000Y-6123342D01*
X15194000Y-5052658D01*
X15094739Y-4553639D01*
X14812067Y-4130591D01*
X14389019Y-3847919D01*
X13890000Y-3748658D01*
X13390981Y-3847919D01*
X12967933Y-4130591D01*
X12685261Y-4553639D01*
X12586000Y-5052658D01*
X10448000Y-5052658D01*
X10448000Y-4884000D01*
X10251337Y-4303308D01*
X9847423Y-3842078D01*
X9333115Y-3594342D01*
X9094000Y-3684246D01*
X8686000Y-3684246D01*
X8446885Y-3594342D01*
X7932577Y-3842078D01*
X7528663Y-4303308D01*
X7332000Y-4884000D01*
X5160452Y-4884000D01*
X5094739Y-4553639D01*
X4812067Y-4130591D01*
X4389019Y-3847919D01*
X3890000Y-3748658D01*
X3390981Y-3847919D01*
X2967933Y-4130591D01*
X2685261Y-4553639D01*
X2586000Y-5052658D01*
X440500Y-5052658D01*
X440500Y-2443876D01*
X586654Y-1709108D01*
X985377Y-1112377D01*
X1582108Y-713654D01*
X2316875Y-567500D01*
X15717124Y-567500D01*
X16451892Y-713654D01*
M02*
