%TF.GenerationSoftware,KiCad,Pcbnew,4.0.7*%
%TF.CreationDate,2018-07-15T19:40:36+02:00*%
%TF.ProjectId,BasicModule-II,42617369634D6F64756C652D49492E6B,rev?*%
%TF.FileFunction,Legend,Bot*%
%FSLAX46Y46*%
G04 Gerber Fmt 4.6, Leading zero omitted, Abs format (unit mm)*
G04 Created by KiCad (PCBNEW 4.0.7) date 07/15/18 19:40:36*
%MOMM*%
%LPD*%
G01*
G04 APERTURE LIST*
%ADD10C,0.100000*%
%ADD11C,0.010000*%
G04 APERTURE END LIST*
D10*
D11*
G36*
X8334210Y-1330324D02*
X8324428Y-1360005D01*
X8319363Y-1377950D01*
X8309258Y-1397284D01*
X8299450Y-1409700D01*
X8285271Y-1428108D01*
X8282198Y-1435100D01*
X8277023Y-1453447D01*
X8262651Y-1490472D01*
X8240764Y-1541901D01*
X8234653Y-1555750D01*
X8220563Y-1588078D01*
X8211766Y-1609401D01*
X8210550Y-1612900D01*
X8204890Y-1627400D01*
X8192475Y-1656377D01*
X8186448Y-1670050D01*
X8159508Y-1731172D01*
X8142058Y-1771808D01*
X8134653Y-1790664D01*
X8134643Y-1790700D01*
X8128802Y-1805206D01*
X8116278Y-1834193D01*
X8110248Y-1847850D01*
X8082443Y-1910952D01*
X8065221Y-1951205D01*
X8058575Y-1968500D01*
X8052743Y-1982802D01*
X8039780Y-2012170D01*
X8030808Y-2032000D01*
X8006801Y-2086640D01*
X7993944Y-2121137D01*
X7991412Y-2137744D01*
X7991823Y-2138749D01*
X7986398Y-2150515D01*
X7970457Y-2170366D01*
X7956392Y-2189247D01*
X7956550Y-2197100D01*
X7957363Y-2204778D01*
X7946724Y-2219325D01*
X7930459Y-2240356D01*
X7925358Y-2250941D01*
X7917174Y-2279674D01*
X7897377Y-2328426D01*
X7882293Y-2362200D01*
X7867048Y-2396947D01*
X7857339Y-2421597D01*
X7855590Y-2427816D01*
X7849535Y-2443987D01*
X7837723Y-2440470D01*
X7823484Y-2421298D01*
X7810150Y-2390501D01*
X7803177Y-2364383D01*
X7795132Y-2338138D01*
X7790351Y-2326283D01*
X7781252Y-2305031D01*
X7778783Y-2298700D01*
X7772371Y-2281897D01*
X7760584Y-2252150D01*
X7747644Y-2220029D01*
X7738196Y-2197100D01*
X7729858Y-2176743D01*
X7727950Y-2171700D01*
X7721514Y-2155974D01*
X7716350Y-2144116D01*
X7706688Y-2116401D01*
X7704390Y-2106016D01*
X7695601Y-2080646D01*
X7689861Y-2070100D01*
X7677418Y-2040803D01*
X7674090Y-2026646D01*
X7665524Y-1998929D01*
X7659503Y-1988546D01*
X7649045Y-1968358D01*
X7636265Y-1934910D01*
X7632700Y-1924050D01*
X7620347Y-1889122D01*
X7609195Y-1864386D01*
X7606725Y-1860550D01*
X7597139Y-1844287D01*
X7596500Y-1841500D01*
X7595345Y-1834746D01*
X7591181Y-1821315D01*
X7582351Y-1796470D01*
X7567195Y-1755471D01*
X7554264Y-1720850D01*
X7539308Y-1680560D01*
X7528418Y-1650637D01*
X7524188Y-1638300D01*
X7518683Y-1622872D01*
X7507251Y-1593435D01*
X7493625Y-1559474D01*
X7484196Y-1536700D01*
X7476246Y-1516368D01*
X7474651Y-1511300D01*
X7469631Y-1497296D01*
X7457625Y-1465737D01*
X7440953Y-1422701D01*
X7435873Y-1409700D01*
X7418796Y-1364147D01*
X7406584Y-1327832D01*
X7401310Y-1307052D01*
X7401345Y-1304925D01*
X7390612Y-1301182D01*
X7359370Y-1298130D01*
X7312506Y-1296095D01*
X7258051Y-1295400D01*
X7199055Y-1296368D01*
X7151959Y-1299022D01*
X7121438Y-1302979D01*
X7112000Y-1307273D01*
X7116173Y-1327480D01*
X7123179Y-1348548D01*
X7132303Y-1374883D01*
X7135622Y-1387608D01*
X7141849Y-1404599D01*
X7155267Y-1432797D01*
X7156450Y-1435100D01*
X7170217Y-1463697D01*
X7177167Y-1481940D01*
X7177279Y-1482591D01*
X7182210Y-1500799D01*
X7190099Y-1524000D01*
X7202668Y-1558964D01*
X7208945Y-1578077D01*
X7211501Y-1589290D01*
X7211726Y-1590808D01*
X7218020Y-1607793D01*
X7231478Y-1636019D01*
X7232719Y-1638433D01*
X7243588Y-1663729D01*
X7244582Y-1676142D01*
X7243708Y-1676400D01*
X7244583Y-1684258D01*
X7258050Y-1701800D01*
X7271962Y-1720127D01*
X7272393Y-1727200D01*
X7271657Y-1736915D01*
X7281153Y-1760744D01*
X7283382Y-1765166D01*
X7296336Y-1791677D01*
X7301888Y-1805983D01*
X7301865Y-1806441D01*
X7305072Y-1819402D01*
X7314409Y-1846946D01*
X7326679Y-1880033D01*
X7336705Y-1905000D01*
X7344544Y-1925323D01*
X7346048Y-1930400D01*
X7352936Y-1945906D01*
X7354979Y-1949450D01*
X7362831Y-1967837D01*
X7375089Y-2001979D01*
X7385050Y-2032000D01*
X7398567Y-2072272D01*
X7409945Y-2103012D01*
X7415122Y-2114550D01*
X7423424Y-2131493D01*
X7424020Y-2133600D01*
X7429147Y-2148671D01*
X7439836Y-2176466D01*
X7440466Y-2178050D01*
X7454915Y-2215055D01*
X7461770Y-2235505D01*
X7463200Y-2246295D01*
X7462809Y-2249123D01*
X7468356Y-2264249D01*
X7475445Y-2274523D01*
X7487028Y-2296045D01*
X7501836Y-2332606D01*
X7512050Y-2362200D01*
X7525850Y-2402504D01*
X7537954Y-2433251D01*
X7543826Y-2444750D01*
X7553348Y-2464222D01*
X7565603Y-2497190D01*
X7569213Y-2508250D01*
X7581000Y-2543127D01*
X7590764Y-2567863D01*
X7592736Y-2571750D01*
X7602017Y-2594507D01*
X7602602Y-2597150D01*
X7608791Y-2616169D01*
X7621251Y-2647745D01*
X7625330Y-2657414D01*
X7638035Y-2688768D01*
X7644884Y-2708942D01*
X7645288Y-2711522D01*
X7650280Y-2726160D01*
X7662979Y-2753032D01*
X7664450Y-2755900D01*
X7678217Y-2784497D01*
X7685167Y-2802740D01*
X7685279Y-2803391D01*
X7690698Y-2822926D01*
X7702052Y-2855628D01*
X7715714Y-2891137D01*
X7717546Y-2895600D01*
X7726602Y-2920259D01*
X7728703Y-2927350D01*
X7735569Y-2946079D01*
X7748883Y-2977870D01*
X7754588Y-2990850D01*
X7768635Y-3023163D01*
X7777270Y-3044488D01*
X7778401Y-3048000D01*
X7785604Y-3061251D01*
X7802803Y-3088419D01*
X7817272Y-3110224D01*
X7841301Y-3146028D01*
X7860871Y-3175483D01*
X7867650Y-3185858D01*
X7890039Y-3215723D01*
X7919805Y-3249267D01*
X7951205Y-3280755D01*
X7978497Y-3304457D01*
X7995940Y-3314640D01*
X7996717Y-3314700D01*
X8012261Y-3321161D01*
X8013700Y-3325499D01*
X8024147Y-3335728D01*
X8051028Y-3352907D01*
X8087651Y-3373476D01*
X8127328Y-3393876D01*
X8163367Y-3410547D01*
X8189078Y-3419930D01*
X8192524Y-3420640D01*
X8217921Y-3428128D01*
X8223250Y-3430785D01*
X8241582Y-3434826D01*
X8277624Y-3438370D01*
X8323687Y-3440669D01*
X8325180Y-3440712D01*
X8414410Y-3443219D01*
X8413932Y-3322719D01*
X8413113Y-3270043D01*
X8411305Y-3227678D01*
X8408820Y-3201519D01*
X8407252Y-3196151D01*
X8392187Y-3191350D01*
X8359932Y-3185394D01*
X8331200Y-3181349D01*
X8289404Y-3174216D01*
X8257034Y-3165271D01*
X8245475Y-3159553D01*
X8231928Y-3152949D01*
X8229600Y-3155950D01*
X8221712Y-3156861D01*
X8209196Y-3148475D01*
X8180518Y-3128577D01*
X8162113Y-3118241D01*
X8138904Y-3099993D01*
X8111283Y-3069364D01*
X8099972Y-3054245D01*
X8073771Y-3014062D01*
X8045988Y-2967062D01*
X8019353Y-2918496D01*
X7996596Y-2873620D01*
X7980448Y-2837686D01*
X7973637Y-2815949D01*
X7974239Y-2812295D01*
X7982553Y-2796228D01*
X7982562Y-2796116D01*
X7987901Y-2781087D01*
X8001275Y-2750010D01*
X8018935Y-2711450D01*
X8037626Y-2670233D01*
X8051381Y-2637292D01*
X8056980Y-2620656D01*
X8066584Y-2598622D01*
X8073502Y-2588906D01*
X8086633Y-2569168D01*
X8089168Y-2562358D01*
X8098022Y-2532236D01*
X8118715Y-2481690D01*
X8132408Y-2451100D01*
X8147646Y-2416848D01*
X8157451Y-2393209D01*
X8159306Y-2387600D01*
X8166016Y-2372735D01*
X8172288Y-2362200D01*
X8183968Y-2338858D01*
X8186393Y-2330450D01*
X8192474Y-2312181D01*
X8205731Y-2280028D01*
X8214362Y-2260600D01*
X8252517Y-2176330D01*
X8285075Y-2103542D01*
X8310799Y-2045051D01*
X8328454Y-2003670D01*
X8336802Y-1982215D01*
X8337098Y-1981200D01*
X8342960Y-1967295D01*
X8356671Y-1937077D01*
X8374535Y-1898650D01*
X8393157Y-1857796D01*
X8406829Y-1825594D01*
X8412381Y-1809750D01*
X8420553Y-1788656D01*
X8426613Y-1778000D01*
X8437554Y-1758456D01*
X8439728Y-1752600D01*
X8445031Y-1738110D01*
X8457233Y-1709155D01*
X8463253Y-1695450D01*
X8488961Y-1637163D01*
X8505243Y-1599232D01*
X8513259Y-1578924D01*
X8514481Y-1574800D01*
X8521571Y-1559910D01*
X8527888Y-1549400D01*
X8539638Y-1526049D01*
X8542120Y-1517650D01*
X8548275Y-1500304D01*
X8562319Y-1467401D01*
X8579966Y-1428750D01*
X8598281Y-1388719D01*
X8611388Y-1358154D01*
X8616339Y-1344083D01*
X8624647Y-1328064D01*
X8626475Y-1326091D01*
X8634794Y-1313499D01*
X8628557Y-1304738D01*
X8605102Y-1299204D01*
X8561768Y-1296294D01*
X8495892Y-1295402D01*
X8491193Y-1295399D01*
X8346385Y-1295399D01*
X8334210Y-1330324D01*
X8334210Y-1330324D01*
G37*
X8334210Y-1330324D02*
X8324428Y-1360005D01*
X8319363Y-1377950D01*
X8309258Y-1397284D01*
X8299450Y-1409700D01*
X8285271Y-1428108D01*
X8282198Y-1435100D01*
X8277023Y-1453447D01*
X8262651Y-1490472D01*
X8240764Y-1541901D01*
X8234653Y-1555750D01*
X8220563Y-1588078D01*
X8211766Y-1609401D01*
X8210550Y-1612900D01*
X8204890Y-1627400D01*
X8192475Y-1656377D01*
X8186448Y-1670050D01*
X8159508Y-1731172D01*
X8142058Y-1771808D01*
X8134653Y-1790664D01*
X8134643Y-1790700D01*
X8128802Y-1805206D01*
X8116278Y-1834193D01*
X8110248Y-1847850D01*
X8082443Y-1910952D01*
X8065221Y-1951205D01*
X8058575Y-1968500D01*
X8052743Y-1982802D01*
X8039780Y-2012170D01*
X8030808Y-2032000D01*
X8006801Y-2086640D01*
X7993944Y-2121137D01*
X7991412Y-2137744D01*
X7991823Y-2138749D01*
X7986398Y-2150515D01*
X7970457Y-2170366D01*
X7956392Y-2189247D01*
X7956550Y-2197100D01*
X7957363Y-2204778D01*
X7946724Y-2219325D01*
X7930459Y-2240356D01*
X7925358Y-2250941D01*
X7917174Y-2279674D01*
X7897377Y-2328426D01*
X7882293Y-2362200D01*
X7867048Y-2396947D01*
X7857339Y-2421597D01*
X7855590Y-2427816D01*
X7849535Y-2443987D01*
X7837723Y-2440470D01*
X7823484Y-2421298D01*
X7810150Y-2390501D01*
X7803177Y-2364383D01*
X7795132Y-2338138D01*
X7790351Y-2326283D01*
X7781252Y-2305031D01*
X7778783Y-2298700D01*
X7772371Y-2281897D01*
X7760584Y-2252150D01*
X7747644Y-2220029D01*
X7738196Y-2197100D01*
X7729858Y-2176743D01*
X7727950Y-2171700D01*
X7721514Y-2155974D01*
X7716350Y-2144116D01*
X7706688Y-2116401D01*
X7704390Y-2106016D01*
X7695601Y-2080646D01*
X7689861Y-2070100D01*
X7677418Y-2040803D01*
X7674090Y-2026646D01*
X7665524Y-1998929D01*
X7659503Y-1988546D01*
X7649045Y-1968358D01*
X7636265Y-1934910D01*
X7632700Y-1924050D01*
X7620347Y-1889122D01*
X7609195Y-1864386D01*
X7606725Y-1860550D01*
X7597139Y-1844287D01*
X7596500Y-1841500D01*
X7595345Y-1834746D01*
X7591181Y-1821315D01*
X7582351Y-1796470D01*
X7567195Y-1755471D01*
X7554264Y-1720850D01*
X7539308Y-1680560D01*
X7528418Y-1650637D01*
X7524188Y-1638300D01*
X7518683Y-1622872D01*
X7507251Y-1593435D01*
X7493625Y-1559474D01*
X7484196Y-1536700D01*
X7476246Y-1516368D01*
X7474651Y-1511300D01*
X7469631Y-1497296D01*
X7457625Y-1465737D01*
X7440953Y-1422701D01*
X7435873Y-1409700D01*
X7418796Y-1364147D01*
X7406584Y-1327832D01*
X7401310Y-1307052D01*
X7401345Y-1304925D01*
X7390612Y-1301182D01*
X7359370Y-1298130D01*
X7312506Y-1296095D01*
X7258051Y-1295400D01*
X7199055Y-1296368D01*
X7151959Y-1299022D01*
X7121438Y-1302979D01*
X7112000Y-1307273D01*
X7116173Y-1327480D01*
X7123179Y-1348548D01*
X7132303Y-1374883D01*
X7135622Y-1387608D01*
X7141849Y-1404599D01*
X7155267Y-1432797D01*
X7156450Y-1435100D01*
X7170217Y-1463697D01*
X7177167Y-1481940D01*
X7177279Y-1482591D01*
X7182210Y-1500799D01*
X7190099Y-1524000D01*
X7202668Y-1558964D01*
X7208945Y-1578077D01*
X7211501Y-1589290D01*
X7211726Y-1590808D01*
X7218020Y-1607793D01*
X7231478Y-1636019D01*
X7232719Y-1638433D01*
X7243588Y-1663729D01*
X7244582Y-1676142D01*
X7243708Y-1676400D01*
X7244583Y-1684258D01*
X7258050Y-1701800D01*
X7271962Y-1720127D01*
X7272393Y-1727200D01*
X7271657Y-1736915D01*
X7281153Y-1760744D01*
X7283382Y-1765166D01*
X7296336Y-1791677D01*
X7301888Y-1805983D01*
X7301865Y-1806441D01*
X7305072Y-1819402D01*
X7314409Y-1846946D01*
X7326679Y-1880033D01*
X7336705Y-1905000D01*
X7344544Y-1925323D01*
X7346048Y-1930400D01*
X7352936Y-1945906D01*
X7354979Y-1949450D01*
X7362831Y-1967837D01*
X7375089Y-2001979D01*
X7385050Y-2032000D01*
X7398567Y-2072272D01*
X7409945Y-2103012D01*
X7415122Y-2114550D01*
X7423424Y-2131493D01*
X7424020Y-2133600D01*
X7429147Y-2148671D01*
X7439836Y-2176466D01*
X7440466Y-2178050D01*
X7454915Y-2215055D01*
X7461770Y-2235505D01*
X7463200Y-2246295D01*
X7462809Y-2249123D01*
X7468356Y-2264249D01*
X7475445Y-2274523D01*
X7487028Y-2296045D01*
X7501836Y-2332606D01*
X7512050Y-2362200D01*
X7525850Y-2402504D01*
X7537954Y-2433251D01*
X7543826Y-2444750D01*
X7553348Y-2464222D01*
X7565603Y-2497190D01*
X7569213Y-2508250D01*
X7581000Y-2543127D01*
X7590764Y-2567863D01*
X7592736Y-2571750D01*
X7602017Y-2594507D01*
X7602602Y-2597150D01*
X7608791Y-2616169D01*
X7621251Y-2647745D01*
X7625330Y-2657414D01*
X7638035Y-2688768D01*
X7644884Y-2708942D01*
X7645288Y-2711522D01*
X7650280Y-2726160D01*
X7662979Y-2753032D01*
X7664450Y-2755900D01*
X7678217Y-2784497D01*
X7685167Y-2802740D01*
X7685279Y-2803391D01*
X7690698Y-2822926D01*
X7702052Y-2855628D01*
X7715714Y-2891137D01*
X7717546Y-2895600D01*
X7726602Y-2920259D01*
X7728703Y-2927350D01*
X7735569Y-2946079D01*
X7748883Y-2977870D01*
X7754588Y-2990850D01*
X7768635Y-3023163D01*
X7777270Y-3044488D01*
X7778401Y-3048000D01*
X7785604Y-3061251D01*
X7802803Y-3088419D01*
X7817272Y-3110224D01*
X7841301Y-3146028D01*
X7860871Y-3175483D01*
X7867650Y-3185858D01*
X7890039Y-3215723D01*
X7919805Y-3249267D01*
X7951205Y-3280755D01*
X7978497Y-3304457D01*
X7995940Y-3314640D01*
X7996717Y-3314700D01*
X8012261Y-3321161D01*
X8013700Y-3325499D01*
X8024147Y-3335728D01*
X8051028Y-3352907D01*
X8087651Y-3373476D01*
X8127328Y-3393876D01*
X8163367Y-3410547D01*
X8189078Y-3419930D01*
X8192524Y-3420640D01*
X8217921Y-3428128D01*
X8223250Y-3430785D01*
X8241582Y-3434826D01*
X8277624Y-3438370D01*
X8323687Y-3440669D01*
X8325180Y-3440712D01*
X8414410Y-3443219D01*
X8413932Y-3322719D01*
X8413113Y-3270043D01*
X8411305Y-3227678D01*
X8408820Y-3201519D01*
X8407252Y-3196151D01*
X8392187Y-3191350D01*
X8359932Y-3185394D01*
X8331200Y-3181349D01*
X8289404Y-3174216D01*
X8257034Y-3165271D01*
X8245475Y-3159553D01*
X8231928Y-3152949D01*
X8229600Y-3155950D01*
X8221712Y-3156861D01*
X8209196Y-3148475D01*
X8180518Y-3128577D01*
X8162113Y-3118241D01*
X8138904Y-3099993D01*
X8111283Y-3069364D01*
X8099972Y-3054245D01*
X8073771Y-3014062D01*
X8045988Y-2967062D01*
X8019353Y-2918496D01*
X7996596Y-2873620D01*
X7980448Y-2837686D01*
X7973637Y-2815949D01*
X7974239Y-2812295D01*
X7982553Y-2796228D01*
X7982562Y-2796116D01*
X7987901Y-2781087D01*
X8001275Y-2750010D01*
X8018935Y-2711450D01*
X8037626Y-2670233D01*
X8051381Y-2637292D01*
X8056980Y-2620656D01*
X8066584Y-2598622D01*
X8073502Y-2588906D01*
X8086633Y-2569168D01*
X8089168Y-2562358D01*
X8098022Y-2532236D01*
X8118715Y-2481690D01*
X8132408Y-2451100D01*
X8147646Y-2416848D01*
X8157451Y-2393209D01*
X8159306Y-2387600D01*
X8166016Y-2372735D01*
X8172288Y-2362200D01*
X8183968Y-2338858D01*
X8186393Y-2330450D01*
X8192474Y-2312181D01*
X8205731Y-2280028D01*
X8214362Y-2260600D01*
X8252517Y-2176330D01*
X8285075Y-2103542D01*
X8310799Y-2045051D01*
X8328454Y-2003670D01*
X8336802Y-1982215D01*
X8337098Y-1981200D01*
X8342960Y-1967295D01*
X8356671Y-1937077D01*
X8374535Y-1898650D01*
X8393157Y-1857796D01*
X8406829Y-1825594D01*
X8412381Y-1809750D01*
X8420553Y-1788656D01*
X8426613Y-1778000D01*
X8437554Y-1758456D01*
X8439728Y-1752600D01*
X8445031Y-1738110D01*
X8457233Y-1709155D01*
X8463253Y-1695450D01*
X8488961Y-1637163D01*
X8505243Y-1599232D01*
X8513259Y-1578924D01*
X8514481Y-1574800D01*
X8521571Y-1559910D01*
X8527888Y-1549400D01*
X8539638Y-1526049D01*
X8542120Y-1517650D01*
X8548275Y-1500304D01*
X8562319Y-1467401D01*
X8579966Y-1428750D01*
X8598281Y-1388719D01*
X8611388Y-1358154D01*
X8616339Y-1344083D01*
X8624647Y-1328064D01*
X8626475Y-1326091D01*
X8634794Y-1313499D01*
X8628557Y-1304738D01*
X8605102Y-1299204D01*
X8561768Y-1296294D01*
X8495892Y-1295402D01*
X8491193Y-1295399D01*
X8346385Y-1295399D01*
X8334210Y-1330324D01*
G36*
X8153400Y-3105150D02*
X8159750Y-3111500D01*
X8166100Y-3105150D01*
X8159750Y-3098800D01*
X8153400Y-3105150D01*
X8153400Y-3105150D01*
G37*
X8153400Y-3105150D02*
X8159750Y-3111500D01*
X8166100Y-3105150D01*
X8159750Y-3098800D01*
X8153400Y-3105150D01*
G36*
X6930701Y-2484094D02*
X6901039Y-2490060D01*
X6876363Y-2504950D01*
X6846472Y-2532856D01*
X6843344Y-2535979D01*
X6812505Y-2569368D01*
X6796103Y-2597286D01*
X6789100Y-2630569D01*
X6787370Y-2656390D01*
X6790537Y-2718545D01*
X6809157Y-2768377D01*
X6847147Y-2815505D01*
X6855528Y-2823668D01*
X6900121Y-2851223D01*
X6956735Y-2866146D01*
X7015015Y-2867004D01*
X7064194Y-2852585D01*
X7100270Y-2831648D01*
X7128992Y-2812459D01*
X7145284Y-2798699D01*
X7145021Y-2794000D01*
X7143066Y-2786167D01*
X7151128Y-2773711D01*
X7170288Y-2735727D01*
X7179363Y-2686418D01*
X7178093Y-2635574D01*
X7166219Y-2592986D01*
X7156333Y-2577969D01*
X7143337Y-2559781D01*
X7144730Y-2552700D01*
X7142058Y-2546415D01*
X7122870Y-2530347D01*
X7105424Y-2517775D01*
X7070328Y-2496994D01*
X7035397Y-2486429D01*
X6989303Y-2483044D01*
X6975550Y-2482962D01*
X6930701Y-2484094D01*
X6930701Y-2484094D01*
G37*
X6930701Y-2484094D02*
X6901039Y-2490060D01*
X6876363Y-2504950D01*
X6846472Y-2532856D01*
X6843344Y-2535979D01*
X6812505Y-2569368D01*
X6796103Y-2597286D01*
X6789100Y-2630569D01*
X6787370Y-2656390D01*
X6790537Y-2718545D01*
X6809157Y-2768377D01*
X6847147Y-2815505D01*
X6855528Y-2823668D01*
X6900121Y-2851223D01*
X6956735Y-2866146D01*
X7015015Y-2867004D01*
X7064194Y-2852585D01*
X7100270Y-2831648D01*
X7128992Y-2812459D01*
X7145284Y-2798699D01*
X7145021Y-2794000D01*
X7143066Y-2786167D01*
X7151128Y-2773711D01*
X7170288Y-2735727D01*
X7179363Y-2686418D01*
X7178093Y-2635574D01*
X7166219Y-2592986D01*
X7156333Y-2577969D01*
X7143337Y-2559781D01*
X7144730Y-2552700D01*
X7142058Y-2546415D01*
X7122870Y-2530347D01*
X7105424Y-2517775D01*
X7070328Y-2496994D01*
X7035397Y-2486429D01*
X6989303Y-2483044D01*
X6975550Y-2482962D01*
X6930701Y-2484094D01*
G36*
X5738049Y-1263838D02*
X5657286Y-1270720D01*
X5585282Y-1286384D01*
X5513955Y-1312762D01*
X5435226Y-1351786D01*
X5410200Y-1365552D01*
X5388933Y-1381081D01*
X5357065Y-1408560D01*
X5319117Y-1443575D01*
X5279610Y-1481714D01*
X5243064Y-1518563D01*
X5213999Y-1549710D01*
X5196934Y-1570742D01*
X5194300Y-1576332D01*
X5187726Y-1592167D01*
X5171203Y-1620062D01*
X5163106Y-1632339D01*
X5138615Y-1675452D01*
X5112823Y-1731681D01*
X5090311Y-1790011D01*
X5075659Y-1839427D01*
X5074337Y-1845839D01*
X5069418Y-1867476D01*
X5066984Y-1873250D01*
X5062561Y-1884938D01*
X5058862Y-1915969D01*
X5056026Y-1960294D01*
X5054193Y-2011862D01*
X5053504Y-2064622D01*
X5054099Y-2112525D01*
X5056116Y-2149522D01*
X5059698Y-2169560D01*
X5060113Y-2170344D01*
X5071347Y-2173857D01*
X5101033Y-2176824D01*
X5150180Y-2179268D01*
X5219796Y-2181209D01*
X5310890Y-2182671D01*
X5424472Y-2183675D01*
X5561549Y-2184243D01*
X5703231Y-2184400D01*
X6337663Y-2184400D01*
X6330483Y-2225155D01*
X6321372Y-2258873D01*
X6309696Y-2282305D01*
X6301530Y-2296217D01*
X6303242Y-2298700D01*
X6305156Y-2307683D01*
X6294402Y-2331210D01*
X6274375Y-2364148D01*
X6248470Y-2401364D01*
X6220081Y-2437724D01*
X6192602Y-2468096D01*
X6188785Y-2471802D01*
X6158318Y-2495674D01*
X6115034Y-2523658D01*
X6067106Y-2551097D01*
X6022707Y-2573336D01*
X5990012Y-2585718D01*
X5988050Y-2586163D01*
X5965622Y-2590484D01*
X5949950Y-2593344D01*
X5922322Y-2601033D01*
X5911372Y-2606125D01*
X5892908Y-2609826D01*
X5856365Y-2612199D01*
X5809028Y-2613267D01*
X5758181Y-2613055D01*
X5711110Y-2611588D01*
X5675099Y-2608891D01*
X5657850Y-2605261D01*
X5635055Y-2597062D01*
X5621149Y-2594151D01*
X5580980Y-2582219D01*
X5532751Y-2560370D01*
X5488287Y-2534496D01*
X5464707Y-2516175D01*
X5442627Y-2497134D01*
X5428884Y-2489200D01*
X5428874Y-2489200D01*
X5414638Y-2481275D01*
X5402036Y-2470150D01*
X5389809Y-2455166D01*
X5390159Y-2451100D01*
X5387939Y-2442920D01*
X5372890Y-2423009D01*
X5371009Y-2420825D01*
X5350712Y-2400915D01*
X5332521Y-2398433D01*
X5307846Y-2408930D01*
X5280159Y-2424933D01*
X5264329Y-2438122D01*
X5264156Y-2438390D01*
X5249817Y-2449519D01*
X5219578Y-2467117D01*
X5187982Y-2483391D01*
X5149537Y-2503615D01*
X5131039Y-2520620D01*
X5131783Y-2540317D01*
X5151065Y-2568614D01*
X5174549Y-2595950D01*
X5195471Y-2622283D01*
X5206497Y-2641120D01*
X5207000Y-2643575D01*
X5217446Y-2652812D01*
X5228167Y-2654300D01*
X5242349Y-2657924D01*
X5241472Y-2662161D01*
X5242571Y-2675507D01*
X5256680Y-2692659D01*
X5275147Y-2704158D01*
X5280738Y-2705100D01*
X5298192Y-2713817D01*
X5308133Y-2723586D01*
X5327599Y-2738717D01*
X5362986Y-2759741D01*
X5407155Y-2783097D01*
X5452970Y-2805226D01*
X5493295Y-2822567D01*
X5520990Y-2831561D01*
X5525671Y-2832100D01*
X5548737Y-2837130D01*
X5554501Y-2840934D01*
X5564790Y-2847876D01*
X5582363Y-2853019D01*
X5611246Y-2856800D01*
X5655461Y-2859653D01*
X5719035Y-2862016D01*
X5759450Y-2863153D01*
X5825505Y-2863874D01*
X5888111Y-2862754D01*
X5939590Y-2860032D01*
X5969000Y-2856613D01*
X6027605Y-2845440D01*
X6067870Y-2836504D01*
X6096510Y-2827861D01*
X6120238Y-2817568D01*
X6139317Y-2807336D01*
X6168072Y-2793250D01*
X6186211Y-2788196D01*
X6188224Y-2788857D01*
X6199680Y-2785389D01*
X6210046Y-2775256D01*
X6230659Y-2759001D01*
X6241637Y-2755900D01*
X6261117Y-2747247D01*
X6280150Y-2730500D01*
X6302457Y-2711460D01*
X6318072Y-2705100D01*
X6333487Y-2696462D01*
X6360566Y-2673632D01*
X6393908Y-2641232D01*
X6399672Y-2635250D01*
X6429969Y-2602289D01*
X6450353Y-2577708D01*
X6457273Y-2565864D01*
X6456593Y-2565400D01*
X6458270Y-2557448D01*
X6473987Y-2537441D01*
X6483350Y-2527300D01*
X6503352Y-2504099D01*
X6510685Y-2490597D01*
X6509158Y-2489200D01*
X6507751Y-2481371D01*
X6517552Y-2466975D01*
X6537747Y-2436929D01*
X6548846Y-2408139D01*
X6549438Y-2400300D01*
X6554382Y-2385562D01*
X6564642Y-2364550D01*
X6578579Y-2333548D01*
X6584778Y-2313750D01*
X6590359Y-2288046D01*
X6598767Y-2250725D01*
X6601186Y-2240172D01*
X6606420Y-2202139D01*
X6609448Y-2147844D01*
X6610401Y-2083792D01*
X6609411Y-2016492D01*
X6606757Y-1955800D01*
X6338826Y-1955800D01*
X5829207Y-1955800D01*
X5702187Y-1955772D01*
X5598290Y-1955613D01*
X5515239Y-1955208D01*
X5450756Y-1954443D01*
X5402563Y-1953201D01*
X5368385Y-1951368D01*
X5345942Y-1948831D01*
X5332959Y-1945473D01*
X5327159Y-1941179D01*
X5326262Y-1935836D01*
X5327616Y-1930508D01*
X5336149Y-1898142D01*
X5341924Y-1870578D01*
X5351398Y-1838653D01*
X5361708Y-1819669D01*
X5369790Y-1805831D01*
X5368059Y-1803400D01*
X5367720Y-1794272D01*
X5379010Y-1770733D01*
X5398128Y-1738545D01*
X5421272Y-1703471D01*
X5444642Y-1671275D01*
X5464435Y-1647720D01*
X5476779Y-1638571D01*
X5492047Y-1630811D01*
X5515956Y-1612429D01*
X5516920Y-1611595D01*
X5539723Y-1594474D01*
X5553388Y-1589160D01*
X5553783Y-1589370D01*
X5566774Y-1585572D01*
X5583492Y-1573423D01*
X5606053Y-1558607D01*
X5635933Y-1544324D01*
X5665006Y-1533704D01*
X5685147Y-1529874D01*
X5689600Y-1532565D01*
X5697342Y-1532289D01*
X5705971Y-1526224D01*
X5725292Y-1520824D01*
X5762652Y-1517680D01*
X5810792Y-1516749D01*
X5862455Y-1517987D01*
X5910383Y-1521351D01*
X5947318Y-1526798D01*
X5951075Y-1527692D01*
X6022615Y-1548049D01*
X6071664Y-1567203D01*
X6101022Y-1586288D01*
X6104114Y-1589448D01*
X6124242Y-1607449D01*
X6135972Y-1612900D01*
X6156067Y-1622512D01*
X6184293Y-1647096D01*
X6215161Y-1680276D01*
X6243177Y-1715672D01*
X6262852Y-1746907D01*
X6268781Y-1767141D01*
X6275426Y-1781504D01*
X6291644Y-1802066D01*
X6306182Y-1820993D01*
X6307072Y-1828800D01*
X6305465Y-1838124D01*
X6312838Y-1855950D01*
X6325995Y-1889698D01*
X6333097Y-1919450D01*
X6338826Y-1955800D01*
X6606757Y-1955800D01*
X6606610Y-1952449D01*
X6602129Y-1898171D01*
X6596101Y-1860164D01*
X6593305Y-1851025D01*
X6585265Y-1826503D01*
X6585513Y-1816102D01*
X6585591Y-1816100D01*
X6584781Y-1806330D01*
X6574471Y-1782374D01*
X6572250Y-1778000D01*
X6561346Y-1752649D01*
X6560304Y-1740170D01*
X6561193Y-1739900D01*
X6560318Y-1732041D01*
X6546850Y-1714500D01*
X6533471Y-1696222D01*
X6534150Y-1689100D01*
X6534800Y-1681376D01*
X6523391Y-1665844D01*
X6509715Y-1646006D01*
X6508801Y-1636133D01*
X6505408Y-1624087D01*
X6489778Y-1606620D01*
X6470801Y-1585549D01*
X6464300Y-1571915D01*
X6455220Y-1554240D01*
X6431146Y-1525271D01*
X6396833Y-1489690D01*
X6357033Y-1452180D01*
X6316498Y-1417424D01*
X6279983Y-1390105D01*
X6279328Y-1389668D01*
X6218098Y-1352593D01*
X6155390Y-1320866D01*
X6099267Y-1298304D01*
X6069202Y-1290185D01*
X6046096Y-1285246D01*
X6038850Y-1282672D01*
X6026440Y-1276803D01*
X5990354Y-1271679D01*
X5932310Y-1267461D01*
X5854026Y-1264306D01*
X5835650Y-1263806D01*
X5738049Y-1263838D01*
X5738049Y-1263838D01*
G37*
X5738049Y-1263838D02*
X5657286Y-1270720D01*
X5585282Y-1286384D01*
X5513955Y-1312762D01*
X5435226Y-1351786D01*
X5410200Y-1365552D01*
X5388933Y-1381081D01*
X5357065Y-1408560D01*
X5319117Y-1443575D01*
X5279610Y-1481714D01*
X5243064Y-1518563D01*
X5213999Y-1549710D01*
X5196934Y-1570742D01*
X5194300Y-1576332D01*
X5187726Y-1592167D01*
X5171203Y-1620062D01*
X5163106Y-1632339D01*
X5138615Y-1675452D01*
X5112823Y-1731681D01*
X5090311Y-1790011D01*
X5075659Y-1839427D01*
X5074337Y-1845839D01*
X5069418Y-1867476D01*
X5066984Y-1873250D01*
X5062561Y-1884938D01*
X5058862Y-1915969D01*
X5056026Y-1960294D01*
X5054193Y-2011862D01*
X5053504Y-2064622D01*
X5054099Y-2112525D01*
X5056116Y-2149522D01*
X5059698Y-2169560D01*
X5060113Y-2170344D01*
X5071347Y-2173857D01*
X5101033Y-2176824D01*
X5150180Y-2179268D01*
X5219796Y-2181209D01*
X5310890Y-2182671D01*
X5424472Y-2183675D01*
X5561549Y-2184243D01*
X5703231Y-2184400D01*
X6337663Y-2184400D01*
X6330483Y-2225155D01*
X6321372Y-2258873D01*
X6309696Y-2282305D01*
X6301530Y-2296217D01*
X6303242Y-2298700D01*
X6305156Y-2307683D01*
X6294402Y-2331210D01*
X6274375Y-2364148D01*
X6248470Y-2401364D01*
X6220081Y-2437724D01*
X6192602Y-2468096D01*
X6188785Y-2471802D01*
X6158318Y-2495674D01*
X6115034Y-2523658D01*
X6067106Y-2551097D01*
X6022707Y-2573336D01*
X5990012Y-2585718D01*
X5988050Y-2586163D01*
X5965622Y-2590484D01*
X5949950Y-2593344D01*
X5922322Y-2601033D01*
X5911372Y-2606125D01*
X5892908Y-2609826D01*
X5856365Y-2612199D01*
X5809028Y-2613267D01*
X5758181Y-2613055D01*
X5711110Y-2611588D01*
X5675099Y-2608891D01*
X5657850Y-2605261D01*
X5635055Y-2597062D01*
X5621149Y-2594151D01*
X5580980Y-2582219D01*
X5532751Y-2560370D01*
X5488287Y-2534496D01*
X5464707Y-2516175D01*
X5442627Y-2497134D01*
X5428884Y-2489200D01*
X5428874Y-2489200D01*
X5414638Y-2481275D01*
X5402036Y-2470150D01*
X5389809Y-2455166D01*
X5390159Y-2451100D01*
X5387939Y-2442920D01*
X5372890Y-2423009D01*
X5371009Y-2420825D01*
X5350712Y-2400915D01*
X5332521Y-2398433D01*
X5307846Y-2408930D01*
X5280159Y-2424933D01*
X5264329Y-2438122D01*
X5264156Y-2438390D01*
X5249817Y-2449519D01*
X5219578Y-2467117D01*
X5187982Y-2483391D01*
X5149537Y-2503615D01*
X5131039Y-2520620D01*
X5131783Y-2540317D01*
X5151065Y-2568614D01*
X5174549Y-2595950D01*
X5195471Y-2622283D01*
X5206497Y-2641120D01*
X5207000Y-2643575D01*
X5217446Y-2652812D01*
X5228167Y-2654300D01*
X5242349Y-2657924D01*
X5241472Y-2662161D01*
X5242571Y-2675507D01*
X5256680Y-2692659D01*
X5275147Y-2704158D01*
X5280738Y-2705100D01*
X5298192Y-2713817D01*
X5308133Y-2723586D01*
X5327599Y-2738717D01*
X5362986Y-2759741D01*
X5407155Y-2783097D01*
X5452970Y-2805226D01*
X5493295Y-2822567D01*
X5520990Y-2831561D01*
X5525671Y-2832100D01*
X5548737Y-2837130D01*
X5554501Y-2840934D01*
X5564790Y-2847876D01*
X5582363Y-2853019D01*
X5611246Y-2856800D01*
X5655461Y-2859653D01*
X5719035Y-2862016D01*
X5759450Y-2863153D01*
X5825505Y-2863874D01*
X5888111Y-2862754D01*
X5939590Y-2860032D01*
X5969000Y-2856613D01*
X6027605Y-2845440D01*
X6067870Y-2836504D01*
X6096510Y-2827861D01*
X6120238Y-2817568D01*
X6139317Y-2807336D01*
X6168072Y-2793250D01*
X6186211Y-2788196D01*
X6188224Y-2788857D01*
X6199680Y-2785389D01*
X6210046Y-2775256D01*
X6230659Y-2759001D01*
X6241637Y-2755900D01*
X6261117Y-2747247D01*
X6280150Y-2730500D01*
X6302457Y-2711460D01*
X6318072Y-2705100D01*
X6333487Y-2696462D01*
X6360566Y-2673632D01*
X6393908Y-2641232D01*
X6399672Y-2635250D01*
X6429969Y-2602289D01*
X6450353Y-2577708D01*
X6457273Y-2565864D01*
X6456593Y-2565400D01*
X6458270Y-2557448D01*
X6473987Y-2537441D01*
X6483350Y-2527300D01*
X6503352Y-2504099D01*
X6510685Y-2490597D01*
X6509158Y-2489200D01*
X6507751Y-2481371D01*
X6517552Y-2466975D01*
X6537747Y-2436929D01*
X6548846Y-2408139D01*
X6549438Y-2400300D01*
X6554382Y-2385562D01*
X6564642Y-2364550D01*
X6578579Y-2333548D01*
X6584778Y-2313750D01*
X6590359Y-2288046D01*
X6598767Y-2250725D01*
X6601186Y-2240172D01*
X6606420Y-2202139D01*
X6609448Y-2147844D01*
X6610401Y-2083792D01*
X6609411Y-2016492D01*
X6606757Y-1955800D01*
X6338826Y-1955800D01*
X5829207Y-1955800D01*
X5702187Y-1955772D01*
X5598290Y-1955613D01*
X5515239Y-1955208D01*
X5450756Y-1954443D01*
X5402563Y-1953201D01*
X5368385Y-1951368D01*
X5345942Y-1948831D01*
X5332959Y-1945473D01*
X5327159Y-1941179D01*
X5326262Y-1935836D01*
X5327616Y-1930508D01*
X5336149Y-1898142D01*
X5341924Y-1870578D01*
X5351398Y-1838653D01*
X5361708Y-1819669D01*
X5369790Y-1805831D01*
X5368059Y-1803400D01*
X5367720Y-1794272D01*
X5379010Y-1770733D01*
X5398128Y-1738545D01*
X5421272Y-1703471D01*
X5444642Y-1671275D01*
X5464435Y-1647720D01*
X5476779Y-1638571D01*
X5492047Y-1630811D01*
X5515956Y-1612429D01*
X5516920Y-1611595D01*
X5539723Y-1594474D01*
X5553388Y-1589160D01*
X5553783Y-1589370D01*
X5566774Y-1585572D01*
X5583492Y-1573423D01*
X5606053Y-1558607D01*
X5635933Y-1544324D01*
X5665006Y-1533704D01*
X5685147Y-1529874D01*
X5689600Y-1532565D01*
X5697342Y-1532289D01*
X5705971Y-1526224D01*
X5725292Y-1520824D01*
X5762652Y-1517680D01*
X5810792Y-1516749D01*
X5862455Y-1517987D01*
X5910383Y-1521351D01*
X5947318Y-1526798D01*
X5951075Y-1527692D01*
X6022615Y-1548049D01*
X6071664Y-1567203D01*
X6101022Y-1586288D01*
X6104114Y-1589448D01*
X6124242Y-1607449D01*
X6135972Y-1612900D01*
X6156067Y-1622512D01*
X6184293Y-1647096D01*
X6215161Y-1680276D01*
X6243177Y-1715672D01*
X6262852Y-1746907D01*
X6268781Y-1767141D01*
X6275426Y-1781504D01*
X6291644Y-1802066D01*
X6306182Y-1820993D01*
X6307072Y-1828800D01*
X6305465Y-1838124D01*
X6312838Y-1855950D01*
X6325995Y-1889698D01*
X6333097Y-1919450D01*
X6338826Y-1955800D01*
X6606757Y-1955800D01*
X6606610Y-1952449D01*
X6602129Y-1898171D01*
X6596101Y-1860164D01*
X6593305Y-1851025D01*
X6585265Y-1826503D01*
X6585513Y-1816102D01*
X6585591Y-1816100D01*
X6584781Y-1806330D01*
X6574471Y-1782374D01*
X6572250Y-1778000D01*
X6561346Y-1752649D01*
X6560304Y-1740170D01*
X6561193Y-1739900D01*
X6560318Y-1732041D01*
X6546850Y-1714500D01*
X6533471Y-1696222D01*
X6534150Y-1689100D01*
X6534800Y-1681376D01*
X6523391Y-1665844D01*
X6509715Y-1646006D01*
X6508801Y-1636133D01*
X6505408Y-1624087D01*
X6489778Y-1606620D01*
X6470801Y-1585549D01*
X6464300Y-1571915D01*
X6455220Y-1554240D01*
X6431146Y-1525271D01*
X6396833Y-1489690D01*
X6357033Y-1452180D01*
X6316498Y-1417424D01*
X6279983Y-1390105D01*
X6279328Y-1389668D01*
X6218098Y-1352593D01*
X6155390Y-1320866D01*
X6099267Y-1298304D01*
X6069202Y-1290185D01*
X6046096Y-1285246D01*
X6038850Y-1282672D01*
X6026440Y-1276803D01*
X5990354Y-1271679D01*
X5932310Y-1267461D01*
X5854026Y-1264306D01*
X5835650Y-1263806D01*
X5738049Y-1263838D01*
G36*
X4203263Y-1268881D02*
X4084078Y-1294658D01*
X3978997Y-1341312D01*
X3887524Y-1409067D01*
X3809163Y-1498150D01*
X3803650Y-1505912D01*
X3776065Y-1549992D01*
X3766651Y-1577282D01*
X3775519Y-1587437D01*
X3777105Y-1587500D01*
X3798980Y-1596442D01*
X3810037Y-1606593D01*
X3829255Y-1621718D01*
X3863916Y-1642498D01*
X3903395Y-1662889D01*
X3956239Y-1684354D01*
X3991222Y-1689022D01*
X4009580Y-1676841D01*
X4013200Y-1658286D01*
X4023550Y-1636374D01*
X4050287Y-1608291D01*
X4086947Y-1578949D01*
X4127064Y-1553260D01*
X4164172Y-1536138D01*
X4178844Y-1532430D01*
X4204340Y-1525150D01*
X4210050Y-1522404D01*
X4237736Y-1515290D01*
X4281406Y-1512788D01*
X4332121Y-1514606D01*
X4380945Y-1520454D01*
X4416425Y-1529115D01*
X4448481Y-1539166D01*
X4467820Y-1542671D01*
X4470400Y-1541531D01*
X4478641Y-1545792D01*
X4500031Y-1563700D01*
X4524023Y-1585811D01*
X4554607Y-1616797D01*
X4570619Y-1641754D01*
X4576735Y-1671226D01*
X4577645Y-1706768D01*
X4575155Y-1752936D01*
X4565630Y-1784195D01*
X4546248Y-1810449D01*
X4517708Y-1836785D01*
X4490979Y-1854980D01*
X4489450Y-1855705D01*
X4461356Y-1870099D01*
X4426555Y-1889927D01*
X4422775Y-1892200D01*
X4396560Y-1906316D01*
X4382343Y-1910563D01*
X4381500Y-1909536D01*
X4373744Y-1909547D01*
X4364629Y-1915892D01*
X4338242Y-1929460D01*
X4320506Y-1934053D01*
X4294613Y-1941143D01*
X4284461Y-1947006D01*
X4265833Y-1954143D01*
X4248150Y-1955800D01*
X4221775Y-1959798D01*
X4211109Y-1965325D01*
X4194938Y-1974915D01*
X4193117Y-1975155D01*
X4170631Y-1979185D01*
X4133819Y-1988542D01*
X4092420Y-2000438D01*
X4056176Y-2012083D01*
X4035598Y-2020261D01*
X4007015Y-2030375D01*
X3994150Y-2032000D01*
X3961982Y-2041536D01*
X3920338Y-2067034D01*
X3874561Y-2103825D01*
X3829994Y-2147238D01*
X3791978Y-2192607D01*
X3769070Y-2228705D01*
X3740334Y-2309278D01*
X3729302Y-2400495D01*
X3735991Y-2494769D01*
X3760419Y-2584513D01*
X3768190Y-2602929D01*
X3785645Y-2632642D01*
X3812147Y-2668401D01*
X3842525Y-2704297D01*
X3871608Y-2734423D01*
X3894227Y-2752871D01*
X3902076Y-2755900D01*
X3918267Y-2763746D01*
X3938787Y-2780238D01*
X3969761Y-2801695D01*
X3994845Y-2812089D01*
X4029677Y-2822780D01*
X4060265Y-2834152D01*
X4092457Y-2846524D01*
X4114800Y-2853948D01*
X4136743Y-2856678D01*
X4177613Y-2859096D01*
X4230940Y-2861067D01*
X4290254Y-2862460D01*
X4349082Y-2863140D01*
X4400953Y-2862975D01*
X4439398Y-2861831D01*
X4451350Y-2860876D01*
X4485471Y-2855103D01*
X4508500Y-2848685D01*
X4536359Y-2839467D01*
X4544496Y-2837498D01*
X4571737Y-2828047D01*
X4610217Y-2810320D01*
X4651638Y-2788691D01*
X4687699Y-2767535D01*
X4710098Y-2751225D01*
X4711943Y-2749258D01*
X4732463Y-2733337D01*
X4742965Y-2730500D01*
X4760027Y-2721447D01*
X4785459Y-2698165D01*
X4814425Y-2666467D01*
X4842088Y-2632166D01*
X4863612Y-2601076D01*
X4874158Y-2579009D01*
X4873830Y-2573217D01*
X4878733Y-2561202D01*
X4892778Y-2543394D01*
X4907471Y-2524058D01*
X4903979Y-2509803D01*
X4889603Y-2495643D01*
X4871286Y-2482288D01*
X4864100Y-2483095D01*
X4856102Y-2483349D01*
X4836731Y-2469544D01*
X4835525Y-2468493D01*
X4803951Y-2445375D01*
X4764820Y-2422931D01*
X4725364Y-2404544D01*
X4692814Y-2393596D01*
X4674702Y-2393269D01*
X4661612Y-2411788D01*
X4660900Y-2417054D01*
X4652884Y-2435909D01*
X4633251Y-2462039D01*
X4629902Y-2465739D01*
X4611497Y-2489532D01*
X4605819Y-2505378D01*
X4606619Y-2506885D01*
X4603615Y-2513521D01*
X4594722Y-2514600D01*
X4570610Y-2523649D01*
X4559106Y-2533884D01*
X4535337Y-2553122D01*
X4499020Y-2573932D01*
X4461806Y-2590159D01*
X4442812Y-2595311D01*
X4417638Y-2602925D01*
X4413250Y-2605133D01*
X4393137Y-2609655D01*
X4356721Y-2612347D01*
X4311259Y-2613290D01*
X4264008Y-2612562D01*
X4222226Y-2610242D01*
X4193167Y-2606410D01*
X4184118Y-2602637D01*
X4166856Y-2592727D01*
X4148976Y-2589871D01*
X4105366Y-2578092D01*
X4061326Y-2549872D01*
X4026961Y-2511881D01*
X4024319Y-2507585D01*
X4011080Y-2474124D01*
X4003328Y-2433338D01*
X4001689Y-2393971D01*
X4006792Y-2364765D01*
X4013408Y-2355721D01*
X4021050Y-2340998D01*
X4019496Y-2336712D01*
X4025513Y-2324496D01*
X4048528Y-2304362D01*
X4082885Y-2279878D01*
X4122927Y-2254611D01*
X4162999Y-2232130D01*
X4197444Y-2216003D01*
X4220607Y-2209800D01*
X4220668Y-2209800D01*
X4236056Y-2205414D01*
X4263199Y-2194989D01*
X4290421Y-2184085D01*
X4305300Y-2178808D01*
X4329743Y-2172776D01*
X4366948Y-2162861D01*
X4407274Y-2151720D01*
X4441077Y-2142011D01*
X4457700Y-2136790D01*
X4485720Y-2128165D01*
X4493617Y-2126309D01*
X4519920Y-2118305D01*
X4531717Y-2113620D01*
X4561722Y-2103146D01*
X4572901Y-2100368D01*
X4622044Y-2081747D01*
X4676320Y-2047386D01*
X4730112Y-2002549D01*
X4777802Y-1952498D01*
X4813772Y-1902498D01*
X4832404Y-1857810D01*
X4832540Y-1857120D01*
X4837042Y-1838460D01*
X4838700Y-1835150D01*
X4843428Y-1823840D01*
X4848948Y-1795285D01*
X4853885Y-1757548D01*
X4856018Y-1733550D01*
X4851580Y-1651101D01*
X4828835Y-1565932D01*
X4824187Y-1554184D01*
X4813183Y-1525451D01*
X4808015Y-1507883D01*
X4798483Y-1492583D01*
X4775152Y-1465843D01*
X4743359Y-1432922D01*
X4708444Y-1399079D01*
X4675745Y-1369574D01*
X4650600Y-1349666D01*
X4642743Y-1345048D01*
X4612300Y-1329767D01*
X4597400Y-1320822D01*
X4569057Y-1305926D01*
X4528720Y-1289012D01*
X4488773Y-1275199D01*
X4483100Y-1273579D01*
X4462790Y-1270913D01*
X4423591Y-1267971D01*
X4372007Y-1265191D01*
X4337050Y-1263755D01*
X4203263Y-1268881D01*
X4203263Y-1268881D01*
G37*
X4203263Y-1268881D02*
X4084078Y-1294658D01*
X3978997Y-1341312D01*
X3887524Y-1409067D01*
X3809163Y-1498150D01*
X3803650Y-1505912D01*
X3776065Y-1549992D01*
X3766651Y-1577282D01*
X3775519Y-1587437D01*
X3777105Y-1587500D01*
X3798980Y-1596442D01*
X3810037Y-1606593D01*
X3829255Y-1621718D01*
X3863916Y-1642498D01*
X3903395Y-1662889D01*
X3956239Y-1684354D01*
X3991222Y-1689022D01*
X4009580Y-1676841D01*
X4013200Y-1658286D01*
X4023550Y-1636374D01*
X4050287Y-1608291D01*
X4086947Y-1578949D01*
X4127064Y-1553260D01*
X4164172Y-1536138D01*
X4178844Y-1532430D01*
X4204340Y-1525150D01*
X4210050Y-1522404D01*
X4237736Y-1515290D01*
X4281406Y-1512788D01*
X4332121Y-1514606D01*
X4380945Y-1520454D01*
X4416425Y-1529115D01*
X4448481Y-1539166D01*
X4467820Y-1542671D01*
X4470400Y-1541531D01*
X4478641Y-1545792D01*
X4500031Y-1563700D01*
X4524023Y-1585811D01*
X4554607Y-1616797D01*
X4570619Y-1641754D01*
X4576735Y-1671226D01*
X4577645Y-1706768D01*
X4575155Y-1752936D01*
X4565630Y-1784195D01*
X4546248Y-1810449D01*
X4517708Y-1836785D01*
X4490979Y-1854980D01*
X4489450Y-1855705D01*
X4461356Y-1870099D01*
X4426555Y-1889927D01*
X4422775Y-1892200D01*
X4396560Y-1906316D01*
X4382343Y-1910563D01*
X4381500Y-1909536D01*
X4373744Y-1909547D01*
X4364629Y-1915892D01*
X4338242Y-1929460D01*
X4320506Y-1934053D01*
X4294613Y-1941143D01*
X4284461Y-1947006D01*
X4265833Y-1954143D01*
X4248150Y-1955800D01*
X4221775Y-1959798D01*
X4211109Y-1965325D01*
X4194938Y-1974915D01*
X4193117Y-1975155D01*
X4170631Y-1979185D01*
X4133819Y-1988542D01*
X4092420Y-2000438D01*
X4056176Y-2012083D01*
X4035598Y-2020261D01*
X4007015Y-2030375D01*
X3994150Y-2032000D01*
X3961982Y-2041536D01*
X3920338Y-2067034D01*
X3874561Y-2103825D01*
X3829994Y-2147238D01*
X3791978Y-2192607D01*
X3769070Y-2228705D01*
X3740334Y-2309278D01*
X3729302Y-2400495D01*
X3735991Y-2494769D01*
X3760419Y-2584513D01*
X3768190Y-2602929D01*
X3785645Y-2632642D01*
X3812147Y-2668401D01*
X3842525Y-2704297D01*
X3871608Y-2734423D01*
X3894227Y-2752871D01*
X3902076Y-2755900D01*
X3918267Y-2763746D01*
X3938787Y-2780238D01*
X3969761Y-2801695D01*
X3994845Y-2812089D01*
X4029677Y-2822780D01*
X4060265Y-2834152D01*
X4092457Y-2846524D01*
X4114800Y-2853948D01*
X4136743Y-2856678D01*
X4177613Y-2859096D01*
X4230940Y-2861067D01*
X4290254Y-2862460D01*
X4349082Y-2863140D01*
X4400953Y-2862975D01*
X4439398Y-2861831D01*
X4451350Y-2860876D01*
X4485471Y-2855103D01*
X4508500Y-2848685D01*
X4536359Y-2839467D01*
X4544496Y-2837498D01*
X4571737Y-2828047D01*
X4610217Y-2810320D01*
X4651638Y-2788691D01*
X4687699Y-2767535D01*
X4710098Y-2751225D01*
X4711943Y-2749258D01*
X4732463Y-2733337D01*
X4742965Y-2730500D01*
X4760027Y-2721447D01*
X4785459Y-2698165D01*
X4814425Y-2666467D01*
X4842088Y-2632166D01*
X4863612Y-2601076D01*
X4874158Y-2579009D01*
X4873830Y-2573217D01*
X4878733Y-2561202D01*
X4892778Y-2543394D01*
X4907471Y-2524058D01*
X4903979Y-2509803D01*
X4889603Y-2495643D01*
X4871286Y-2482288D01*
X4864100Y-2483095D01*
X4856102Y-2483349D01*
X4836731Y-2469544D01*
X4835525Y-2468493D01*
X4803951Y-2445375D01*
X4764820Y-2422931D01*
X4725364Y-2404544D01*
X4692814Y-2393596D01*
X4674702Y-2393269D01*
X4661612Y-2411788D01*
X4660900Y-2417054D01*
X4652884Y-2435909D01*
X4633251Y-2462039D01*
X4629902Y-2465739D01*
X4611497Y-2489532D01*
X4605819Y-2505378D01*
X4606619Y-2506885D01*
X4603615Y-2513521D01*
X4594722Y-2514600D01*
X4570610Y-2523649D01*
X4559106Y-2533884D01*
X4535337Y-2553122D01*
X4499020Y-2573932D01*
X4461806Y-2590159D01*
X4442812Y-2595311D01*
X4417638Y-2602925D01*
X4413250Y-2605133D01*
X4393137Y-2609655D01*
X4356721Y-2612347D01*
X4311259Y-2613290D01*
X4264008Y-2612562D01*
X4222226Y-2610242D01*
X4193167Y-2606410D01*
X4184118Y-2602637D01*
X4166856Y-2592727D01*
X4148976Y-2589871D01*
X4105366Y-2578092D01*
X4061326Y-2549872D01*
X4026961Y-2511881D01*
X4024319Y-2507585D01*
X4011080Y-2474124D01*
X4003328Y-2433338D01*
X4001689Y-2393971D01*
X4006792Y-2364765D01*
X4013408Y-2355721D01*
X4021050Y-2340998D01*
X4019496Y-2336712D01*
X4025513Y-2324496D01*
X4048528Y-2304362D01*
X4082885Y-2279878D01*
X4122927Y-2254611D01*
X4162999Y-2232130D01*
X4197444Y-2216003D01*
X4220607Y-2209800D01*
X4220668Y-2209800D01*
X4236056Y-2205414D01*
X4263199Y-2194989D01*
X4290421Y-2184085D01*
X4305300Y-2178808D01*
X4329743Y-2172776D01*
X4366948Y-2162861D01*
X4407274Y-2151720D01*
X4441077Y-2142011D01*
X4457700Y-2136790D01*
X4485720Y-2128165D01*
X4493617Y-2126309D01*
X4519920Y-2118305D01*
X4531717Y-2113620D01*
X4561722Y-2103146D01*
X4572901Y-2100368D01*
X4622044Y-2081747D01*
X4676320Y-2047386D01*
X4730112Y-2002549D01*
X4777802Y-1952498D01*
X4813772Y-1902498D01*
X4832404Y-1857810D01*
X4832540Y-1857120D01*
X4837042Y-1838460D01*
X4838700Y-1835150D01*
X4843428Y-1823840D01*
X4848948Y-1795285D01*
X4853885Y-1757548D01*
X4856018Y-1733550D01*
X4851580Y-1651101D01*
X4828835Y-1565932D01*
X4824187Y-1554184D01*
X4813183Y-1525451D01*
X4808015Y-1507883D01*
X4798483Y-1492583D01*
X4775152Y-1465843D01*
X4743359Y-1432922D01*
X4708444Y-1399079D01*
X4675745Y-1369574D01*
X4650600Y-1349666D01*
X4642743Y-1345048D01*
X4612300Y-1329767D01*
X4597400Y-1320822D01*
X4569057Y-1305926D01*
X4528720Y-1289012D01*
X4488773Y-1275199D01*
X4483100Y-1273579D01*
X4462790Y-1270913D01*
X4423591Y-1267971D01*
X4372007Y-1265191D01*
X4337050Y-1263755D01*
X4203263Y-1268881D01*
G36*
X13194412Y-901700D02*
X13271056Y-903287D01*
X13321824Y-904854D01*
X13353607Y-907409D01*
X13372816Y-911608D01*
X13379450Y-914400D01*
X13396413Y-920208D01*
X13398500Y-920750D01*
X13416387Y-926558D01*
X13417550Y-927100D01*
X13434709Y-931564D01*
X13436890Y-931862D01*
X13452264Y-941048D01*
X13478940Y-963270D01*
X13504763Y-987536D01*
X13550398Y-1043568D01*
X13578999Y-1107493D01*
X13592937Y-1185484D01*
X13594947Y-1222375D01*
X13596948Y-1295400D01*
X13195300Y-1295400D01*
X13195300Y-1548755D01*
X13395325Y-1552252D01*
X13595350Y-1555750D01*
X13595224Y-2832100D01*
X13868400Y-2832100D01*
X13868400Y-1549400D01*
X14109700Y-1549400D01*
X14109700Y-1295400D01*
X13871981Y-1295400D01*
X13864523Y-1190625D01*
X13858769Y-1120198D01*
X13852030Y-1067583D01*
X13842614Y-1025201D01*
X13828829Y-985473D01*
X13808980Y-940822D01*
X13808497Y-939800D01*
X13786831Y-902011D01*
X13756441Y-859007D01*
X13721728Y-815890D01*
X13687094Y-777765D01*
X13656941Y-749734D01*
X13635669Y-736902D01*
X13633249Y-736600D01*
X13613094Y-728457D01*
X13603605Y-720725D01*
X13585400Y-706443D01*
X13578840Y-703785D01*
X13562049Y-698367D01*
X13533531Y-686696D01*
X13531850Y-685959D01*
X13499258Y-672960D01*
X13474700Y-665353D01*
X13415052Y-655674D01*
X13345120Y-647694D01*
X13280021Y-643055D01*
X13265150Y-642587D01*
X13201650Y-641350D01*
X13194412Y-901700D01*
X13194412Y-901700D01*
G37*
X13194412Y-901700D02*
X13271056Y-903287D01*
X13321824Y-904854D01*
X13353607Y-907409D01*
X13372816Y-911608D01*
X13379450Y-914400D01*
X13396413Y-920208D01*
X13398500Y-920750D01*
X13416387Y-926558D01*
X13417550Y-927100D01*
X13434709Y-931564D01*
X13436890Y-931862D01*
X13452264Y-941048D01*
X13478940Y-963270D01*
X13504763Y-987536D01*
X13550398Y-1043568D01*
X13578999Y-1107493D01*
X13592937Y-1185484D01*
X13594947Y-1222375D01*
X13596948Y-1295400D01*
X13195300Y-1295400D01*
X13195300Y-1548755D01*
X13395325Y-1552252D01*
X13595350Y-1555750D01*
X13595224Y-2832100D01*
X13868400Y-2832100D01*
X13868400Y-1549400D01*
X14109700Y-1549400D01*
X14109700Y-1295400D01*
X13871981Y-1295400D01*
X13864523Y-1190625D01*
X13858769Y-1120198D01*
X13852030Y-1067583D01*
X13842614Y-1025201D01*
X13828829Y-985473D01*
X13808980Y-940822D01*
X13808497Y-939800D01*
X13786831Y-902011D01*
X13756441Y-859007D01*
X13721728Y-815890D01*
X13687094Y-777765D01*
X13656941Y-749734D01*
X13635669Y-736902D01*
X13633249Y-736600D01*
X13613094Y-728457D01*
X13603605Y-720725D01*
X13585400Y-706443D01*
X13578840Y-703785D01*
X13562049Y-698367D01*
X13533531Y-686696D01*
X13531850Y-685959D01*
X13499258Y-672960D01*
X13474700Y-665353D01*
X13415052Y-655674D01*
X13345120Y-647694D01*
X13280021Y-643055D01*
X13265150Y-642587D01*
X13201650Y-641350D01*
X13194412Y-901700D01*
G36*
X12248987Y-1401638D02*
X12249746Y-1457203D01*
X12251455Y-1502714D01*
X12253839Y-1532575D01*
X12255883Y-1541316D01*
X12271243Y-1546327D01*
X12303262Y-1551948D01*
X12325598Y-1554778D01*
X12374442Y-1560727D01*
X12408093Y-1566846D01*
X12436671Y-1575407D01*
X12462702Y-1585548D01*
X12489480Y-1595901D01*
X12503606Y-1600200D01*
X12515947Y-1606909D01*
X12542369Y-1624213D01*
X12566601Y-1640971D01*
X12600411Y-1669446D01*
X12633471Y-1704750D01*
X12660358Y-1740171D01*
X12675647Y-1768992D01*
X12677298Y-1778000D01*
X12682428Y-1793058D01*
X12689596Y-1807688D01*
X12701769Y-1838544D01*
X12708603Y-1864838D01*
X12715108Y-1897661D01*
X12719288Y-1917700D01*
X12720286Y-1934473D01*
X12721253Y-1973618D01*
X12722155Y-2032106D01*
X12722961Y-2106908D01*
X12723635Y-2194996D01*
X12724145Y-2293342D01*
X12724429Y-2384425D01*
X12725400Y-2832100D01*
X12992100Y-2832100D01*
X12992100Y-1295400D01*
X12725400Y-1295400D01*
X12725400Y-1416799D01*
X12724145Y-1478231D01*
X12720451Y-1516482D01*
X12714425Y-1530612D01*
X12712493Y-1530221D01*
X12704236Y-1516464D01*
X12705464Y-1512734D01*
X12701583Y-1498195D01*
X12684499Y-1474461D01*
X12679757Y-1469162D01*
X12661273Y-1447251D01*
X12655062Y-1435653D01*
X12655944Y-1435099D01*
X12655718Y-1429092D01*
X12636544Y-1410549D01*
X12597573Y-1378688D01*
X12579037Y-1364198D01*
X12518819Y-1327848D01*
X12443902Y-1297784D01*
X12364851Y-1277679D01*
X12312352Y-1271480D01*
X12248553Y-1268422D01*
X12248987Y-1401638D01*
X12248987Y-1401638D01*
G37*
X12248987Y-1401638D02*
X12249746Y-1457203D01*
X12251455Y-1502714D01*
X12253839Y-1532575D01*
X12255883Y-1541316D01*
X12271243Y-1546327D01*
X12303262Y-1551948D01*
X12325598Y-1554778D01*
X12374442Y-1560727D01*
X12408093Y-1566846D01*
X12436671Y-1575407D01*
X12462702Y-1585548D01*
X12489480Y-1595901D01*
X12503606Y-1600200D01*
X12515947Y-1606909D01*
X12542369Y-1624213D01*
X12566601Y-1640971D01*
X12600411Y-1669446D01*
X12633471Y-1704750D01*
X12660358Y-1740171D01*
X12675647Y-1768992D01*
X12677298Y-1778000D01*
X12682428Y-1793058D01*
X12689596Y-1807688D01*
X12701769Y-1838544D01*
X12708603Y-1864838D01*
X12715108Y-1897661D01*
X12719288Y-1917700D01*
X12720286Y-1934473D01*
X12721253Y-1973618D01*
X12722155Y-2032106D01*
X12722961Y-2106908D01*
X12723635Y-2194996D01*
X12724145Y-2293342D01*
X12724429Y-2384425D01*
X12725400Y-2832100D01*
X12992100Y-2832100D01*
X12992100Y-1295400D01*
X12725400Y-1295400D01*
X12725400Y-1416799D01*
X12724145Y-1478231D01*
X12720451Y-1516482D01*
X12714425Y-1530612D01*
X12712493Y-1530221D01*
X12704236Y-1516464D01*
X12705464Y-1512734D01*
X12701583Y-1498195D01*
X12684499Y-1474461D01*
X12679757Y-1469162D01*
X12661273Y-1447251D01*
X12655062Y-1435653D01*
X12655944Y-1435099D01*
X12655718Y-1429092D01*
X12636544Y-1410549D01*
X12597573Y-1378688D01*
X12579037Y-1364198D01*
X12518819Y-1327848D01*
X12443902Y-1297784D01*
X12364851Y-1277679D01*
X12312352Y-1271480D01*
X12248553Y-1268422D01*
X12248987Y-1401638D01*
G36*
X11722100Y-2832100D02*
X11995203Y-2832100D01*
X11995203Y-1295400D01*
X11722100Y-1295400D01*
X11722100Y-2832100D01*
X11722100Y-2832100D01*
G37*
X11722100Y-2832100D02*
X11995203Y-2832100D01*
X11995203Y-1295400D01*
X11722100Y-1295400D01*
X11722100Y-2832100D01*
G36*
X10210800Y-1384472D02*
X10213610Y-1445906D01*
X10223947Y-1491623D01*
X10244670Y-1530875D01*
X10263764Y-1555750D01*
X10282488Y-1579956D01*
X10311343Y-1619293D01*
X10346155Y-1667904D01*
X10382750Y-1719932D01*
X10416952Y-1769519D01*
X10432038Y-1791846D01*
X10456446Y-1825892D01*
X10479071Y-1853680D01*
X10483637Y-1858521D01*
X10496615Y-1874493D01*
X10496142Y-1879600D01*
X10498535Y-1887992D01*
X10514209Y-1909366D01*
X10526985Y-1924491D01*
X10550321Y-1952871D01*
X10564460Y-1973536D01*
X10566400Y-1978596D01*
X10574268Y-1993094D01*
X10593690Y-2017130D01*
X10598664Y-2022604D01*
X10617076Y-2044755D01*
X10622876Y-2056717D01*
X10621688Y-2057400D01*
X10623681Y-2065362D01*
X10639600Y-2085393D01*
X10648950Y-2095500D01*
X10669256Y-2118737D01*
X10677256Y-2132228D01*
X10676083Y-2133600D01*
X10678112Y-2141692D01*
X10693970Y-2162196D01*
X10705398Y-2174875D01*
X10728995Y-2203027D01*
X10742726Y-2225164D01*
X10744142Y-2230469D01*
X10753036Y-2249615D01*
X10764503Y-2261639D01*
X10781145Y-2279956D01*
X10806599Y-2312996D01*
X10835842Y-2354182D01*
X10840895Y-2361619D01*
X10875162Y-2411417D01*
X10910966Y-2461890D01*
X10940399Y-2501900D01*
X10964302Y-2534747D01*
X10980429Y-2559541D01*
X10984657Y-2568575D01*
X10972671Y-2570895D01*
X10938293Y-2573011D01*
X10884531Y-2574852D01*
X10814393Y-2576346D01*
X10730887Y-2577423D01*
X10637020Y-2578010D01*
X10581949Y-2578100D01*
X10178397Y-2578100D01*
X10178886Y-2701925D01*
X10179376Y-2825750D01*
X10770176Y-2829048D01*
X11360977Y-2832347D01*
X11360135Y-2740148D01*
X11356432Y-2677401D01*
X11344033Y-2628862D01*
X11318995Y-2584618D01*
X11279261Y-2536825D01*
X11261574Y-2514603D01*
X11256983Y-2502591D01*
X11258550Y-2501900D01*
X11258320Y-2493852D01*
X11243986Y-2473841D01*
X11237974Y-2466975D01*
X11209893Y-2432795D01*
X11180700Y-2392648D01*
X11175273Y-2384511D01*
X11154608Y-2355804D01*
X11138665Y-2338839D01*
X11134725Y-2336886D01*
X11125600Y-2326902D01*
X11125200Y-2322933D01*
X11119488Y-2306709D01*
X11101231Y-2278476D01*
X11068752Y-2235850D01*
X11031810Y-2190283D01*
X11012116Y-2164254D01*
X11003559Y-2148475D01*
X11004550Y-2146300D01*
X11002791Y-2137713D01*
X10988079Y-2115948D01*
X10977291Y-2102316D01*
X10932352Y-2046596D01*
X10902965Y-2007155D01*
X10887451Y-1981612D01*
X10883900Y-1969666D01*
X10877100Y-1956319D01*
X10874375Y-1955713D01*
X10862299Y-1945963D01*
X10842945Y-1921470D01*
X10833828Y-1908088D01*
X10806015Y-1868757D01*
X10776651Y-1831890D01*
X10771127Y-1825625D01*
X10753513Y-1803386D01*
X10748987Y-1791382D01*
X10750550Y-1790700D01*
X10750320Y-1782652D01*
X10735986Y-1762641D01*
X10729974Y-1755775D01*
X10701893Y-1721595D01*
X10672700Y-1681448D01*
X10667273Y-1673311D01*
X10646608Y-1644604D01*
X10630665Y-1627639D01*
X10626725Y-1625686D01*
X10617728Y-1615599D01*
X10617200Y-1610725D01*
X10609345Y-1590468D01*
X10596182Y-1572625D01*
X10591082Y-1565995D01*
X10590832Y-1560763D01*
X10597964Y-1556763D01*
X10615007Y-1553831D01*
X10644492Y-1551802D01*
X10688949Y-1550509D01*
X10750908Y-1549788D01*
X10832900Y-1549473D01*
X10937455Y-1549400D01*
X11328400Y-1549400D01*
X11328400Y-1295400D01*
X10210800Y-1295400D01*
X10210800Y-1384472D01*
X10210800Y-1384472D01*
G37*
X10210800Y-1384472D02*
X10213610Y-1445906D01*
X10223947Y-1491623D01*
X10244670Y-1530875D01*
X10263764Y-1555750D01*
X10282488Y-1579956D01*
X10311343Y-1619293D01*
X10346155Y-1667904D01*
X10382750Y-1719932D01*
X10416952Y-1769519D01*
X10432038Y-1791846D01*
X10456446Y-1825892D01*
X10479071Y-1853680D01*
X10483637Y-1858521D01*
X10496615Y-1874493D01*
X10496142Y-1879600D01*
X10498535Y-1887992D01*
X10514209Y-1909366D01*
X10526985Y-1924491D01*
X10550321Y-1952871D01*
X10564460Y-1973536D01*
X10566400Y-1978596D01*
X10574268Y-1993094D01*
X10593690Y-2017130D01*
X10598664Y-2022604D01*
X10617076Y-2044755D01*
X10622876Y-2056717D01*
X10621688Y-2057400D01*
X10623681Y-2065362D01*
X10639600Y-2085393D01*
X10648950Y-2095500D01*
X10669256Y-2118737D01*
X10677256Y-2132228D01*
X10676083Y-2133600D01*
X10678112Y-2141692D01*
X10693970Y-2162196D01*
X10705398Y-2174875D01*
X10728995Y-2203027D01*
X10742726Y-2225164D01*
X10744142Y-2230469D01*
X10753036Y-2249615D01*
X10764503Y-2261639D01*
X10781145Y-2279956D01*
X10806599Y-2312996D01*
X10835842Y-2354182D01*
X10840895Y-2361619D01*
X10875162Y-2411417D01*
X10910966Y-2461890D01*
X10940399Y-2501900D01*
X10964302Y-2534747D01*
X10980429Y-2559541D01*
X10984657Y-2568575D01*
X10972671Y-2570895D01*
X10938293Y-2573011D01*
X10884531Y-2574852D01*
X10814393Y-2576346D01*
X10730887Y-2577423D01*
X10637020Y-2578010D01*
X10581949Y-2578100D01*
X10178397Y-2578100D01*
X10178886Y-2701925D01*
X10179376Y-2825750D01*
X10770176Y-2829048D01*
X11360977Y-2832347D01*
X11360135Y-2740148D01*
X11356432Y-2677401D01*
X11344033Y-2628862D01*
X11318995Y-2584618D01*
X11279261Y-2536825D01*
X11261574Y-2514603D01*
X11256983Y-2502591D01*
X11258550Y-2501900D01*
X11258320Y-2493852D01*
X11243986Y-2473841D01*
X11237974Y-2466975D01*
X11209893Y-2432795D01*
X11180700Y-2392648D01*
X11175273Y-2384511D01*
X11154608Y-2355804D01*
X11138665Y-2338839D01*
X11134725Y-2336886D01*
X11125600Y-2326902D01*
X11125200Y-2322933D01*
X11119488Y-2306709D01*
X11101231Y-2278476D01*
X11068752Y-2235850D01*
X11031810Y-2190283D01*
X11012116Y-2164254D01*
X11003559Y-2148475D01*
X11004550Y-2146300D01*
X11002791Y-2137713D01*
X10988079Y-2115948D01*
X10977291Y-2102316D01*
X10932352Y-2046596D01*
X10902965Y-2007155D01*
X10887451Y-1981612D01*
X10883900Y-1969666D01*
X10877100Y-1956319D01*
X10874375Y-1955713D01*
X10862299Y-1945963D01*
X10842945Y-1921470D01*
X10833828Y-1908088D01*
X10806015Y-1868757D01*
X10776651Y-1831890D01*
X10771127Y-1825625D01*
X10753513Y-1803386D01*
X10748987Y-1791382D01*
X10750550Y-1790700D01*
X10750320Y-1782652D01*
X10735986Y-1762641D01*
X10729974Y-1755775D01*
X10701893Y-1721595D01*
X10672700Y-1681448D01*
X10667273Y-1673311D01*
X10646608Y-1644604D01*
X10630665Y-1627639D01*
X10626725Y-1625686D01*
X10617728Y-1615599D01*
X10617200Y-1610725D01*
X10609345Y-1590468D01*
X10596182Y-1572625D01*
X10591082Y-1565995D01*
X10590832Y-1560763D01*
X10597964Y-1556763D01*
X10615007Y-1553831D01*
X10644492Y-1551802D01*
X10688949Y-1550509D01*
X10750908Y-1549788D01*
X10832900Y-1549473D01*
X10937455Y-1549400D01*
X11328400Y-1549400D01*
X11328400Y-1295400D01*
X10210800Y-1295400D01*
X10210800Y-1384472D01*
G36*
X8801100Y-1386160D02*
X8802367Y-1436977D01*
X8808130Y-1473005D01*
X8821336Y-1504811D01*
X8844764Y-1542702D01*
X8871274Y-1580537D01*
X8895179Y-1611099D01*
X8908264Y-1624947D01*
X8924777Y-1645010D01*
X8928159Y-1655730D01*
X8936269Y-1673074D01*
X8956604Y-1699820D01*
X8966903Y-1711325D01*
X8988004Y-1735798D01*
X8997218Y-1750595D01*
X8996218Y-1752600D01*
X8998129Y-1760559D01*
X9013997Y-1780584D01*
X9023350Y-1790700D01*
X9043686Y-1813941D01*
X9051752Y-1827430D01*
X9050613Y-1828800D01*
X9052161Y-1836813D01*
X9067462Y-1856740D01*
X9073637Y-1863595D01*
X9094692Y-1888549D01*
X9105515Y-1905767D01*
X9105900Y-1907603D01*
X9113603Y-1921830D01*
X9133125Y-1947369D01*
X9145316Y-1961708D01*
X9166798Y-1987792D01*
X9177398Y-2003985D01*
X9177150Y-2006600D01*
X9178885Y-2014750D01*
X9193558Y-2034435D01*
X9194193Y-2035175D01*
X9209067Y-2053130D01*
X9226463Y-2075812D01*
X9249066Y-2106946D01*
X9279562Y-2150257D01*
X9320635Y-2209470D01*
X9339202Y-2236374D01*
X9369042Y-2278181D01*
X9395706Y-2312953D01*
X9414233Y-2334277D01*
X9416514Y-2336354D01*
X9432891Y-2356384D01*
X9436159Y-2366930D01*
X9444269Y-2384274D01*
X9464604Y-2411020D01*
X9474903Y-2422525D01*
X9496004Y-2446998D01*
X9505218Y-2461795D01*
X9504218Y-2463800D01*
X9506129Y-2471759D01*
X9521997Y-2491784D01*
X9531350Y-2501900D01*
X9551447Y-2525112D01*
X9558987Y-2538610D01*
X9557572Y-2540000D01*
X9555719Y-2547768D01*
X9562951Y-2558869D01*
X9564917Y-2564147D01*
X9559549Y-2568417D01*
X9544454Y-2571816D01*
X9517240Y-2574479D01*
X9475516Y-2576545D01*
X9416889Y-2578150D01*
X9338968Y-2579429D01*
X9239360Y-2580521D01*
X9174142Y-2581094D01*
X8769672Y-2584450D01*
X8769184Y-2708275D01*
X8768697Y-2832100D01*
X9959490Y-2832100D01*
X9954970Y-2732617D01*
X9951705Y-2680573D01*
X9945963Y-2645742D01*
X9935183Y-2619936D01*
X9916806Y-2594966D01*
X9909175Y-2586125D01*
X9885221Y-2557121D01*
X9870328Y-2535774D01*
X9867900Y-2529903D01*
X9860033Y-2515405D01*
X9840611Y-2491369D01*
X9835637Y-2485895D01*
X9817225Y-2463744D01*
X9811425Y-2451782D01*
X9812613Y-2451100D01*
X9811180Y-2443001D01*
X9796131Y-2422879D01*
X9790233Y-2416175D01*
X9764185Y-2384140D01*
X9734501Y-2343091D01*
X9721850Y-2324100D01*
X9693759Y-2283236D01*
X9664801Y-2245325D01*
X9653468Y-2232025D01*
X9635270Y-2209707D01*
X9629423Y-2197741D01*
X9630490Y-2197100D01*
X9629512Y-2188980D01*
X9615223Y-2169359D01*
X9614508Y-2168525D01*
X9588978Y-2137018D01*
X9556871Y-2093751D01*
X9515762Y-2035369D01*
X9469601Y-1967919D01*
X9440092Y-1926029D01*
X9413534Y-1891134D01*
X9394959Y-1869792D01*
X9392903Y-1867939D01*
X9376141Y-1847810D01*
X9372542Y-1836769D01*
X9364432Y-1819425D01*
X9344097Y-1792679D01*
X9333798Y-1781175D01*
X9312697Y-1756701D01*
X9303483Y-1741904D01*
X9304483Y-1739900D01*
X9303135Y-1731804D01*
X9288137Y-1711689D01*
X9282233Y-1704975D01*
X9257469Y-1675049D01*
X9230490Y-1638634D01*
X9205885Y-1602455D01*
X9188241Y-1573234D01*
X9182100Y-1558242D01*
X9194274Y-1555990D01*
X9228690Y-1553950D01*
X9282191Y-1552198D01*
X9351620Y-1550807D01*
X9433819Y-1549856D01*
X9525632Y-1549419D01*
X9550400Y-1549400D01*
X9918700Y-1549400D01*
X9918700Y-1295400D01*
X8801100Y-1295400D01*
X8801100Y-1386160D01*
X8801100Y-1386160D01*
G37*
X8801100Y-1386160D02*
X8802367Y-1436977D01*
X8808130Y-1473005D01*
X8821336Y-1504811D01*
X8844764Y-1542702D01*
X8871274Y-1580537D01*
X8895179Y-1611099D01*
X8908264Y-1624947D01*
X8924777Y-1645010D01*
X8928159Y-1655730D01*
X8936269Y-1673074D01*
X8956604Y-1699820D01*
X8966903Y-1711325D01*
X8988004Y-1735798D01*
X8997218Y-1750595D01*
X8996218Y-1752600D01*
X8998129Y-1760559D01*
X9013997Y-1780584D01*
X9023350Y-1790700D01*
X9043686Y-1813941D01*
X9051752Y-1827430D01*
X9050613Y-1828800D01*
X9052161Y-1836813D01*
X9067462Y-1856740D01*
X9073637Y-1863595D01*
X9094692Y-1888549D01*
X9105515Y-1905767D01*
X9105900Y-1907603D01*
X9113603Y-1921830D01*
X9133125Y-1947369D01*
X9145316Y-1961708D01*
X9166798Y-1987792D01*
X9177398Y-2003985D01*
X9177150Y-2006600D01*
X9178885Y-2014750D01*
X9193558Y-2034435D01*
X9194193Y-2035175D01*
X9209067Y-2053130D01*
X9226463Y-2075812D01*
X9249066Y-2106946D01*
X9279562Y-2150257D01*
X9320635Y-2209470D01*
X9339202Y-2236374D01*
X9369042Y-2278181D01*
X9395706Y-2312953D01*
X9414233Y-2334277D01*
X9416514Y-2336354D01*
X9432891Y-2356384D01*
X9436159Y-2366930D01*
X9444269Y-2384274D01*
X9464604Y-2411020D01*
X9474903Y-2422525D01*
X9496004Y-2446998D01*
X9505218Y-2461795D01*
X9504218Y-2463800D01*
X9506129Y-2471759D01*
X9521997Y-2491784D01*
X9531350Y-2501900D01*
X9551447Y-2525112D01*
X9558987Y-2538610D01*
X9557572Y-2540000D01*
X9555719Y-2547768D01*
X9562951Y-2558869D01*
X9564917Y-2564147D01*
X9559549Y-2568417D01*
X9544454Y-2571816D01*
X9517240Y-2574479D01*
X9475516Y-2576545D01*
X9416889Y-2578150D01*
X9338968Y-2579429D01*
X9239360Y-2580521D01*
X9174142Y-2581094D01*
X8769672Y-2584450D01*
X8769184Y-2708275D01*
X8768697Y-2832100D01*
X9959490Y-2832100D01*
X9954970Y-2732617D01*
X9951705Y-2680573D01*
X9945963Y-2645742D01*
X9935183Y-2619936D01*
X9916806Y-2594966D01*
X9909175Y-2586125D01*
X9885221Y-2557121D01*
X9870328Y-2535774D01*
X9867900Y-2529903D01*
X9860033Y-2515405D01*
X9840611Y-2491369D01*
X9835637Y-2485895D01*
X9817225Y-2463744D01*
X9811425Y-2451782D01*
X9812613Y-2451100D01*
X9811180Y-2443001D01*
X9796131Y-2422879D01*
X9790233Y-2416175D01*
X9764185Y-2384140D01*
X9734501Y-2343091D01*
X9721850Y-2324100D01*
X9693759Y-2283236D01*
X9664801Y-2245325D01*
X9653468Y-2232025D01*
X9635270Y-2209707D01*
X9629423Y-2197741D01*
X9630490Y-2197100D01*
X9629512Y-2188980D01*
X9615223Y-2169359D01*
X9614508Y-2168525D01*
X9588978Y-2137018D01*
X9556871Y-2093751D01*
X9515762Y-2035369D01*
X9469601Y-1967919D01*
X9440092Y-1926029D01*
X9413534Y-1891134D01*
X9394959Y-1869792D01*
X9392903Y-1867939D01*
X9376141Y-1847810D01*
X9372542Y-1836769D01*
X9364432Y-1819425D01*
X9344097Y-1792679D01*
X9333798Y-1781175D01*
X9312697Y-1756701D01*
X9303483Y-1741904D01*
X9304483Y-1739900D01*
X9303135Y-1731804D01*
X9288137Y-1711689D01*
X9282233Y-1704975D01*
X9257469Y-1675049D01*
X9230490Y-1638634D01*
X9205885Y-1602455D01*
X9188241Y-1573234D01*
X9182100Y-1558242D01*
X9194274Y-1555990D01*
X9228690Y-1553950D01*
X9282191Y-1552198D01*
X9351620Y-1550807D01*
X9433819Y-1549856D01*
X9525632Y-1549419D01*
X9550400Y-1549400D01*
X9918700Y-1549400D01*
X9918700Y-1295400D01*
X8801100Y-1295400D01*
X8801100Y-1386160D01*
G36*
X4724400Y-2749550D02*
X4730750Y-2755900D01*
X4737100Y-2749550D01*
X4730750Y-2743200D01*
X4724400Y-2749550D01*
X4724400Y-2749550D01*
G37*
X4724400Y-2749550D02*
X4730750Y-2755900D01*
X4737100Y-2749550D01*
X4730750Y-2743200D01*
X4724400Y-2749550D01*
G36*
X5232400Y-2444750D02*
X5238750Y-2451100D01*
X5245100Y-2444750D01*
X5238750Y-2438400D01*
X5232400Y-2444750D01*
X5232400Y-2444750D01*
G37*
X5232400Y-2444750D02*
X5238750Y-2451100D01*
X5245100Y-2444750D01*
X5238750Y-2438400D01*
X5232400Y-2444750D01*
G36*
X4622800Y-1327150D02*
X4629150Y-1333500D01*
X4635500Y-1327150D01*
X4629150Y-1320800D01*
X4622800Y-1327150D01*
X4622800Y-1327150D01*
G37*
X4622800Y-1327150D02*
X4629150Y-1333500D01*
X4635500Y-1327150D01*
X4629150Y-1320800D01*
X4622800Y-1327150D01*
G36*
X11813536Y-665242D02*
X11785403Y-673535D01*
X11758241Y-693273D01*
X11735867Y-714604D01*
X11704300Y-748067D01*
X11687658Y-774891D01*
X11681579Y-804967D01*
X11681398Y-838200D01*
X11685220Y-888548D01*
X11695927Y-923714D01*
X11717390Y-953735D01*
X11731524Y-968179D01*
X11762442Y-993880D01*
X11793490Y-1006508D01*
X11836858Y-1010874D01*
X11839936Y-1010973D01*
X11881621Y-1010946D01*
X11914516Y-1008671D01*
X11925300Y-1006573D01*
X11959369Y-985870D01*
X11994411Y-950719D01*
X12022430Y-910433D01*
X12034762Y-879061D01*
X12036534Y-842978D01*
X12031407Y-802844D01*
X12021388Y-766626D01*
X12008485Y-742294D01*
X11998874Y-736600D01*
X11990543Y-731640D01*
X11992429Y-728738D01*
X11991486Y-714987D01*
X11984530Y-706513D01*
X11944950Y-679603D01*
X11896513Y-666395D01*
X11853342Y-663763D01*
X11813536Y-665242D01*
X11813536Y-665242D01*
G37*
X11813536Y-665242D02*
X11785403Y-673535D01*
X11758241Y-693273D01*
X11735867Y-714604D01*
X11704300Y-748067D01*
X11687658Y-774891D01*
X11681579Y-804967D01*
X11681398Y-838200D01*
X11685220Y-888548D01*
X11695927Y-923714D01*
X11717390Y-953735D01*
X11731524Y-968179D01*
X11762442Y-993880D01*
X11793490Y-1006508D01*
X11836858Y-1010874D01*
X11839936Y-1010973D01*
X11881621Y-1010946D01*
X11914516Y-1008671D01*
X11925300Y-1006573D01*
X11959369Y-985870D01*
X11994411Y-950719D01*
X12022430Y-910433D01*
X12034762Y-879061D01*
X12036534Y-842978D01*
X12031407Y-802844D01*
X12021388Y-766626D01*
X12008485Y-742294D01*
X11998874Y-736600D01*
X11990543Y-731640D01*
X11992429Y-728738D01*
X11991486Y-714987D01*
X11984530Y-706513D01*
X11944950Y-679603D01*
X11896513Y-666395D01*
X11853342Y-663763D01*
X11813536Y-665242D01*
G36*
X8980424Y-13840688D02*
X8950287Y-13841477D01*
X8926681Y-13843186D01*
X8906523Y-13846155D01*
X8886729Y-13850725D01*
X8864216Y-13857236D01*
X8861817Y-13857970D01*
X8778040Y-13890226D01*
X8696319Y-13934848D01*
X8616785Y-13991652D01*
X8539569Y-14060452D01*
X8464801Y-14141061D01*
X8392612Y-14233294D01*
X8323132Y-14336966D01*
X8256493Y-14451889D01*
X8192824Y-14577879D01*
X8132257Y-14714749D01*
X8074922Y-14862313D01*
X8020950Y-15020386D01*
X8001935Y-15081250D01*
X7991233Y-15115363D01*
X7981454Y-15144719D01*
X7973293Y-15167375D01*
X7967443Y-15181388D01*
X7964852Y-15185065D01*
X7957291Y-15183390D01*
X7939423Y-15179327D01*
X7913312Y-15173347D01*
X7881025Y-15165923D01*
X7847568Y-15158208D01*
X7663134Y-15119631D01*
X7483710Y-15090143D01*
X7408869Y-15080383D01*
X7358564Y-15075377D01*
X7300885Y-15071351D01*
X7238310Y-15068337D01*
X7173315Y-15066368D01*
X7108378Y-15065476D01*
X7045975Y-15065693D01*
X6988585Y-15067052D01*
X6938685Y-15069585D01*
X6898751Y-15073325D01*
X6896100Y-15073672D01*
X6783537Y-15092498D01*
X6681716Y-15117387D01*
X6590106Y-15148560D01*
X6508172Y-15186241D01*
X6435380Y-15230649D01*
X6371198Y-15282009D01*
X6352475Y-15299864D01*
X6297392Y-15363139D01*
X6253482Y-15432045D01*
X6220667Y-15506322D01*
X6198868Y-15585711D01*
X6188009Y-15669952D01*
X6188010Y-15758786D01*
X6198793Y-15851953D01*
X6220280Y-15949193D01*
X6252394Y-16050247D01*
X6295055Y-16154856D01*
X6348185Y-16262760D01*
X6411707Y-16373700D01*
X6485542Y-16487415D01*
X6569611Y-16603647D01*
X6663838Y-16722136D01*
X6768143Y-16842622D01*
X6841117Y-16921683D01*
X6865511Y-16947743D01*
X6886520Y-16970677D01*
X6902712Y-16988883D01*
X6912655Y-17000756D01*
X6915150Y-17004574D01*
X6910929Y-17011248D01*
X6900162Y-17023185D01*
X6892231Y-17031041D01*
X6879504Y-17043757D01*
X6860518Y-17063434D01*
X6837575Y-17087655D01*
X6812979Y-17114000D01*
X6806030Y-17121516D01*
X6742748Y-17190107D01*
X6779737Y-17214316D01*
X6802036Y-17230080D01*
X6822797Y-17246708D01*
X6835509Y-17258576D01*
X6854292Y-17278627D01*
X6937717Y-17191202D01*
X7021143Y-17103778D01*
X7093559Y-17170895D01*
X7253506Y-17313337D01*
X7425325Y-17455153D01*
X7609418Y-17596676D01*
X7620148Y-17604636D01*
X7664529Y-17637478D01*
X7699790Y-17663621D01*
X7726975Y-17683979D01*
X7747127Y-17699468D01*
X7761289Y-17711003D01*
X7770506Y-17719501D01*
X7775821Y-17725875D01*
X7778278Y-17731042D01*
X7778919Y-17735917D01*
X7778789Y-17741415D01*
X7778754Y-17743758D01*
X7779759Y-17766846D01*
X7782616Y-17800764D01*
X7787095Y-17843813D01*
X7792971Y-17894293D01*
X7800013Y-17950506D01*
X7807995Y-18010753D01*
X7816689Y-18073334D01*
X7825866Y-18136551D01*
X7835299Y-18198705D01*
X7844759Y-18258097D01*
X7854020Y-18313028D01*
X7858596Y-18338800D01*
X7865986Y-18378450D01*
X7874532Y-18422434D01*
X7883783Y-18468606D01*
X7893287Y-18514823D01*
X7902593Y-18558937D01*
X7911249Y-18598805D01*
X7918803Y-18632280D01*
X7924804Y-18657218D01*
X7928300Y-18669953D01*
X7927856Y-18674724D01*
X7922151Y-18679279D01*
X7909454Y-18684275D01*
X7888032Y-18690372D01*
X7856152Y-18698230D01*
X7850415Y-18699589D01*
X7716392Y-18729402D01*
X7591359Y-18753310D01*
X7473197Y-18771569D01*
X7359791Y-18784434D01*
X7249024Y-18792161D01*
X7138778Y-18795007D01*
X7066322Y-18794358D01*
X6992468Y-18791923D01*
X6928488Y-18787886D01*
X6871619Y-18781886D01*
X6819095Y-18773565D01*
X6768153Y-18762562D01*
X6717847Y-18749049D01*
X6634898Y-18719885D01*
X6560965Y-18683470D01*
X6496517Y-18640221D01*
X6442025Y-18590552D01*
X6397959Y-18534878D01*
X6364788Y-18473614D01*
X6346546Y-18421350D01*
X6335502Y-18361631D01*
X6332168Y-18294056D01*
X6336459Y-18220790D01*
X6348286Y-18143999D01*
X6359821Y-18093804D01*
X6366482Y-18067704D01*
X6371717Y-18046315D01*
X6374824Y-18032548D01*
X6375377Y-18029158D01*
X6370026Y-18024222D01*
X6356453Y-18016958D01*
X6347343Y-18012957D01*
X6325914Y-18003023D01*
X6300626Y-17989737D01*
X6284639Y-17980548D01*
X6249946Y-17959657D01*
X6230257Y-18023816D01*
X6214071Y-18079631D01*
X6202470Y-18128010D01*
X6194811Y-18173089D01*
X6190449Y-18219006D01*
X6188741Y-18269898D01*
X6188653Y-18291175D01*
X6189556Y-18342151D01*
X6192504Y-18384432D01*
X6198189Y-18421948D01*
X6207302Y-18458630D01*
X6220535Y-18498410D01*
X6229142Y-18521281D01*
X6263202Y-18591953D01*
X6308362Y-18657260D01*
X6364016Y-18716765D01*
X6429558Y-18770033D01*
X6504385Y-18816628D01*
X6587890Y-18856114D01*
X6679469Y-18888056D01*
X6769100Y-18910156D01*
X6812537Y-18918597D01*
X6851395Y-18925238D01*
X6888178Y-18930282D01*
X6925390Y-18933930D01*
X6965535Y-18936386D01*
X7011118Y-18937851D01*
X7064641Y-18938528D01*
X7121525Y-18938631D01*
X7223505Y-18937003D01*
X7321246Y-18932188D01*
X7417444Y-18923854D01*
X7514794Y-18911669D01*
X7615990Y-18895303D01*
X7723728Y-18874424D01*
X7826375Y-18851989D01*
X7863572Y-18843509D01*
X7897154Y-18835875D01*
X7924893Y-18829592D01*
X7944556Y-18825166D01*
X7953638Y-18823160D01*
X7960332Y-18823199D01*
X7965803Y-18828038D01*
X7971275Y-18839878D01*
X7977971Y-18860921D01*
X7981519Y-18873300D01*
X8022672Y-19009293D01*
X8068477Y-19142622D01*
X8118282Y-19271856D01*
X8171439Y-19395562D01*
X8227298Y-19512308D01*
X8285209Y-19620663D01*
X8344524Y-19719194D01*
X8404592Y-19806469D01*
X8405106Y-19807161D01*
X8478636Y-19898400D01*
X8554571Y-19977466D01*
X8632810Y-20044279D01*
X8713252Y-20098763D01*
X8795797Y-20140839D01*
X8870950Y-20167789D01*
X8905426Y-20175265D01*
X8947881Y-20180689D01*
X8994451Y-20183916D01*
X9041275Y-20184802D01*
X9084488Y-20183204D01*
X9120226Y-20178978D01*
X9128125Y-20177360D01*
X9212620Y-20151932D01*
X9294265Y-20115197D01*
X9373324Y-20066943D01*
X9450064Y-20006955D01*
X9524748Y-19935021D01*
X9597642Y-19850928D01*
X9669010Y-19754461D01*
X9688055Y-19726262D01*
X9745752Y-19632852D01*
X9802533Y-19528450D01*
X9857654Y-19414764D01*
X9910374Y-19293499D01*
X9959948Y-19166363D01*
X10005635Y-19035063D01*
X10045932Y-18903950D01*
X10054484Y-18875035D01*
X10062185Y-18850571D01*
X10068181Y-18833171D01*
X10071581Y-18825488D01*
X10079068Y-18825005D01*
X10096615Y-18827264D01*
X10121978Y-18831878D01*
X10152908Y-18838459D01*
X10170517Y-18842548D01*
X10261562Y-18863193D01*
X10353452Y-18882006D01*
X10441420Y-18898045D01*
X10496550Y-18906885D01*
X10526086Y-18911333D01*
X10552509Y-18915357D01*
X10572291Y-18918415D01*
X10580129Y-18919665D01*
X10597032Y-18922458D01*
X10596004Y-18849734D01*
X10595054Y-18782557D01*
X9931400Y-18782557D01*
X9929496Y-18791842D01*
X9924199Y-18811204D01*
X9916129Y-18838671D01*
X9905910Y-18872272D01*
X9894162Y-18910034D01*
X9881507Y-18949987D01*
X9868568Y-18990158D01*
X9855966Y-19028577D01*
X9844322Y-19063270D01*
X9834259Y-19092267D01*
X9830107Y-19103763D01*
X9775161Y-19244352D01*
X9717743Y-19374344D01*
X9658014Y-19493523D01*
X9596134Y-19601672D01*
X9532263Y-19698573D01*
X9466563Y-19784010D01*
X9399195Y-19857765D01*
X9330319Y-19919623D01*
X9260095Y-19969365D01*
X9188685Y-20006775D01*
X9149982Y-20021674D01*
X9082264Y-20038590D01*
X9014476Y-20043384D01*
X8944845Y-20036123D01*
X8918575Y-20030471D01*
X8851334Y-20007909D01*
X8783789Y-19972998D01*
X8716329Y-19926073D01*
X8649338Y-19867468D01*
X8583203Y-19797516D01*
X8518312Y-19716550D01*
X8463145Y-19637375D01*
X8436664Y-19594537D01*
X8407022Y-19542460D01*
X8375546Y-19483782D01*
X8343565Y-19421144D01*
X8312407Y-19357186D01*
X8283401Y-19294546D01*
X8257874Y-19235866D01*
X8244286Y-19202400D01*
X8228882Y-19162066D01*
X8212623Y-19117596D01*
X8196000Y-19070520D01*
X8179503Y-19022370D01*
X8163624Y-18974676D01*
X8148853Y-18928969D01*
X8135681Y-18886780D01*
X8124598Y-18849640D01*
X8116096Y-18819079D01*
X8110665Y-18796630D01*
X8108796Y-18783822D01*
X8109367Y-18781500D01*
X8115846Y-18779094D01*
X8132950Y-18773205D01*
X8159238Y-18764317D01*
X8193270Y-18752913D01*
X8233606Y-18739477D01*
X8278805Y-18724492D01*
X8308975Y-18714525D01*
X8434523Y-18671566D01*
X8562828Y-18624770D01*
X8689998Y-18575640D01*
X8812139Y-18525676D01*
X8917509Y-18479909D01*
X9018042Y-18434813D01*
X9111184Y-18476292D01*
X9182134Y-18507220D01*
X9258155Y-18539148D01*
X9337600Y-18571462D01*
X9418820Y-18603549D01*
X9500165Y-18634793D01*
X9579988Y-18664581D01*
X9656641Y-18692299D01*
X9728473Y-18717331D01*
X9793838Y-18739065D01*
X9851086Y-18756885D01*
X9898568Y-18770178D01*
X9902856Y-18771270D01*
X9919727Y-18776316D01*
X9929972Y-18780920D01*
X9931400Y-18782557D01*
X10595054Y-18782557D01*
X10594975Y-18777009D01*
X10575925Y-18773789D01*
X10559822Y-18771208D01*
X10536400Y-18767618D01*
X10512425Y-18764045D01*
X10460824Y-18755746D01*
X10400976Y-18744919D01*
X10336895Y-18732359D01*
X10272592Y-18718854D01*
X10212081Y-18705198D01*
X10202207Y-18702857D01*
X10107888Y-18680323D01*
X10111414Y-18663549D01*
X10113842Y-18652192D01*
X10118475Y-18630696D01*
X10124821Y-18601335D01*
X10132389Y-18566379D01*
X10140688Y-18528102D01*
X10140726Y-18527924D01*
X10162215Y-18423399D01*
X10183157Y-18310978D01*
X10202691Y-18195462D01*
X10216782Y-18103670D01*
X10220270Y-18078588D01*
X10224582Y-18045692D01*
X10229483Y-18006974D01*
X10234735Y-17964428D01*
X10240105Y-17920044D01*
X10245354Y-17875818D01*
X10250249Y-17833740D01*
X10251309Y-17824388D01*
X10107065Y-17824388D01*
X10098655Y-17895856D01*
X10081374Y-18030854D01*
X10061305Y-18166773D01*
X10039025Y-18300155D01*
X10015107Y-18427543D01*
X9991746Y-18538290D01*
X9984222Y-18572025D01*
X9977786Y-18601163D01*
X9972906Y-18623561D01*
X9970050Y-18637080D01*
X9969500Y-18640082D01*
X9963680Y-18639658D01*
X9946936Y-18635409D01*
X9920348Y-18627665D01*
X9884995Y-18616755D01*
X9841954Y-18603010D01*
X9792305Y-18586759D01*
X9760279Y-18576105D01*
X9610157Y-18523556D01*
X9457226Y-18465604D01*
X9311616Y-18406226D01*
X9196084Y-18357317D01*
X8839577Y-18357317D01*
X8838804Y-18357945D01*
X8827903Y-18363136D01*
X8807093Y-18372239D01*
X8778267Y-18384479D01*
X8743316Y-18399079D01*
X8704135Y-18415260D01*
X8662616Y-18432246D01*
X8620652Y-18449261D01*
X8580135Y-18465526D01*
X8542958Y-18480265D01*
X8511015Y-18492700D01*
X8504582Y-18495162D01*
X8470496Y-18507867D01*
X8430583Y-18522267D01*
X8386514Y-18537806D01*
X8339962Y-18553924D01*
X8292597Y-18570064D01*
X8246093Y-18585667D01*
X8202121Y-18600176D01*
X8162353Y-18613032D01*
X8128462Y-18623678D01*
X8102119Y-18631554D01*
X8084996Y-18636104D01*
X8079629Y-18637012D01*
X8070790Y-18634823D01*
X8064845Y-18625903D01*
X8059839Y-18607302D01*
X8059793Y-18607087D01*
X8039448Y-18509963D01*
X8021776Y-18423049D01*
X8006405Y-18344228D01*
X7992962Y-18271380D01*
X7981074Y-18202388D01*
X7970369Y-18135132D01*
X7960472Y-18067495D01*
X7951011Y-17997359D01*
X7947182Y-17967473D01*
X7942294Y-17928416D01*
X7938006Y-17893441D01*
X7934563Y-17864588D01*
X7932205Y-17843893D01*
X7931176Y-17833395D01*
X7931150Y-17832749D01*
X7936121Y-17833273D01*
X7949833Y-17839883D01*
X7970484Y-17851585D01*
X7996276Y-17867383D01*
X8012113Y-17877530D01*
X8139518Y-17958464D01*
X8273090Y-18039731D01*
X8409542Y-18119437D01*
X8545587Y-18195691D01*
X8677937Y-18266599D01*
X8768975Y-18313221D01*
X8802706Y-18330628D01*
X8825317Y-18343524D01*
X8837408Y-18352293D01*
X8839577Y-18357317D01*
X9196084Y-18357317D01*
X9189673Y-18354603D01*
X9317649Y-18287964D01*
X9522057Y-18178413D01*
X9718281Y-18066704D01*
X9910826Y-17950197D01*
X10090670Y-17835141D01*
X10107065Y-17824388D01*
X10251309Y-17824388D01*
X10254551Y-17795804D01*
X10258027Y-17764002D01*
X10260438Y-17740327D01*
X10261551Y-17726772D01*
X10261598Y-17725224D01*
X10266515Y-17719359D01*
X10280152Y-17707519D01*
X10300844Y-17691036D01*
X10326926Y-17671244D01*
X10352088Y-17652815D01*
X10469482Y-17565962D01*
X10587349Y-17474568D01*
X10702404Y-17381277D01*
X10811361Y-17288735D01*
X10879626Y-17228186D01*
X10908891Y-17201777D01*
X10937208Y-17176330D01*
X10962252Y-17153924D01*
X10981701Y-17136641D01*
X10990136Y-17129230D01*
X11019196Y-17103936D01*
X11075695Y-17164155D01*
X11189914Y-17290286D01*
X11293036Y-17413337D01*
X11384955Y-17533138D01*
X11465566Y-17649520D01*
X11534763Y-17762314D01*
X11592440Y-17871349D01*
X11638492Y-17976457D01*
X11672813Y-18077469D01*
X11690811Y-18150536D01*
X11700869Y-18217727D01*
X11704231Y-18285409D01*
X11701094Y-18351004D01*
X11691658Y-18411935D01*
X11676121Y-18465624D01*
X11664473Y-18492273D01*
X11627015Y-18552863D01*
X11580194Y-18606624D01*
X11526035Y-18651267D01*
X11520777Y-18654821D01*
X11503362Y-18667132D01*
X11491211Y-18677151D01*
X11487150Y-18682289D01*
X11488646Y-18690788D01*
X11492521Y-18707531D01*
X11496675Y-18723999D01*
X11502195Y-18751449D01*
X11505633Y-18780590D01*
X11506200Y-18794159D01*
X11507030Y-18812868D01*
X11509163Y-18825062D01*
X11511064Y-18827750D01*
X11520716Y-18824291D01*
X11538103Y-18814991D01*
X11560674Y-18801459D01*
X11585882Y-18785307D01*
X11611177Y-18768145D01*
X11634010Y-18751586D01*
X11644417Y-18743462D01*
X11695492Y-18695294D01*
X11742137Y-18637953D01*
X11782044Y-18574788D01*
X11812902Y-18509149D01*
X11820537Y-18488025D01*
X11836002Y-18428007D01*
X11845617Y-18360194D01*
X11849185Y-18288159D01*
X11846511Y-18215479D01*
X11838898Y-18154181D01*
X11815100Y-18048326D01*
X11779191Y-17938979D01*
X11731164Y-17826127D01*
X11671008Y-17709754D01*
X11598717Y-17589847D01*
X11514282Y-17466391D01*
X11417693Y-17339373D01*
X11308943Y-17208778D01*
X11197762Y-17085046D01*
X11121993Y-17003484D01*
X10914993Y-17003484D01*
X10834359Y-17076677D01*
X10776376Y-17128866D01*
X10722894Y-17175957D01*
X10670313Y-17221033D01*
X10615031Y-17267178D01*
X10553447Y-17317475D01*
X10547350Y-17322409D01*
X10510624Y-17351854D01*
X10472445Y-17382002D01*
X10434183Y-17411816D01*
X10397209Y-17440258D01*
X10362893Y-17466293D01*
X10332604Y-17488882D01*
X10307712Y-17506989D01*
X10289589Y-17519577D01*
X10279603Y-17525610D01*
X10278375Y-17525986D01*
X10275436Y-17520836D01*
X10276376Y-17511712D01*
X10277463Y-17502000D01*
X10278907Y-17481256D01*
X10280622Y-17451141D01*
X10282521Y-17413317D01*
X10284519Y-17369444D01*
X10286531Y-17321183D01*
X10287458Y-17297400D01*
X10289686Y-17223481D01*
X10291110Y-17141784D01*
X10291752Y-17054893D01*
X10291720Y-17029737D01*
X10144284Y-17029737D01*
X10144143Y-17114134D01*
X10143526Y-17196637D01*
X10142434Y-17275963D01*
X10140867Y-17350828D01*
X10138825Y-17419947D01*
X10136307Y-17482038D01*
X10133314Y-17535815D01*
X10129846Y-17579996D01*
X10125903Y-17613296D01*
X10124149Y-17623509D01*
X10121654Y-17630066D01*
X10115859Y-17637692D01*
X10105581Y-17647298D01*
X10089636Y-17659798D01*
X10066841Y-17676104D01*
X10036010Y-17697129D01*
X9995962Y-17723787D01*
X9983136Y-17732252D01*
X9856389Y-17813862D01*
X9722419Y-17896526D01*
X9586057Y-17977310D01*
X9480550Y-18037460D01*
X9454205Y-18051968D01*
X9421118Y-18069814D01*
X9382725Y-18090256D01*
X9340461Y-18112555D01*
X9295759Y-18135969D01*
X9250055Y-18159757D01*
X9204783Y-18183178D01*
X9161378Y-18205492D01*
X9121274Y-18225956D01*
X9085907Y-18243831D01*
X9056709Y-18258374D01*
X9035118Y-18268846D01*
X9022565Y-18274505D01*
X9020081Y-18275300D01*
X9013720Y-18272552D01*
X8997451Y-18264778D01*
X8972699Y-18252679D01*
X8940892Y-18236960D01*
X8903456Y-18218322D01*
X8861816Y-18197468D01*
X8846887Y-18189964D01*
X8679884Y-18103816D01*
X8521570Y-18017601D01*
X8368114Y-17929109D01*
X8215687Y-17836131D01*
X8060461Y-17736457D01*
X8057367Y-17734423D01*
X7913709Y-17639944D01*
X7909762Y-17590909D01*
X7904035Y-17512213D01*
X7903599Y-17504550D01*
X7758674Y-17504550D01*
X7758592Y-17519916D01*
X7757070Y-17525995D01*
X7757006Y-17526000D01*
X7750742Y-17522371D01*
X7736228Y-17512369D01*
X7715317Y-17497316D01*
X7689860Y-17478535D01*
X7675304Y-17467632D01*
X7598290Y-17408632D01*
X7519078Y-17346054D01*
X7439879Y-17281735D01*
X7362903Y-17217516D01*
X7290361Y-17155233D01*
X7224462Y-17096726D01*
X7179313Y-17055099D01*
X7122800Y-17001923D01*
X7214238Y-16919170D01*
X7297335Y-16844894D01*
X7375411Y-16777201D01*
X7451930Y-16713222D01*
X7530355Y-16650090D01*
X7614150Y-16584937D01*
X7660621Y-16549590D01*
X7690483Y-16527266D01*
X7716768Y-16508080D01*
X7737858Y-16493175D01*
X7752138Y-16483693D01*
X7757990Y-16480776D01*
X7758010Y-16480792D01*
X7758463Y-16487622D01*
X7758301Y-16505399D01*
X7757579Y-16532389D01*
X7756350Y-16566856D01*
X7754667Y-16607064D01*
X7753018Y-16642434D01*
X7751650Y-16678707D01*
X7750549Y-16724589D01*
X7749709Y-16778505D01*
X7749120Y-16838883D01*
X7748775Y-16904149D01*
X7748667Y-16972730D01*
X7748786Y-17043052D01*
X7749125Y-17113541D01*
X7749676Y-17182624D01*
X7750431Y-17248729D01*
X7751382Y-17310280D01*
X7752521Y-17365706D01*
X7753840Y-17413432D01*
X7755330Y-17451885D01*
X7756985Y-17479491D01*
X7757295Y-17483137D01*
X7758674Y-17504550D01*
X7903599Y-17504550D01*
X7899453Y-17431800D01*
X7895949Y-17347621D01*
X7893459Y-17257628D01*
X7891916Y-17159772D01*
X7891255Y-17052005D01*
X7891220Y-17011650D01*
X7891409Y-16926721D01*
X7891974Y-16851647D01*
X7893004Y-16783588D01*
X7894591Y-16719702D01*
X7896824Y-16657147D01*
X7899794Y-16593083D01*
X7903591Y-16524668D01*
X7908304Y-16449060D01*
X7909799Y-16426239D01*
X7913864Y-16364703D01*
X8038395Y-16282819D01*
X8230226Y-16160133D01*
X8420542Y-16045577D01*
X8613574Y-15936712D01*
X8813552Y-15831102D01*
X8887930Y-15793475D01*
X9016034Y-15729373D01*
X9091130Y-15765026D01*
X9201184Y-15819057D01*
X9318718Y-15880064D01*
X9441538Y-15946794D01*
X9567449Y-16017993D01*
X9694258Y-16092408D01*
X9819771Y-16168788D01*
X9941792Y-16245879D01*
X10002045Y-16285113D01*
X10120314Y-16362961D01*
X10124167Y-16396793D01*
X10128304Y-16440458D01*
X10131965Y-16493784D01*
X10135151Y-16555487D01*
X10137862Y-16624284D01*
X10140097Y-16698891D01*
X10141857Y-16778023D01*
X10143141Y-16860398D01*
X10143951Y-16944730D01*
X10144284Y-17029737D01*
X10291720Y-17029737D01*
X10291636Y-16965391D01*
X10290787Y-16875861D01*
X10289227Y-16788887D01*
X10286981Y-16707053D01*
X10284072Y-16632940D01*
X10280827Y-16573741D01*
X10278894Y-16540993D01*
X10277602Y-16513016D01*
X10277030Y-16492126D01*
X10277256Y-16480639D01*
X10277598Y-16479185D01*
X10283828Y-16481569D01*
X10298768Y-16491176D01*
X10321319Y-16507158D01*
X10350385Y-16528670D01*
X10384867Y-16554864D01*
X10423669Y-16584894D01*
X10465692Y-16617914D01*
X10509838Y-16653077D01*
X10555011Y-16689535D01*
X10600113Y-16726443D01*
X10626725Y-16748487D01*
X10675362Y-16789161D01*
X10716891Y-16824383D01*
X10754131Y-16856620D01*
X10789902Y-16888344D01*
X10827021Y-16922023D01*
X10868307Y-16960127D01*
X10869284Y-16961035D01*
X10914993Y-17003484D01*
X11121993Y-17003484D01*
X11120705Y-17002098D01*
X11183943Y-16935436D01*
X11302279Y-16805763D01*
X11409574Y-16677922D01*
X11505678Y-16552152D01*
X11590441Y-16428694D01*
X11663713Y-16307786D01*
X11725344Y-16189670D01*
X11775183Y-16074585D01*
X11813080Y-15962771D01*
X11827840Y-15906750D01*
X11837005Y-15858527D01*
X11843657Y-15803898D01*
X11847595Y-15746801D01*
X11848535Y-15695668D01*
X11703865Y-15695668D01*
X11702947Y-15752020D01*
X11698120Y-15808227D01*
X11690781Y-15853839D01*
X11666248Y-15948519D01*
X11630454Y-16047768D01*
X11583737Y-16150984D01*
X11526437Y-16257568D01*
X11458893Y-16366919D01*
X11381444Y-16478438D01*
X11294429Y-16591523D01*
X11230192Y-16668750D01*
X11200091Y-16703459D01*
X11168760Y-16738853D01*
X11137406Y-16773640D01*
X11107235Y-16806530D01*
X11079456Y-16836231D01*
X11055273Y-16861453D01*
X11035894Y-16880905D01*
X11022526Y-16893295D01*
X11016517Y-16897350D01*
X11009739Y-16893230D01*
X10995914Y-16882046D01*
X10977128Y-16865559D01*
X10957772Y-16847710D01*
X10876710Y-16773475D01*
X10786872Y-16695022D01*
X10690599Y-16614266D01*
X10590236Y-16533124D01*
X10488126Y-16453513D01*
X10386611Y-16377349D01*
X10350965Y-16351362D01*
X10317998Y-16327278D01*
X10294039Y-16309030D01*
X10277623Y-16295273D01*
X10267284Y-16284660D01*
X10261558Y-16275846D01*
X10258977Y-16267484D01*
X10258859Y-16266767D01*
X10257066Y-16253321D01*
X10254296Y-16230083D01*
X10250874Y-16199894D01*
X10247391Y-16168012D01*
X10102850Y-16168012D01*
X10100348Y-16170695D01*
X10092116Y-16168465D01*
X10077069Y-16160746D01*
X10054123Y-16146966D01*
X10022191Y-16126548D01*
X10012363Y-16120134D01*
X9977994Y-16097949D01*
X9936171Y-16071447D01*
X9890362Y-16042795D01*
X9844032Y-16014161D01*
X9800648Y-15987711D01*
X9798078Y-15986158D01*
X9711749Y-15934861D01*
X9621536Y-15882764D01*
X9530493Y-15831569D01*
X9441671Y-15782975D01*
X9358124Y-15738684D01*
X9304361Y-15711124D01*
X9270467Y-15693845D01*
X9240836Y-15678366D01*
X9217203Y-15665626D01*
X9201305Y-15656560D01*
X9194878Y-15652109D01*
X9194824Y-15651957D01*
X9195960Y-15651183D01*
X8846596Y-15651183D01*
X8727011Y-15713217D01*
X8586409Y-15787812D01*
X8446142Y-15865437D01*
X8309002Y-15944477D01*
X8177782Y-16023313D01*
X8055274Y-16100330D01*
X8029694Y-16116918D01*
X7999135Y-16136740D01*
X7972506Y-16153799D01*
X7951514Y-16167017D01*
X7937868Y-16175317D01*
X7933273Y-16177688D01*
X7933637Y-16171299D01*
X7935408Y-16154242D01*
X7938366Y-16128449D01*
X7942286Y-16095847D01*
X7946948Y-16058365D01*
X7947667Y-16052686D01*
X7965444Y-15921716D01*
X7984875Y-15797311D01*
X8006942Y-15673354D01*
X8017456Y-15618821D01*
X8026557Y-15573482D01*
X8035879Y-15528606D01*
X8045022Y-15485964D01*
X8053591Y-15447324D01*
X8061185Y-15414458D01*
X8067407Y-15389135D01*
X8071858Y-15373124D01*
X8073839Y-15368244D01*
X8080683Y-15369033D01*
X8097671Y-15373293D01*
X8122911Y-15380440D01*
X8154512Y-15389890D01*
X8190583Y-15401057D01*
X8229232Y-15413358D01*
X8268568Y-15426209D01*
X8306700Y-15439024D01*
X8337550Y-15449735D01*
X8421117Y-15479863D01*
X8505970Y-15511527D01*
X8589536Y-15543715D01*
X8669239Y-15575417D01*
X8742505Y-15605621D01*
X8806758Y-15633316D01*
X8819086Y-15638818D01*
X8846596Y-15651183D01*
X9195960Y-15651183D01*
X9200483Y-15648104D01*
X9216476Y-15640283D01*
X9241295Y-15629117D01*
X9273433Y-15615230D01*
X9311383Y-15599246D01*
X9353638Y-15581790D01*
X9398691Y-15563485D01*
X9445034Y-15544955D01*
X9491161Y-15526824D01*
X9535565Y-15509717D01*
X9566696Y-15497983D01*
X9617959Y-15479185D01*
X9670352Y-15460528D01*
X9722471Y-15442464D01*
X9772909Y-15425443D01*
X9820263Y-15409916D01*
X9863127Y-15396334D01*
X9900096Y-15385149D01*
X9929765Y-15376811D01*
X9950729Y-15371771D01*
X9961583Y-15370480D01*
X9962658Y-15370892D01*
X9965412Y-15378528D01*
X9970275Y-15396692D01*
X9976816Y-15423468D01*
X9984607Y-15456941D01*
X9993219Y-15495195D01*
X10002222Y-15536314D01*
X10011187Y-15578382D01*
X10019684Y-15619484D01*
X10027284Y-15657703D01*
X10029383Y-15668625D01*
X10036469Y-15707415D01*
X10044254Y-15752712D01*
X10052475Y-15802730D01*
X10060869Y-15855684D01*
X10069173Y-15909788D01*
X10077124Y-15963257D01*
X10084461Y-16014305D01*
X10090920Y-16061149D01*
X10096239Y-16102002D01*
X10100155Y-16135078D01*
X10102405Y-16158594D01*
X10102850Y-16168012D01*
X10247391Y-16168012D01*
X10247126Y-16165595D01*
X10245594Y-16151225D01*
X10228574Y-16008378D01*
X10207320Y-15859852D01*
X10182626Y-15710534D01*
X10155288Y-15565309D01*
X10133577Y-15462250D01*
X10125362Y-15424875D01*
X10118130Y-15391444D01*
X10112328Y-15364060D01*
X10108402Y-15344827D01*
X10106797Y-15335850D01*
X10106792Y-15335802D01*
X10110476Y-15330718D01*
X10122751Y-15324668D01*
X10144264Y-15317478D01*
X10175659Y-15308977D01*
X10217580Y-15298990D01*
X10270672Y-15287345D01*
X10335581Y-15273870D01*
X10344150Y-15272130D01*
X10497914Y-15244299D01*
X10645203Y-15224339D01*
X10785489Y-15212259D01*
X10918245Y-15208068D01*
X11042943Y-15211774D01*
X11159054Y-15223385D01*
X11266051Y-15242910D01*
X11318875Y-15256468D01*
X11400942Y-15284956D01*
X11474360Y-15320924D01*
X11538598Y-15363889D01*
X11593125Y-15413365D01*
X11637410Y-15468867D01*
X11670923Y-15529911D01*
X11693133Y-15596012D01*
X11693783Y-15598775D01*
X11700826Y-15643233D01*
X11703865Y-15695668D01*
X11848535Y-15695668D01*
X11848618Y-15691175D01*
X11846527Y-15640958D01*
X11842926Y-15610020D01*
X11830249Y-15553300D01*
X11810867Y-15494022D01*
X11786865Y-15438043D01*
X11771266Y-15408737D01*
X11738226Y-15360942D01*
X11695337Y-15312631D01*
X11645137Y-15266073D01*
X11590167Y-15223535D01*
X11532969Y-15187287D01*
X11509041Y-15174559D01*
X11461589Y-15153733D01*
X11404279Y-15133384D01*
X11339948Y-15114295D01*
X11271434Y-15097248D01*
X11201573Y-15083026D01*
X11144250Y-15073881D01*
X11114856Y-15070981D01*
X11075205Y-15068728D01*
X11027725Y-15067124D01*
X10974841Y-15066168D01*
X10918980Y-15065859D01*
X10862570Y-15066197D01*
X10808037Y-15067183D01*
X10757807Y-15068815D01*
X10714308Y-15071094D01*
X10680700Y-15073937D01*
X10616525Y-15081783D01*
X10544784Y-15091834D01*
X10470122Y-15103360D01*
X10397180Y-15115634D01*
X10330601Y-15127927D01*
X10309266Y-15132180D01*
X10268838Y-15140618D01*
X10227159Y-15149643D01*
X10186452Y-15158741D01*
X10148939Y-15167398D01*
X10116844Y-15175100D01*
X10092390Y-15181331D01*
X10077800Y-15185577D01*
X10076555Y-15186029D01*
X10070749Y-15185311D01*
X10064995Y-15177203D01*
X10058315Y-15159860D01*
X10052283Y-15140278D01*
X10043702Y-15111741D01*
X10033115Y-15077725D01*
X10021193Y-15040267D01*
X10008613Y-15001409D01*
X9996046Y-14963190D01*
X9984168Y-14927648D01*
X9973652Y-14896824D01*
X9965172Y-14872757D01*
X9959401Y-14857486D01*
X9957465Y-14853306D01*
X9952476Y-14849329D01*
X9943377Y-14849547D01*
X9927466Y-14854408D01*
X9910014Y-14861137D01*
X9884641Y-14870406D01*
X9859929Y-14877984D01*
X9843113Y-14881863D01*
X9817924Y-14885891D01*
X9845206Y-14962933D01*
X9856134Y-14994634D01*
X9867924Y-15030259D01*
X9879979Y-15067835D01*
X9891698Y-15105383D01*
X9902483Y-15140930D01*
X9911736Y-15172500D01*
X9918859Y-15198116D01*
X9923252Y-15215803D01*
X9924317Y-15223586D01*
X9924228Y-15223735D01*
X9917858Y-15226197D01*
X9900857Y-15232178D01*
X9874649Y-15241191D01*
X9840655Y-15252753D01*
X9800298Y-15266378D01*
X9755001Y-15281583D01*
X9721850Y-15292662D01*
X9556994Y-15350045D01*
X9392564Y-15411902D01*
X9233042Y-15476501D01*
X9120871Y-15525014D01*
X9018366Y-15570675D01*
X8924021Y-15528404D01*
X8809993Y-15478870D01*
X8689060Y-15429191D01*
X8564887Y-15380766D01*
X8441136Y-15334992D01*
X8429860Y-15331060D01*
X7931150Y-15331060D01*
X7929811Y-15339231D01*
X7926091Y-15357664D01*
X7920442Y-15384239D01*
X7913312Y-15416836D01*
X7906055Y-15449329D01*
X7880592Y-15569635D01*
X7856292Y-15698686D01*
X7833795Y-15832536D01*
X7813739Y-15967241D01*
X7796763Y-16098856D01*
X7787744Y-16180282D01*
X7776918Y-16285539D01*
X7671472Y-16362749D01*
X7539349Y-16461483D01*
X7416240Y-16557750D01*
X7299371Y-16653801D01*
X7185965Y-16751891D01*
X7127875Y-16804056D01*
X7090682Y-16837537D01*
X7061748Y-16862781D01*
X7040257Y-16880432D01*
X7025393Y-16891138D01*
X7016338Y-16895543D01*
X7012771Y-16895008D01*
X7006114Y-16888063D01*
X6992456Y-16873630D01*
X6973478Y-16853492D01*
X6950861Y-16829430D01*
X6937566Y-16815261D01*
X6839942Y-16707265D01*
X6749082Y-16598862D01*
X6665878Y-16491261D01*
X6591225Y-16385675D01*
X6526015Y-16283316D01*
X6471142Y-16185394D01*
X6466446Y-16176261D01*
X6432729Y-16107602D01*
X6405335Y-16045748D01*
X6382939Y-15987363D01*
X6364218Y-15929114D01*
X6354725Y-15894850D01*
X6347176Y-15865052D01*
X6341863Y-15840251D01*
X6338390Y-15816927D01*
X6336365Y-15791557D01*
X6335392Y-15760623D01*
X6335077Y-15720602D01*
X6335074Y-15719425D01*
X6335139Y-15680057D01*
X6335766Y-15650460D01*
X6337277Y-15627703D01*
X6339993Y-15608860D01*
X6344237Y-15591002D01*
X6350329Y-15571200D01*
X6351872Y-15566527D01*
X6380439Y-15500031D01*
X6419472Y-15439913D01*
X6467965Y-15387543D01*
X6505252Y-15357469D01*
X6571586Y-15316073D01*
X6645071Y-15281659D01*
X6726334Y-15254091D01*
X6816008Y-15233232D01*
X6914723Y-15218944D01*
X7023107Y-15211090D01*
X7141793Y-15209533D01*
X7181463Y-15210327D01*
X7295543Y-15215766D01*
X7409505Y-15226047D01*
X7526027Y-15241532D01*
X7647787Y-15262586D01*
X7777463Y-15289574D01*
X7797800Y-15294165D01*
X7832845Y-15302138D01*
X7864712Y-15309365D01*
X7890802Y-15315257D01*
X7908516Y-15319227D01*
X7913688Y-15320366D01*
X7926338Y-15325260D01*
X7931150Y-15331060D01*
X8429860Y-15331060D01*
X8321470Y-15293266D01*
X8226471Y-15262268D01*
X8190633Y-15250944D01*
X8159239Y-15240924D01*
X8134190Y-15232824D01*
X8117387Y-15227259D01*
X8110734Y-15224844D01*
X8110707Y-15224823D01*
X8111717Y-15218199D01*
X8116176Y-15201356D01*
X8123515Y-15176120D01*
X8133166Y-15144319D01*
X8144559Y-15107781D01*
X8157126Y-15068333D01*
X8170298Y-15027803D01*
X8183505Y-14988019D01*
X8194353Y-14956102D01*
X8231083Y-14854756D01*
X8269960Y-14758674D01*
X8313146Y-14662763D01*
X8357526Y-14572308D01*
X8420530Y-14456184D01*
X8485335Y-14352627D01*
X8551942Y-14261637D01*
X8620348Y-14183216D01*
X8690553Y-14117364D01*
X8762557Y-14064083D01*
X8809081Y-14036845D01*
X8851985Y-14015580D01*
X8889270Y-14000561D01*
X8925391Y-13990298D01*
X8964801Y-13983300D01*
X8972050Y-13982340D01*
X9037916Y-13979632D01*
X9103695Y-13988458D01*
X9169958Y-14009023D01*
X9237276Y-14041529D01*
X9306220Y-14086179D01*
X9342761Y-14114149D01*
X9385947Y-14148869D01*
X9412611Y-14121037D01*
X9432523Y-14101383D01*
X9453972Y-14081879D01*
X9464675Y-14072900D01*
X9490075Y-14052594D01*
X9455150Y-14020680D01*
X9428306Y-13998077D01*
X9395013Y-13972918D01*
X9358536Y-13947412D01*
X9322137Y-13923765D01*
X9289078Y-13904183D01*
X9264395Y-13891646D01*
X9241416Y-13882197D01*
X9211955Y-13871055D01*
X9181645Y-13860337D01*
X9175716Y-13858343D01*
X9154286Y-13851499D01*
X9135875Y-13846655D01*
X9117519Y-13843472D01*
X9096249Y-13841609D01*
X9069102Y-13840725D01*
X9033109Y-13840479D01*
X9020175Y-13840478D01*
X8980424Y-13840688D01*
X8980424Y-13840688D01*
G37*
X8980424Y-13840688D02*
X8950287Y-13841477D01*
X8926681Y-13843186D01*
X8906523Y-13846155D01*
X8886729Y-13850725D01*
X8864216Y-13857236D01*
X8861817Y-13857970D01*
X8778040Y-13890226D01*
X8696319Y-13934848D01*
X8616785Y-13991652D01*
X8539569Y-14060452D01*
X8464801Y-14141061D01*
X8392612Y-14233294D01*
X8323132Y-14336966D01*
X8256493Y-14451889D01*
X8192824Y-14577879D01*
X8132257Y-14714749D01*
X8074922Y-14862313D01*
X8020950Y-15020386D01*
X8001935Y-15081250D01*
X7991233Y-15115363D01*
X7981454Y-15144719D01*
X7973293Y-15167375D01*
X7967443Y-15181388D01*
X7964852Y-15185065D01*
X7957291Y-15183390D01*
X7939423Y-15179327D01*
X7913312Y-15173347D01*
X7881025Y-15165923D01*
X7847568Y-15158208D01*
X7663134Y-15119631D01*
X7483710Y-15090143D01*
X7408869Y-15080383D01*
X7358564Y-15075377D01*
X7300885Y-15071351D01*
X7238310Y-15068337D01*
X7173315Y-15066368D01*
X7108378Y-15065476D01*
X7045975Y-15065693D01*
X6988585Y-15067052D01*
X6938685Y-15069585D01*
X6898751Y-15073325D01*
X6896100Y-15073672D01*
X6783537Y-15092498D01*
X6681716Y-15117387D01*
X6590106Y-15148560D01*
X6508172Y-15186241D01*
X6435380Y-15230649D01*
X6371198Y-15282009D01*
X6352475Y-15299864D01*
X6297392Y-15363139D01*
X6253482Y-15432045D01*
X6220667Y-15506322D01*
X6198868Y-15585711D01*
X6188009Y-15669952D01*
X6188010Y-15758786D01*
X6198793Y-15851953D01*
X6220280Y-15949193D01*
X6252394Y-16050247D01*
X6295055Y-16154856D01*
X6348185Y-16262760D01*
X6411707Y-16373700D01*
X6485542Y-16487415D01*
X6569611Y-16603647D01*
X6663838Y-16722136D01*
X6768143Y-16842622D01*
X6841117Y-16921683D01*
X6865511Y-16947743D01*
X6886520Y-16970677D01*
X6902712Y-16988883D01*
X6912655Y-17000756D01*
X6915150Y-17004574D01*
X6910929Y-17011248D01*
X6900162Y-17023185D01*
X6892231Y-17031041D01*
X6879504Y-17043757D01*
X6860518Y-17063434D01*
X6837575Y-17087655D01*
X6812979Y-17114000D01*
X6806030Y-17121516D01*
X6742748Y-17190107D01*
X6779737Y-17214316D01*
X6802036Y-17230080D01*
X6822797Y-17246708D01*
X6835509Y-17258576D01*
X6854292Y-17278627D01*
X6937717Y-17191202D01*
X7021143Y-17103778D01*
X7093559Y-17170895D01*
X7253506Y-17313337D01*
X7425325Y-17455153D01*
X7609418Y-17596676D01*
X7620148Y-17604636D01*
X7664529Y-17637478D01*
X7699790Y-17663621D01*
X7726975Y-17683979D01*
X7747127Y-17699468D01*
X7761289Y-17711003D01*
X7770506Y-17719501D01*
X7775821Y-17725875D01*
X7778278Y-17731042D01*
X7778919Y-17735917D01*
X7778789Y-17741415D01*
X7778754Y-17743758D01*
X7779759Y-17766846D01*
X7782616Y-17800764D01*
X7787095Y-17843813D01*
X7792971Y-17894293D01*
X7800013Y-17950506D01*
X7807995Y-18010753D01*
X7816689Y-18073334D01*
X7825866Y-18136551D01*
X7835299Y-18198705D01*
X7844759Y-18258097D01*
X7854020Y-18313028D01*
X7858596Y-18338800D01*
X7865986Y-18378450D01*
X7874532Y-18422434D01*
X7883783Y-18468606D01*
X7893287Y-18514823D01*
X7902593Y-18558937D01*
X7911249Y-18598805D01*
X7918803Y-18632280D01*
X7924804Y-18657218D01*
X7928300Y-18669953D01*
X7927856Y-18674724D01*
X7922151Y-18679279D01*
X7909454Y-18684275D01*
X7888032Y-18690372D01*
X7856152Y-18698230D01*
X7850415Y-18699589D01*
X7716392Y-18729402D01*
X7591359Y-18753310D01*
X7473197Y-18771569D01*
X7359791Y-18784434D01*
X7249024Y-18792161D01*
X7138778Y-18795007D01*
X7066322Y-18794358D01*
X6992468Y-18791923D01*
X6928488Y-18787886D01*
X6871619Y-18781886D01*
X6819095Y-18773565D01*
X6768153Y-18762562D01*
X6717847Y-18749049D01*
X6634898Y-18719885D01*
X6560965Y-18683470D01*
X6496517Y-18640221D01*
X6442025Y-18590552D01*
X6397959Y-18534878D01*
X6364788Y-18473614D01*
X6346546Y-18421350D01*
X6335502Y-18361631D01*
X6332168Y-18294056D01*
X6336459Y-18220790D01*
X6348286Y-18143999D01*
X6359821Y-18093804D01*
X6366482Y-18067704D01*
X6371717Y-18046315D01*
X6374824Y-18032548D01*
X6375377Y-18029158D01*
X6370026Y-18024222D01*
X6356453Y-18016958D01*
X6347343Y-18012957D01*
X6325914Y-18003023D01*
X6300626Y-17989737D01*
X6284639Y-17980548D01*
X6249946Y-17959657D01*
X6230257Y-18023816D01*
X6214071Y-18079631D01*
X6202470Y-18128010D01*
X6194811Y-18173089D01*
X6190449Y-18219006D01*
X6188741Y-18269898D01*
X6188653Y-18291175D01*
X6189556Y-18342151D01*
X6192504Y-18384432D01*
X6198189Y-18421948D01*
X6207302Y-18458630D01*
X6220535Y-18498410D01*
X6229142Y-18521281D01*
X6263202Y-18591953D01*
X6308362Y-18657260D01*
X6364016Y-18716765D01*
X6429558Y-18770033D01*
X6504385Y-18816628D01*
X6587890Y-18856114D01*
X6679469Y-18888056D01*
X6769100Y-18910156D01*
X6812537Y-18918597D01*
X6851395Y-18925238D01*
X6888178Y-18930282D01*
X6925390Y-18933930D01*
X6965535Y-18936386D01*
X7011118Y-18937851D01*
X7064641Y-18938528D01*
X7121525Y-18938631D01*
X7223505Y-18937003D01*
X7321246Y-18932188D01*
X7417444Y-18923854D01*
X7514794Y-18911669D01*
X7615990Y-18895303D01*
X7723728Y-18874424D01*
X7826375Y-18851989D01*
X7863572Y-18843509D01*
X7897154Y-18835875D01*
X7924893Y-18829592D01*
X7944556Y-18825166D01*
X7953638Y-18823160D01*
X7960332Y-18823199D01*
X7965803Y-18828038D01*
X7971275Y-18839878D01*
X7977971Y-18860921D01*
X7981519Y-18873300D01*
X8022672Y-19009293D01*
X8068477Y-19142622D01*
X8118282Y-19271856D01*
X8171439Y-19395562D01*
X8227298Y-19512308D01*
X8285209Y-19620663D01*
X8344524Y-19719194D01*
X8404592Y-19806469D01*
X8405106Y-19807161D01*
X8478636Y-19898400D01*
X8554571Y-19977466D01*
X8632810Y-20044279D01*
X8713252Y-20098763D01*
X8795797Y-20140839D01*
X8870950Y-20167789D01*
X8905426Y-20175265D01*
X8947881Y-20180689D01*
X8994451Y-20183916D01*
X9041275Y-20184802D01*
X9084488Y-20183204D01*
X9120226Y-20178978D01*
X9128125Y-20177360D01*
X9212620Y-20151932D01*
X9294265Y-20115197D01*
X9373324Y-20066943D01*
X9450064Y-20006955D01*
X9524748Y-19935021D01*
X9597642Y-19850928D01*
X9669010Y-19754461D01*
X9688055Y-19726262D01*
X9745752Y-19632852D01*
X9802533Y-19528450D01*
X9857654Y-19414764D01*
X9910374Y-19293499D01*
X9959948Y-19166363D01*
X10005635Y-19035063D01*
X10045932Y-18903950D01*
X10054484Y-18875035D01*
X10062185Y-18850571D01*
X10068181Y-18833171D01*
X10071581Y-18825488D01*
X10079068Y-18825005D01*
X10096615Y-18827264D01*
X10121978Y-18831878D01*
X10152908Y-18838459D01*
X10170517Y-18842548D01*
X10261562Y-18863193D01*
X10353452Y-18882006D01*
X10441420Y-18898045D01*
X10496550Y-18906885D01*
X10526086Y-18911333D01*
X10552509Y-18915357D01*
X10572291Y-18918415D01*
X10580129Y-18919665D01*
X10597032Y-18922458D01*
X10596004Y-18849734D01*
X10595054Y-18782557D01*
X9931400Y-18782557D01*
X9929496Y-18791842D01*
X9924199Y-18811204D01*
X9916129Y-18838671D01*
X9905910Y-18872272D01*
X9894162Y-18910034D01*
X9881507Y-18949987D01*
X9868568Y-18990158D01*
X9855966Y-19028577D01*
X9844322Y-19063270D01*
X9834259Y-19092267D01*
X9830107Y-19103763D01*
X9775161Y-19244352D01*
X9717743Y-19374344D01*
X9658014Y-19493523D01*
X9596134Y-19601672D01*
X9532263Y-19698573D01*
X9466563Y-19784010D01*
X9399195Y-19857765D01*
X9330319Y-19919623D01*
X9260095Y-19969365D01*
X9188685Y-20006775D01*
X9149982Y-20021674D01*
X9082264Y-20038590D01*
X9014476Y-20043384D01*
X8944845Y-20036123D01*
X8918575Y-20030471D01*
X8851334Y-20007909D01*
X8783789Y-19972998D01*
X8716329Y-19926073D01*
X8649338Y-19867468D01*
X8583203Y-19797516D01*
X8518312Y-19716550D01*
X8463145Y-19637375D01*
X8436664Y-19594537D01*
X8407022Y-19542460D01*
X8375546Y-19483782D01*
X8343565Y-19421144D01*
X8312407Y-19357186D01*
X8283401Y-19294546D01*
X8257874Y-19235866D01*
X8244286Y-19202400D01*
X8228882Y-19162066D01*
X8212623Y-19117596D01*
X8196000Y-19070520D01*
X8179503Y-19022370D01*
X8163624Y-18974676D01*
X8148853Y-18928969D01*
X8135681Y-18886780D01*
X8124598Y-18849640D01*
X8116096Y-18819079D01*
X8110665Y-18796630D01*
X8108796Y-18783822D01*
X8109367Y-18781500D01*
X8115846Y-18779094D01*
X8132950Y-18773205D01*
X8159238Y-18764317D01*
X8193270Y-18752913D01*
X8233606Y-18739477D01*
X8278805Y-18724492D01*
X8308975Y-18714525D01*
X8434523Y-18671566D01*
X8562828Y-18624770D01*
X8689998Y-18575640D01*
X8812139Y-18525676D01*
X8917509Y-18479909D01*
X9018042Y-18434813D01*
X9111184Y-18476292D01*
X9182134Y-18507220D01*
X9258155Y-18539148D01*
X9337600Y-18571462D01*
X9418820Y-18603549D01*
X9500165Y-18634793D01*
X9579988Y-18664581D01*
X9656641Y-18692299D01*
X9728473Y-18717331D01*
X9793838Y-18739065D01*
X9851086Y-18756885D01*
X9898568Y-18770178D01*
X9902856Y-18771270D01*
X9919727Y-18776316D01*
X9929972Y-18780920D01*
X9931400Y-18782557D01*
X10595054Y-18782557D01*
X10594975Y-18777009D01*
X10575925Y-18773789D01*
X10559822Y-18771208D01*
X10536400Y-18767618D01*
X10512425Y-18764045D01*
X10460824Y-18755746D01*
X10400976Y-18744919D01*
X10336895Y-18732359D01*
X10272592Y-18718854D01*
X10212081Y-18705198D01*
X10202207Y-18702857D01*
X10107888Y-18680323D01*
X10111414Y-18663549D01*
X10113842Y-18652192D01*
X10118475Y-18630696D01*
X10124821Y-18601335D01*
X10132389Y-18566379D01*
X10140688Y-18528102D01*
X10140726Y-18527924D01*
X10162215Y-18423399D01*
X10183157Y-18310978D01*
X10202691Y-18195462D01*
X10216782Y-18103670D01*
X10220270Y-18078588D01*
X10224582Y-18045692D01*
X10229483Y-18006974D01*
X10234735Y-17964428D01*
X10240105Y-17920044D01*
X10245354Y-17875818D01*
X10250249Y-17833740D01*
X10251309Y-17824388D01*
X10107065Y-17824388D01*
X10098655Y-17895856D01*
X10081374Y-18030854D01*
X10061305Y-18166773D01*
X10039025Y-18300155D01*
X10015107Y-18427543D01*
X9991746Y-18538290D01*
X9984222Y-18572025D01*
X9977786Y-18601163D01*
X9972906Y-18623561D01*
X9970050Y-18637080D01*
X9969500Y-18640082D01*
X9963680Y-18639658D01*
X9946936Y-18635409D01*
X9920348Y-18627665D01*
X9884995Y-18616755D01*
X9841954Y-18603010D01*
X9792305Y-18586759D01*
X9760279Y-18576105D01*
X9610157Y-18523556D01*
X9457226Y-18465604D01*
X9311616Y-18406226D01*
X9196084Y-18357317D01*
X8839577Y-18357317D01*
X8838804Y-18357945D01*
X8827903Y-18363136D01*
X8807093Y-18372239D01*
X8778267Y-18384479D01*
X8743316Y-18399079D01*
X8704135Y-18415260D01*
X8662616Y-18432246D01*
X8620652Y-18449261D01*
X8580135Y-18465526D01*
X8542958Y-18480265D01*
X8511015Y-18492700D01*
X8504582Y-18495162D01*
X8470496Y-18507867D01*
X8430583Y-18522267D01*
X8386514Y-18537806D01*
X8339962Y-18553924D01*
X8292597Y-18570064D01*
X8246093Y-18585667D01*
X8202121Y-18600176D01*
X8162353Y-18613032D01*
X8128462Y-18623678D01*
X8102119Y-18631554D01*
X8084996Y-18636104D01*
X8079629Y-18637012D01*
X8070790Y-18634823D01*
X8064845Y-18625903D01*
X8059839Y-18607302D01*
X8059793Y-18607087D01*
X8039448Y-18509963D01*
X8021776Y-18423049D01*
X8006405Y-18344228D01*
X7992962Y-18271380D01*
X7981074Y-18202388D01*
X7970369Y-18135132D01*
X7960472Y-18067495D01*
X7951011Y-17997359D01*
X7947182Y-17967473D01*
X7942294Y-17928416D01*
X7938006Y-17893441D01*
X7934563Y-17864588D01*
X7932205Y-17843893D01*
X7931176Y-17833395D01*
X7931150Y-17832749D01*
X7936121Y-17833273D01*
X7949833Y-17839883D01*
X7970484Y-17851585D01*
X7996276Y-17867383D01*
X8012113Y-17877530D01*
X8139518Y-17958464D01*
X8273090Y-18039731D01*
X8409542Y-18119437D01*
X8545587Y-18195691D01*
X8677937Y-18266599D01*
X8768975Y-18313221D01*
X8802706Y-18330628D01*
X8825317Y-18343524D01*
X8837408Y-18352293D01*
X8839577Y-18357317D01*
X9196084Y-18357317D01*
X9189673Y-18354603D01*
X9317649Y-18287964D01*
X9522057Y-18178413D01*
X9718281Y-18066704D01*
X9910826Y-17950197D01*
X10090670Y-17835141D01*
X10107065Y-17824388D01*
X10251309Y-17824388D01*
X10254551Y-17795804D01*
X10258027Y-17764002D01*
X10260438Y-17740327D01*
X10261551Y-17726772D01*
X10261598Y-17725224D01*
X10266515Y-17719359D01*
X10280152Y-17707519D01*
X10300844Y-17691036D01*
X10326926Y-17671244D01*
X10352088Y-17652815D01*
X10469482Y-17565962D01*
X10587349Y-17474568D01*
X10702404Y-17381277D01*
X10811361Y-17288735D01*
X10879626Y-17228186D01*
X10908891Y-17201777D01*
X10937208Y-17176330D01*
X10962252Y-17153924D01*
X10981701Y-17136641D01*
X10990136Y-17129230D01*
X11019196Y-17103936D01*
X11075695Y-17164155D01*
X11189914Y-17290286D01*
X11293036Y-17413337D01*
X11384955Y-17533138D01*
X11465566Y-17649520D01*
X11534763Y-17762314D01*
X11592440Y-17871349D01*
X11638492Y-17976457D01*
X11672813Y-18077469D01*
X11690811Y-18150536D01*
X11700869Y-18217727D01*
X11704231Y-18285409D01*
X11701094Y-18351004D01*
X11691658Y-18411935D01*
X11676121Y-18465624D01*
X11664473Y-18492273D01*
X11627015Y-18552863D01*
X11580194Y-18606624D01*
X11526035Y-18651267D01*
X11520777Y-18654821D01*
X11503362Y-18667132D01*
X11491211Y-18677151D01*
X11487150Y-18682289D01*
X11488646Y-18690788D01*
X11492521Y-18707531D01*
X11496675Y-18723999D01*
X11502195Y-18751449D01*
X11505633Y-18780590D01*
X11506200Y-18794159D01*
X11507030Y-18812868D01*
X11509163Y-18825062D01*
X11511064Y-18827750D01*
X11520716Y-18824291D01*
X11538103Y-18814991D01*
X11560674Y-18801459D01*
X11585882Y-18785307D01*
X11611177Y-18768145D01*
X11634010Y-18751586D01*
X11644417Y-18743462D01*
X11695492Y-18695294D01*
X11742137Y-18637953D01*
X11782044Y-18574788D01*
X11812902Y-18509149D01*
X11820537Y-18488025D01*
X11836002Y-18428007D01*
X11845617Y-18360194D01*
X11849185Y-18288159D01*
X11846511Y-18215479D01*
X11838898Y-18154181D01*
X11815100Y-18048326D01*
X11779191Y-17938979D01*
X11731164Y-17826127D01*
X11671008Y-17709754D01*
X11598717Y-17589847D01*
X11514282Y-17466391D01*
X11417693Y-17339373D01*
X11308943Y-17208778D01*
X11197762Y-17085046D01*
X11121993Y-17003484D01*
X10914993Y-17003484D01*
X10834359Y-17076677D01*
X10776376Y-17128866D01*
X10722894Y-17175957D01*
X10670313Y-17221033D01*
X10615031Y-17267178D01*
X10553447Y-17317475D01*
X10547350Y-17322409D01*
X10510624Y-17351854D01*
X10472445Y-17382002D01*
X10434183Y-17411816D01*
X10397209Y-17440258D01*
X10362893Y-17466293D01*
X10332604Y-17488882D01*
X10307712Y-17506989D01*
X10289589Y-17519577D01*
X10279603Y-17525610D01*
X10278375Y-17525986D01*
X10275436Y-17520836D01*
X10276376Y-17511712D01*
X10277463Y-17502000D01*
X10278907Y-17481256D01*
X10280622Y-17451141D01*
X10282521Y-17413317D01*
X10284519Y-17369444D01*
X10286531Y-17321183D01*
X10287458Y-17297400D01*
X10289686Y-17223481D01*
X10291110Y-17141784D01*
X10291752Y-17054893D01*
X10291720Y-17029737D01*
X10144284Y-17029737D01*
X10144143Y-17114134D01*
X10143526Y-17196637D01*
X10142434Y-17275963D01*
X10140867Y-17350828D01*
X10138825Y-17419947D01*
X10136307Y-17482038D01*
X10133314Y-17535815D01*
X10129846Y-17579996D01*
X10125903Y-17613296D01*
X10124149Y-17623509D01*
X10121654Y-17630066D01*
X10115859Y-17637692D01*
X10105581Y-17647298D01*
X10089636Y-17659798D01*
X10066841Y-17676104D01*
X10036010Y-17697129D01*
X9995962Y-17723787D01*
X9983136Y-17732252D01*
X9856389Y-17813862D01*
X9722419Y-17896526D01*
X9586057Y-17977310D01*
X9480550Y-18037460D01*
X9454205Y-18051968D01*
X9421118Y-18069814D01*
X9382725Y-18090256D01*
X9340461Y-18112555D01*
X9295759Y-18135969D01*
X9250055Y-18159757D01*
X9204783Y-18183178D01*
X9161378Y-18205492D01*
X9121274Y-18225956D01*
X9085907Y-18243831D01*
X9056709Y-18258374D01*
X9035118Y-18268846D01*
X9022565Y-18274505D01*
X9020081Y-18275300D01*
X9013720Y-18272552D01*
X8997451Y-18264778D01*
X8972699Y-18252679D01*
X8940892Y-18236960D01*
X8903456Y-18218322D01*
X8861816Y-18197468D01*
X8846887Y-18189964D01*
X8679884Y-18103816D01*
X8521570Y-18017601D01*
X8368114Y-17929109D01*
X8215687Y-17836131D01*
X8060461Y-17736457D01*
X8057367Y-17734423D01*
X7913709Y-17639944D01*
X7909762Y-17590909D01*
X7904035Y-17512213D01*
X7903599Y-17504550D01*
X7758674Y-17504550D01*
X7758592Y-17519916D01*
X7757070Y-17525995D01*
X7757006Y-17526000D01*
X7750742Y-17522371D01*
X7736228Y-17512369D01*
X7715317Y-17497316D01*
X7689860Y-17478535D01*
X7675304Y-17467632D01*
X7598290Y-17408632D01*
X7519078Y-17346054D01*
X7439879Y-17281735D01*
X7362903Y-17217516D01*
X7290361Y-17155233D01*
X7224462Y-17096726D01*
X7179313Y-17055099D01*
X7122800Y-17001923D01*
X7214238Y-16919170D01*
X7297335Y-16844894D01*
X7375411Y-16777201D01*
X7451930Y-16713222D01*
X7530355Y-16650090D01*
X7614150Y-16584937D01*
X7660621Y-16549590D01*
X7690483Y-16527266D01*
X7716768Y-16508080D01*
X7737858Y-16493175D01*
X7752138Y-16483693D01*
X7757990Y-16480776D01*
X7758010Y-16480792D01*
X7758463Y-16487622D01*
X7758301Y-16505399D01*
X7757579Y-16532389D01*
X7756350Y-16566856D01*
X7754667Y-16607064D01*
X7753018Y-16642434D01*
X7751650Y-16678707D01*
X7750549Y-16724589D01*
X7749709Y-16778505D01*
X7749120Y-16838883D01*
X7748775Y-16904149D01*
X7748667Y-16972730D01*
X7748786Y-17043052D01*
X7749125Y-17113541D01*
X7749676Y-17182624D01*
X7750431Y-17248729D01*
X7751382Y-17310280D01*
X7752521Y-17365706D01*
X7753840Y-17413432D01*
X7755330Y-17451885D01*
X7756985Y-17479491D01*
X7757295Y-17483137D01*
X7758674Y-17504550D01*
X7903599Y-17504550D01*
X7899453Y-17431800D01*
X7895949Y-17347621D01*
X7893459Y-17257628D01*
X7891916Y-17159772D01*
X7891255Y-17052005D01*
X7891220Y-17011650D01*
X7891409Y-16926721D01*
X7891974Y-16851647D01*
X7893004Y-16783588D01*
X7894591Y-16719702D01*
X7896824Y-16657147D01*
X7899794Y-16593083D01*
X7903591Y-16524668D01*
X7908304Y-16449060D01*
X7909799Y-16426239D01*
X7913864Y-16364703D01*
X8038395Y-16282819D01*
X8230226Y-16160133D01*
X8420542Y-16045577D01*
X8613574Y-15936712D01*
X8813552Y-15831102D01*
X8887930Y-15793475D01*
X9016034Y-15729373D01*
X9091130Y-15765026D01*
X9201184Y-15819057D01*
X9318718Y-15880064D01*
X9441538Y-15946794D01*
X9567449Y-16017993D01*
X9694258Y-16092408D01*
X9819771Y-16168788D01*
X9941792Y-16245879D01*
X10002045Y-16285113D01*
X10120314Y-16362961D01*
X10124167Y-16396793D01*
X10128304Y-16440458D01*
X10131965Y-16493784D01*
X10135151Y-16555487D01*
X10137862Y-16624284D01*
X10140097Y-16698891D01*
X10141857Y-16778023D01*
X10143141Y-16860398D01*
X10143951Y-16944730D01*
X10144284Y-17029737D01*
X10291720Y-17029737D01*
X10291636Y-16965391D01*
X10290787Y-16875861D01*
X10289227Y-16788887D01*
X10286981Y-16707053D01*
X10284072Y-16632940D01*
X10280827Y-16573741D01*
X10278894Y-16540993D01*
X10277602Y-16513016D01*
X10277030Y-16492126D01*
X10277256Y-16480639D01*
X10277598Y-16479185D01*
X10283828Y-16481569D01*
X10298768Y-16491176D01*
X10321319Y-16507158D01*
X10350385Y-16528670D01*
X10384867Y-16554864D01*
X10423669Y-16584894D01*
X10465692Y-16617914D01*
X10509838Y-16653077D01*
X10555011Y-16689535D01*
X10600113Y-16726443D01*
X10626725Y-16748487D01*
X10675362Y-16789161D01*
X10716891Y-16824383D01*
X10754131Y-16856620D01*
X10789902Y-16888344D01*
X10827021Y-16922023D01*
X10868307Y-16960127D01*
X10869284Y-16961035D01*
X10914993Y-17003484D01*
X11121993Y-17003484D01*
X11120705Y-17002098D01*
X11183943Y-16935436D01*
X11302279Y-16805763D01*
X11409574Y-16677922D01*
X11505678Y-16552152D01*
X11590441Y-16428694D01*
X11663713Y-16307786D01*
X11725344Y-16189670D01*
X11775183Y-16074585D01*
X11813080Y-15962771D01*
X11827840Y-15906750D01*
X11837005Y-15858527D01*
X11843657Y-15803898D01*
X11847595Y-15746801D01*
X11848535Y-15695668D01*
X11703865Y-15695668D01*
X11702947Y-15752020D01*
X11698120Y-15808227D01*
X11690781Y-15853839D01*
X11666248Y-15948519D01*
X11630454Y-16047768D01*
X11583737Y-16150984D01*
X11526437Y-16257568D01*
X11458893Y-16366919D01*
X11381444Y-16478438D01*
X11294429Y-16591523D01*
X11230192Y-16668750D01*
X11200091Y-16703459D01*
X11168760Y-16738853D01*
X11137406Y-16773640D01*
X11107235Y-16806530D01*
X11079456Y-16836231D01*
X11055273Y-16861453D01*
X11035894Y-16880905D01*
X11022526Y-16893295D01*
X11016517Y-16897350D01*
X11009739Y-16893230D01*
X10995914Y-16882046D01*
X10977128Y-16865559D01*
X10957772Y-16847710D01*
X10876710Y-16773475D01*
X10786872Y-16695022D01*
X10690599Y-16614266D01*
X10590236Y-16533124D01*
X10488126Y-16453513D01*
X10386611Y-16377349D01*
X10350965Y-16351362D01*
X10317998Y-16327278D01*
X10294039Y-16309030D01*
X10277623Y-16295273D01*
X10267284Y-16284660D01*
X10261558Y-16275846D01*
X10258977Y-16267484D01*
X10258859Y-16266767D01*
X10257066Y-16253321D01*
X10254296Y-16230083D01*
X10250874Y-16199894D01*
X10247391Y-16168012D01*
X10102850Y-16168012D01*
X10100348Y-16170695D01*
X10092116Y-16168465D01*
X10077069Y-16160746D01*
X10054123Y-16146966D01*
X10022191Y-16126548D01*
X10012363Y-16120134D01*
X9977994Y-16097949D01*
X9936171Y-16071447D01*
X9890362Y-16042795D01*
X9844032Y-16014161D01*
X9800648Y-15987711D01*
X9798078Y-15986158D01*
X9711749Y-15934861D01*
X9621536Y-15882764D01*
X9530493Y-15831569D01*
X9441671Y-15782975D01*
X9358124Y-15738684D01*
X9304361Y-15711124D01*
X9270467Y-15693845D01*
X9240836Y-15678366D01*
X9217203Y-15665626D01*
X9201305Y-15656560D01*
X9194878Y-15652109D01*
X9194824Y-15651957D01*
X9195960Y-15651183D01*
X8846596Y-15651183D01*
X8727011Y-15713217D01*
X8586409Y-15787812D01*
X8446142Y-15865437D01*
X8309002Y-15944477D01*
X8177782Y-16023313D01*
X8055274Y-16100330D01*
X8029694Y-16116918D01*
X7999135Y-16136740D01*
X7972506Y-16153799D01*
X7951514Y-16167017D01*
X7937868Y-16175317D01*
X7933273Y-16177688D01*
X7933637Y-16171299D01*
X7935408Y-16154242D01*
X7938366Y-16128449D01*
X7942286Y-16095847D01*
X7946948Y-16058365D01*
X7947667Y-16052686D01*
X7965444Y-15921716D01*
X7984875Y-15797311D01*
X8006942Y-15673354D01*
X8017456Y-15618821D01*
X8026557Y-15573482D01*
X8035879Y-15528606D01*
X8045022Y-15485964D01*
X8053591Y-15447324D01*
X8061185Y-15414458D01*
X8067407Y-15389135D01*
X8071858Y-15373124D01*
X8073839Y-15368244D01*
X8080683Y-15369033D01*
X8097671Y-15373293D01*
X8122911Y-15380440D01*
X8154512Y-15389890D01*
X8190583Y-15401057D01*
X8229232Y-15413358D01*
X8268568Y-15426209D01*
X8306700Y-15439024D01*
X8337550Y-15449735D01*
X8421117Y-15479863D01*
X8505970Y-15511527D01*
X8589536Y-15543715D01*
X8669239Y-15575417D01*
X8742505Y-15605621D01*
X8806758Y-15633316D01*
X8819086Y-15638818D01*
X8846596Y-15651183D01*
X9195960Y-15651183D01*
X9200483Y-15648104D01*
X9216476Y-15640283D01*
X9241295Y-15629117D01*
X9273433Y-15615230D01*
X9311383Y-15599246D01*
X9353638Y-15581790D01*
X9398691Y-15563485D01*
X9445034Y-15544955D01*
X9491161Y-15526824D01*
X9535565Y-15509717D01*
X9566696Y-15497983D01*
X9617959Y-15479185D01*
X9670352Y-15460528D01*
X9722471Y-15442464D01*
X9772909Y-15425443D01*
X9820263Y-15409916D01*
X9863127Y-15396334D01*
X9900096Y-15385149D01*
X9929765Y-15376811D01*
X9950729Y-15371771D01*
X9961583Y-15370480D01*
X9962658Y-15370892D01*
X9965412Y-15378528D01*
X9970275Y-15396692D01*
X9976816Y-15423468D01*
X9984607Y-15456941D01*
X9993219Y-15495195D01*
X10002222Y-15536314D01*
X10011187Y-15578382D01*
X10019684Y-15619484D01*
X10027284Y-15657703D01*
X10029383Y-15668625D01*
X10036469Y-15707415D01*
X10044254Y-15752712D01*
X10052475Y-15802730D01*
X10060869Y-15855684D01*
X10069173Y-15909788D01*
X10077124Y-15963257D01*
X10084461Y-16014305D01*
X10090920Y-16061149D01*
X10096239Y-16102002D01*
X10100155Y-16135078D01*
X10102405Y-16158594D01*
X10102850Y-16168012D01*
X10247391Y-16168012D01*
X10247126Y-16165595D01*
X10245594Y-16151225D01*
X10228574Y-16008378D01*
X10207320Y-15859852D01*
X10182626Y-15710534D01*
X10155288Y-15565309D01*
X10133577Y-15462250D01*
X10125362Y-15424875D01*
X10118130Y-15391444D01*
X10112328Y-15364060D01*
X10108402Y-15344827D01*
X10106797Y-15335850D01*
X10106792Y-15335802D01*
X10110476Y-15330718D01*
X10122751Y-15324668D01*
X10144264Y-15317478D01*
X10175659Y-15308977D01*
X10217580Y-15298990D01*
X10270672Y-15287345D01*
X10335581Y-15273870D01*
X10344150Y-15272130D01*
X10497914Y-15244299D01*
X10645203Y-15224339D01*
X10785489Y-15212259D01*
X10918245Y-15208068D01*
X11042943Y-15211774D01*
X11159054Y-15223385D01*
X11266051Y-15242910D01*
X11318875Y-15256468D01*
X11400942Y-15284956D01*
X11474360Y-15320924D01*
X11538598Y-15363889D01*
X11593125Y-15413365D01*
X11637410Y-15468867D01*
X11670923Y-15529911D01*
X11693133Y-15596012D01*
X11693783Y-15598775D01*
X11700826Y-15643233D01*
X11703865Y-15695668D01*
X11848535Y-15695668D01*
X11848618Y-15691175D01*
X11846527Y-15640958D01*
X11842926Y-15610020D01*
X11830249Y-15553300D01*
X11810867Y-15494022D01*
X11786865Y-15438043D01*
X11771266Y-15408737D01*
X11738226Y-15360942D01*
X11695337Y-15312631D01*
X11645137Y-15266073D01*
X11590167Y-15223535D01*
X11532969Y-15187287D01*
X11509041Y-15174559D01*
X11461589Y-15153733D01*
X11404279Y-15133384D01*
X11339948Y-15114295D01*
X11271434Y-15097248D01*
X11201573Y-15083026D01*
X11144250Y-15073881D01*
X11114856Y-15070981D01*
X11075205Y-15068728D01*
X11027725Y-15067124D01*
X10974841Y-15066168D01*
X10918980Y-15065859D01*
X10862570Y-15066197D01*
X10808037Y-15067183D01*
X10757807Y-15068815D01*
X10714308Y-15071094D01*
X10680700Y-15073937D01*
X10616525Y-15081783D01*
X10544784Y-15091834D01*
X10470122Y-15103360D01*
X10397180Y-15115634D01*
X10330601Y-15127927D01*
X10309266Y-15132180D01*
X10268838Y-15140618D01*
X10227159Y-15149643D01*
X10186452Y-15158741D01*
X10148939Y-15167398D01*
X10116844Y-15175100D01*
X10092390Y-15181331D01*
X10077800Y-15185577D01*
X10076555Y-15186029D01*
X10070749Y-15185311D01*
X10064995Y-15177203D01*
X10058315Y-15159860D01*
X10052283Y-15140278D01*
X10043702Y-15111741D01*
X10033115Y-15077725D01*
X10021193Y-15040267D01*
X10008613Y-15001409D01*
X9996046Y-14963190D01*
X9984168Y-14927648D01*
X9973652Y-14896824D01*
X9965172Y-14872757D01*
X9959401Y-14857486D01*
X9957465Y-14853306D01*
X9952476Y-14849329D01*
X9943377Y-14849547D01*
X9927466Y-14854408D01*
X9910014Y-14861137D01*
X9884641Y-14870406D01*
X9859929Y-14877984D01*
X9843113Y-14881863D01*
X9817924Y-14885891D01*
X9845206Y-14962933D01*
X9856134Y-14994634D01*
X9867924Y-15030259D01*
X9879979Y-15067835D01*
X9891698Y-15105383D01*
X9902483Y-15140930D01*
X9911736Y-15172500D01*
X9918859Y-15198116D01*
X9923252Y-15215803D01*
X9924317Y-15223586D01*
X9924228Y-15223735D01*
X9917858Y-15226197D01*
X9900857Y-15232178D01*
X9874649Y-15241191D01*
X9840655Y-15252753D01*
X9800298Y-15266378D01*
X9755001Y-15281583D01*
X9721850Y-15292662D01*
X9556994Y-15350045D01*
X9392564Y-15411902D01*
X9233042Y-15476501D01*
X9120871Y-15525014D01*
X9018366Y-15570675D01*
X8924021Y-15528404D01*
X8809993Y-15478870D01*
X8689060Y-15429191D01*
X8564887Y-15380766D01*
X8441136Y-15334992D01*
X8429860Y-15331060D01*
X7931150Y-15331060D01*
X7929811Y-15339231D01*
X7926091Y-15357664D01*
X7920442Y-15384239D01*
X7913312Y-15416836D01*
X7906055Y-15449329D01*
X7880592Y-15569635D01*
X7856292Y-15698686D01*
X7833795Y-15832536D01*
X7813739Y-15967241D01*
X7796763Y-16098856D01*
X7787744Y-16180282D01*
X7776918Y-16285539D01*
X7671472Y-16362749D01*
X7539349Y-16461483D01*
X7416240Y-16557750D01*
X7299371Y-16653801D01*
X7185965Y-16751891D01*
X7127875Y-16804056D01*
X7090682Y-16837537D01*
X7061748Y-16862781D01*
X7040257Y-16880432D01*
X7025393Y-16891138D01*
X7016338Y-16895543D01*
X7012771Y-16895008D01*
X7006114Y-16888063D01*
X6992456Y-16873630D01*
X6973478Y-16853492D01*
X6950861Y-16829430D01*
X6937566Y-16815261D01*
X6839942Y-16707265D01*
X6749082Y-16598862D01*
X6665878Y-16491261D01*
X6591225Y-16385675D01*
X6526015Y-16283316D01*
X6471142Y-16185394D01*
X6466446Y-16176261D01*
X6432729Y-16107602D01*
X6405335Y-16045748D01*
X6382939Y-15987363D01*
X6364218Y-15929114D01*
X6354725Y-15894850D01*
X6347176Y-15865052D01*
X6341863Y-15840251D01*
X6338390Y-15816927D01*
X6336365Y-15791557D01*
X6335392Y-15760623D01*
X6335077Y-15720602D01*
X6335074Y-15719425D01*
X6335139Y-15680057D01*
X6335766Y-15650460D01*
X6337277Y-15627703D01*
X6339993Y-15608860D01*
X6344237Y-15591002D01*
X6350329Y-15571200D01*
X6351872Y-15566527D01*
X6380439Y-15500031D01*
X6419472Y-15439913D01*
X6467965Y-15387543D01*
X6505252Y-15357469D01*
X6571586Y-15316073D01*
X6645071Y-15281659D01*
X6726334Y-15254091D01*
X6816008Y-15233232D01*
X6914723Y-15218944D01*
X7023107Y-15211090D01*
X7141793Y-15209533D01*
X7181463Y-15210327D01*
X7295543Y-15215766D01*
X7409505Y-15226047D01*
X7526027Y-15241532D01*
X7647787Y-15262586D01*
X7777463Y-15289574D01*
X7797800Y-15294165D01*
X7832845Y-15302138D01*
X7864712Y-15309365D01*
X7890802Y-15315257D01*
X7908516Y-15319227D01*
X7913688Y-15320366D01*
X7926338Y-15325260D01*
X7931150Y-15331060D01*
X8429860Y-15331060D01*
X8321470Y-15293266D01*
X8226471Y-15262268D01*
X8190633Y-15250944D01*
X8159239Y-15240924D01*
X8134190Y-15232824D01*
X8117387Y-15227259D01*
X8110734Y-15224844D01*
X8110707Y-15224823D01*
X8111717Y-15218199D01*
X8116176Y-15201356D01*
X8123515Y-15176120D01*
X8133166Y-15144319D01*
X8144559Y-15107781D01*
X8157126Y-15068333D01*
X8170298Y-15027803D01*
X8183505Y-14988019D01*
X8194353Y-14956102D01*
X8231083Y-14854756D01*
X8269960Y-14758674D01*
X8313146Y-14662763D01*
X8357526Y-14572308D01*
X8420530Y-14456184D01*
X8485335Y-14352627D01*
X8551942Y-14261637D01*
X8620348Y-14183216D01*
X8690553Y-14117364D01*
X8762557Y-14064083D01*
X8809081Y-14036845D01*
X8851985Y-14015580D01*
X8889270Y-14000561D01*
X8925391Y-13990298D01*
X8964801Y-13983300D01*
X8972050Y-13982340D01*
X9037916Y-13979632D01*
X9103695Y-13988458D01*
X9169958Y-14009023D01*
X9237276Y-14041529D01*
X9306220Y-14086179D01*
X9342761Y-14114149D01*
X9385947Y-14148869D01*
X9412611Y-14121037D01*
X9432523Y-14101383D01*
X9453972Y-14081879D01*
X9464675Y-14072900D01*
X9490075Y-14052594D01*
X9455150Y-14020680D01*
X9428306Y-13998077D01*
X9395013Y-13972918D01*
X9358536Y-13947412D01*
X9322137Y-13923765D01*
X9289078Y-13904183D01*
X9264395Y-13891646D01*
X9241416Y-13882197D01*
X9211955Y-13871055D01*
X9181645Y-13860337D01*
X9175716Y-13858343D01*
X9154286Y-13851499D01*
X9135875Y-13846655D01*
X9117519Y-13843472D01*
X9096249Y-13841609D01*
X9069102Y-13840725D01*
X9033109Y-13840479D01*
X9020175Y-13840478D01*
X8980424Y-13840688D01*
M02*
